<?xml version="1.0" encoding="utf-8"?>
<!-- Generator: Adobe Illustrator 21.1.0, SVG Export Plug-In . SVG Version: 6.00 Build 0)  -->
<svg version="1.1" id="seat-map" xmlns="http://www.w3.org/2000/svg" xmlns:xlink="http://www.w3.org/1999/xlink" x="0px" y="0px"
	 viewBox="0 0 1000 2000" style="enable-background:new 0 0 1000 2000;" xml:space="preserve">
<style type="text/css">
	
</style>
<defs>
	<link  href="style.css" rel="stylesheet" type="text/css" xmlns="http://www.w3.org/1999/xhtml"></link>
</defs>
<script  xlink:href="http://cdnjs.cloudflare.com/ajax/libs/jquery/2.0.0/jquery.min.js"></script>
<script  xlink:href="seat.js"></script>
<g id="planeShape">
	<path class="planeOutline" d="M665.5,1434.5c0,61-89.3,351-199.7,351s-200.2-290-200.3-351v1v-790c0-87.8,90-469,200.5-469
		s199.5,381.2,199.5,469v790"/>
	<polygon class="planeOutline" points="690,1080.5 665.5,1080.5 665.5,780.5 690.5,825.5 	"/>
	<polygon class="planeOutline" points="241,1080.5 265.5,1080.5 265.5,780.5 240.5,825.5 	"/>
	<polygon class="planeOutline" points="690,1080.5 665.5,1080.5 665.5,780.5 690.5,825.5 	"/>
	<g id="window">
		<path class="windowGlass" d="M378.4,328.3c-10.9,20.1-23.9,40.2-35.9,63.8c-0.2,0.5-1,0.4-1-0.2l-5-19.4c0-0.1,5-13,5.1-13.2
			c6.1-15.3,12.5-30.1,19.1-44L378.4,328.3z"/>
		<path class="windowGlass" d="M464.9,239.5c-19.4,0.5-32.2,16.7-50,36.9l-23.3-16.4c22.7-33.5,47.4-54.9,73.2-55.5L464.9,239.5z"/>
		<path class="windowGlass" d="M361.7,313.3c9.1-18.9,18.7-36.3,28.7-51.3l23,16.3c-11.5,13.5-23.6,29.3-34.1,48.5L361.7,313.3z"/>
		<path class="windowGlass" d="M553.5,328.3c10.9,20.1,24,41.2,35.9,63.8c0.3,0.5,1,0.4,1-0.2l5.1-19.4c0-0.1-5.2-13.1-5.2-13.2
			c-6.1-15.3-12.5-30.1-19.1-44L553.5,328.3z"/>
		<path class="windowGlass" d="M467,239.5c19.4,0.5,32.2,16.7,49.9,36.9l23.3-16.4c-22.7-33.5-47.4-54.9-73.2-55.5L467,239.5z"/>
		<path class="windowGlass" d="M570.2,313.3c-9-18.9-18.5-36.3-28.4-51.3L519,278.3c11.4,13.5,23.4,29.3,33.8,48.5L570.2,313.3z"/>
	</g>
	<g id="WC2">
		<path class="wcBox" d="M438.5,1542.5H294.8c-1.3,0-2.5-0.9-2.9-2.2l-16.3-58c-0.5-1.9,0.9-3.8,2.9-3.8h160c1.7,0,3,1.3,3,3v58
			C441.5,1541.2,440.2,1542.5,438.5,1542.5z"/>
		<text transform="matrix(1 0 0 1 353.479 1514.5)" class="wcLabel">WC</text>
	</g>
	<g id="WC3">
		<path class="wcBox" d="M492.5,1542.5h143.7c1.3,0,2.5-0.9,2.9-2.2l16.3-58c0.5-1.9-0.9-3.8-2.9-3.8h-160c-1.7,0-3,1.3-3,3v58
			C489.5,1541.2,490.8,1542.5,492.5,1542.5z"/>
		<text transform="matrix(1 0 0 1 557.479 1514.5)" class="wcLabel">WC</text>
	</g>
	<g id="Galley">
		<path class="wcBox" d="M449.5,466.5l-145.7,0c-1.4,0-2.6,0.9-2.9,2.3l-14.4,57.9c-0.5,1.9,0.9,3.8,2.9,3.8l160,0c1.7,0,3-1.3,3-3
			l0-58C452.5,467.8,451.2,466.5,449.5,466.5z"/>
		<text transform="matrix(1 0 0 1 347.479 501.5)" class="wcLabel">GALLEY</text>
	</g>
	<g id="WC1_1_">
		<path class="wcBox" d="M481.5,466.5h147.2c0.5,0,0.9,0.3,1,0.8l15.5,62c0.2,0.6-0.3,1.2-1,1.2H481.5c-1.7,0-3-1.3-3-3v-58
			C478.5,467.8,479.8,466.5,481.5,466.5z"/>
		<text transform="matrix(1 0 0 1 542.479 502.5)" class="wcLabel">WC</text>
	</g>
	<g id="exitArror">
		<polyline class="arrow" points="276.5,577.5 260.4,561.5 276.5,545.5 		"/>
		<polyline class="arrow" points="286.5,577.5 270.4,561.5 286.5,545.5 		"/>
		<polyline class="arrow" points="296.5,577.5 280.4,561.5 296.5,545.5 		"/>
	</g>
	<g id="exitArror_1_">
		<polyline class="arrow" points="654.6,545.4 670.6,561.4 654.6,577.4 		"/>
		<polyline class="arrow" points="644.6,545.4 660.6,561.4 644.6,577.4 		"/>
		<polyline class="arrow" points="634.6,545.4 650.6,561.4 634.6,577.4 		"/>
	</g>
	<g id="exitArror_3_">
		<polyline class="arrow" points="296.5,1602.5 280.4,1586.5 296.5,1570.5 		"/>
		<polyline class="arrow" points="306.5,1602.5 290.4,1586.5 306.5,1570.5 		"/>
		<polyline class="arrow" points="316.5,1602.5 300.4,1586.5 316.5,1570.5 		"/>
	</g>
	<g id="exitArror_2_">
		<polyline class="arrow" points="634.6,1570.4 650.6,1586.4 634.6,1602.4 		"/>
		<polyline class="arrow" points="624.6,1570.4 640.6,1586.4 624.6,1602.4 		"/>
		<polyline class="arrow" points="614.6,1570.4 630.6,1586.4 614.6,1602.4 		"/>
	</g>
</g>
	<g id="Rows">
		<g id="1A" class="seat disabled">
			<path  d="M314.6,667.3h-24.8c-6.3,0-11.5-5.4-11.5-11.9l0-27.5c0-4.4,3.4-7.9,7.6-7.9h32.5c4.2,0,7.6,3.6,7.6,7.9
				l0,27.5C326,661.9,320.9,667.3,314.6,667.3z"/>
			<path  d="M309.4,660.3h-14.7c-6.3,0-11.5-5.4-11.5-11.9l0-21.6c0-4.4,3.4-7.9,7.6-7.9l22.3,0c4.2,0,7.6,3.6,7.6,7.9
				l0,21.6C320.9,655,315.7,660.3,309.4,660.3z"/>
		</g>
		<g id="1B" class="seat economy">
			<path  d="M372.3,667.3l-24.8,0c-6.3,0-11.5-5.4-11.5-11.9l0-27.5c0-4.4,3.4-7.9,7.6-7.9l32.5,0c4.2,0,7.6,3.6,7.6,7.9
				l0,27.5C383.7,661.9,378.6,667.3,372.3,667.3z"/>
			<path  d="M367.1,660.3h-14.7c-6.3,0-11.5-5.4-11.5-11.9l0-21.6c0-4.4,3.4-7.9,7.6-7.9l22.4,0c4.2,0,7.6,3.6,7.6,7.9
				l0,21.6C378.6,655,373.4,660.3,367.1,660.3z"/>
		</g>
		<g id="1C" class="seat disabled">
			<path d="M430,667.3l-24.8,0c-6.3,0-11.5-5.4-11.5-11.9l0-27.5c0-4.4,3.4-7.9,7.6-7.9l32.5,0c4.2,0,7.6,3.6,7.6,7.9
				l0,27.5C441.5,661.9,436.3,667.3,430,667.3z"/>
			<path d="M424.9,660.3l-14.7,0c-6.3,0-11.5-5.4-11.5-11.9l0-21.6c0-4.4,3.4-7.9,7.6-7.9h22.3c4.2,0,7.6,3.6,7.6,7.9
				l0,21.6C436.3,655,431.2,660.3,424.9,660.3z"/>
		</g>
		<g id="1D" class="seat economy">
			<path  d="M525.7,667.3h-24.8c-6.3,0-11.5-5.4-11.5-11.9l0-27.5c0-4.4,3.4-7.9,7.6-7.9h32.5c4.2,0,7.6,3.6,7.6,7.9
				l0,27.5C537.2,661.9,532,667.3,525.7,667.3z"/>
			<path  d="M520.6,660.3h-14.7c-6.3,0-11.5-5.4-11.5-11.9l0-21.6c0-4.4,3.4-7.9,7.6-7.9l22.3,0c4.2,0,7.6,3.6,7.6,7.9
				l0,21.6C532,655,526.9,660.3,520.6,660.3z"/>
		</g>
		<g id="1E" class="seat economy">
			<path  d="M583.4,667.3h-24.8c-6.3,0-11.5-5.4-11.5-11.9v-27.5c0-4.4,3.4-7.9,7.6-7.9l32.5,0c4.2,0,7.6,3.6,7.6,7.9
				v27.5C594.9,661.9,589.7,667.3,583.4,667.3z"/>
			<path  d="M578.3,660.3h-14.7c-6.3,0-11.5-5.4-11.5-11.9l0-21.6c0-4.4,3.4-7.9,7.6-7.9l22.3,0c4.2,0,7.6,3.6,7.6,7.9
				l0,21.6C589.7,655,584.6,660.3,578.3,660.3z"/>
		</g>
		<g id="1F" class="seat economy">
			<path  d="M641.1,667.3l-24.8,0c-6.3,0-11.5-5.4-11.5-11.9l0-27.5c0-4.4,3.4-7.9,7.6-7.9l32.5,0c4.2,0,7.6,3.6,7.6,7.9
				l0,27.5C652.6,661.9,647.4,667.3,641.1,667.3z"/>
			<path  d="M636,660.3l-14.7,0c-6.3,0-11.5-5.4-11.5-11.9l0-21.6c0-4.4,3.4-7.9,7.6-7.9h22.3c4.2,0,7.6,3.6,7.6,7.9
				l0,21.6C647.4,655,642.3,660.3,636,660.3z"/>
		</g>
		<g id="2A" class="seat economy">
			<path  d="M314.6,727.6l-24.8,0c-6.3,0-11.5-5.4-11.5-11.9l0-27.5c0-4.4,3.4-7.9,7.6-7.9l32.5,0c4.2,0,7.6,3.6,7.6,7.9
				l0,27.5C326,722.3,320.9,727.6,314.6,727.6z"/>
			<path  d="M309.4,720.7h-14.7c-6.3,0-11.5-5.4-11.5-11.9l0-21.6c0-4.4,3.4-7.9,7.6-7.9l22.3,0c4.2,0,7.6,3.6,7.6,7.9
				l0,21.6C320.9,715.3,315.7,720.7,309.4,720.7z"/>
		</g>
		<g id="2B" class="seat economy">
			<path  d="M372.3,727.6h-24.8c-6.3,0-11.5-5.4-11.5-11.9l0-27.5c0-4.4,3.4-7.9,7.6-7.9l32.5,0c4.2,0,7.6,3.6,7.6,7.9
				l0,27.5C383.7,722.3,378.6,727.6,372.3,727.6z"/>
			<path  d="M367.1,720.7h-14.7c-6.3,0-11.5-5.4-11.5-11.9l0-21.6c0-4.4,3.4-7.9,7.6-7.9h22.4c4.2,0,7.6,3.6,7.6,7.9
				l0,21.6C378.6,715.3,373.4,720.7,367.1,720.7z"/>
		</g>
		<g id="2C" class="seat economy">
			<path  d="M430,727.6h-24.8c-6.3,0-11.5-5.4-11.5-11.9l0-27.5c0-4.4,3.4-7.9,7.6-7.9h32.5c4.2,0,7.6,3.6,7.6,7.9
				l0,27.5C441.5,722.3,436.3,727.6,430,727.6z"/>
			<path  d="M424.9,720.7l-14.7,0c-6.3,0-11.5-5.4-11.5-11.9l0-21.6c0-4.4,3.4-7.9,7.6-7.9h22.3c4.2,0,7.6,3.6,7.6,7.9
				l0,21.6C436.3,715.3,431.2,720.7,424.9,720.7z"/>
		</g>
		<g id="2D" class="seat economy">
			<path  d="M525.7,727.6l-24.8,0c-6.3,0-11.5-5.4-11.5-11.9l0-27.5c0-4.4,3.4-7.9,7.6-7.9l32.5,0c4.2,0,7.6,3.6,7.6,7.9
				l0,27.5C537.2,722.3,532,727.6,525.7,727.6z"/>
			<path  d="M520.6,720.7h-14.7c-6.3,0-11.5-5.4-11.5-11.9l0-21.6c0-4.4,3.4-7.9,7.6-7.9l22.3,0c4.2,0,7.6,3.6,7.6,7.9
				v21.6C532,715.3,526.9,720.7,520.6,720.7z"/>
		</g>
		<g id="2E" class="seat economy">
			<path  d="M583.4,727.6l-24.8,0c-6.3,0-11.5-5.4-11.5-11.9l0-27.5c0-4.4,3.4-7.9,7.6-7.9l32.5,0c4.2,0,7.6,3.6,7.6,7.9
				l0,27.5C594.9,722.3,589.7,727.6,583.4,727.6z"/>
			<path  d="M578.3,720.7h-14.7c-6.3,0-11.5-5.4-11.5-11.9v-21.6c0-4.4,3.4-7.9,7.6-7.9l22.3,0c4.2,0,7.6,3.6,7.6,7.9
				v21.6C589.7,715.3,584.6,720.7,578.3,720.7z"/>
		</g>
		<g id="2F" class="seat disabled">
			<path  d="M641.1,727.6h-24.8c-6.3,0-11.5-5.4-11.5-11.9l0-27.5c0-4.4,3.4-7.9,7.6-7.9h32.5c4.2,0,7.6,3.6,7.6,7.9
				l0,27.5C652.6,722.3,647.4,727.6,641.1,727.6z"/>
			<path  d="M636,720.7l-14.7,0c-6.3,0-11.5-5.4-11.5-11.9l0-21.6c0-4.4,3.4-7.9,7.6-7.9h22.3c4.2,0,7.6,3.6,7.6,7.9
				l0,21.6C647.4,715.3,642.3,720.7,636,720.7z"/>
		</g>
		<g id="3A" class="seat economy">
			<path  d="M314.6,788l-24.8,0c-6.3,0-11.5-5.4-11.5-11.9l0-27.5c0-4.4,3.4-7.9,7.6-7.9l32.5,0c4.2,0,7.6,3.6,7.6,7.9
				l0,27.5C326,782.6,320.9,788,314.6,788z"/>
			<path  d="M309.4,781l-14.7,0c-6.3,0-11.5-5.4-11.5-11.9l0-21.6c0-4.4,3.4-7.9,7.6-7.9h22.3c4.2,0,7.6,3.6,7.6,7.9
				l0,21.6C320.9,775.7,315.7,781,309.4,781z"/>
		</g>
		<g id="3B" class="seat economy">
			<path  d="M372.3,788h-24.8c-6.3,0-11.5-5.4-11.5-11.9l0-27.5c0-4.4,3.4-7.9,7.6-7.9l32.5,0c4.2,0,7.6,3.6,7.6,7.9
				l0,27.5C383.8,782.6,378.6,788,372.3,788z"/>
			<path  d="M367.2,781h-14.7c-6.3,0-11.5-5.4-11.5-11.9l0-21.6c0-4.4,3.4-7.9,7.6-7.9l22.3,0c4.2,0,7.6,3.6,7.6,7.9
				l0,21.6C378.6,775.7,373.5,781,367.2,781z"/>
		</g>
		<g id="3C" class="seat economy">
			<path  d="M430,788h-24.8c-6.3,0-11.5-5.4-11.5-11.9l0-27.5c0-4.4,3.4-7.9,7.6-7.9l32.5,0c4.2,0,7.6,3.6,7.6,7.9
				l0,27.5C441.5,782.6,436.3,788,430,788z"/>
			<path  d="M424.9,781h-14.7c-6.3,0-11.5-5.4-11.5-11.9l0-21.6c0-4.4,3.4-7.9,7.6-7.9l22.3,0c4.2,0,7.6,3.6,7.6,7.9
				l0,21.6C436.3,775.7,431.2,781,424.9,781z"/>
		</g>
		<g id="3D" class="seat economy">
			<path  d="M525.7,788l-24.8,0c-6.3,0-11.5-5.4-11.5-11.9l0-27.5c0-4.4,3.4-7.9,7.6-7.9l32.5,0c4.2,0,7.6,3.6,7.6,7.9
				l0,27.5C537.1,782.6,532,788,525.7,788z"/>
			<path  d="M520.5,781l-14.7,0c-6.3,0-11.5-5.4-11.5-11.9l0-21.6c0-4.4,3.4-7.9,7.6-7.9h22.4c4.2,0,7.6,3.6,7.6,7.9
				v21.6C532,775.7,526.8,781,520.5,781z"/>
		</g>
		<g id="3E" class="seat economy">
			<path  d="M583.4,788h-24.8c-6.3,0-11.5-5.4-11.5-11.9l0-27.5c0-4.4,3.4-7.9,7.6-7.9l32.5,0c4.2,0,7.6,3.6,7.6,7.9
				l0,27.5C594.9,782.6,589.7,788,583.4,788z"/>
			<path  d="M578.3,781h-14.7c-6.3,0-11.5-5.4-11.5-11.9l0-21.6c0-4.4,3.4-7.9,7.6-7.9l22.3,0c4.2,0,7.6,3.6,7.6,7.9
				l0,21.6C589.7,775.7,584.6,781,578.3,781z"/>
		</g>
		<g id="3F" class="seat economy">
			<path  d="M641.1,788h-24.8c-6.3,0-11.5-5.4-11.5-11.9l0-27.5c0-4.4,3.4-7.9,7.6-7.9h32.5c4.2,0,7.6,3.6,7.6,7.9
				l0,27.5C652.6,782.6,647.4,788,641.1,788z"/>
			<path  d="M636,781h-14.7c-6.3,0-11.5-5.4-11.5-11.9l0-21.6c0-4.4,3.4-7.9,7.6-7.9l22.3,0c4.2,0,7.6,3.6,7.6,7.9
				l0,21.6C647.4,775.7,642.3,781,636,781z"/>
		</g>
		<g id="4A" class="seat economy">
			<path  d="M314.6,848.3l-24.8,0c-6.3,0-11.5-5.4-11.5-11.9l0-27.5c0-4.4,3.4-7.9,7.6-7.9h32.5c4.2,0,7.6,3.6,7.6,7.9
				l0,27.5C326,843,320.9,848.3,314.6,848.3z"/>
			<path  d="M309.4,841.4l-14.7,0c-6.3,0-11.5-5.4-11.5-11.9l0-21.6c0-4.4,3.4-7.9,7.6-7.9h22.3c4.2,0,7.6,3.6,7.6,7.9
				l0,21.6C320.9,836,315.7,841.4,309.4,841.4z"/>
		</g>
		<g id="4B" class="seat economy">
			<path  d="M372.3,848.3h-24.8c-6.3,0-11.5-5.4-11.5-11.9l0-27.5c0-4.4,3.4-7.9,7.6-7.9l32.5,0c4.2,0,7.6,3.6,7.6,7.9
				l0,27.5C383.7,843,378.6,848.3,372.3,848.3z"/>
			<path  d="M367.1,841.4h-14.7c-6.3,0-11.5-5.4-11.5-11.9l0-21.6c0-4.4,3.4-7.9,7.6-7.9l22.4,0c4.2,0,7.6,3.6,7.6,7.9
				l0,21.6C378.6,836,373.4,841.4,367.1,841.4z"/>
		</g>
		<g id="4C" class="seat economy">
			<path  d="M430,848.3h-24.8c-6.3,0-11.5-5.4-11.5-11.9l0-27.5c0-4.4,3.4-7.9,7.6-7.9l32.5,0c4.2,0,7.6,3.6,7.6,7.9
				l0,27.5C441.5,843,436.3,848.3,430,848.3z"/>
			<path  d="M424.9,841.4h-14.7c-6.3,0-11.5-5.4-11.5-11.9l0-21.6c0-4.4,3.4-7.9,7.6-7.9l22.3,0c4.2,0,7.6,3.6,7.6,7.9
				l0,21.6C436.3,836,431.2,841.4,424.9,841.4z"/>
		</g>
		<g id="4D" class="seat economy">
			<path  d="M525.7,848.3l-24.8,0c-6.3,0-11.5-5.4-11.5-11.9l0-27.5c0-4.4,3.4-7.9,7.6-7.9h32.5c4.2,0,7.6,3.6,7.6,7.9
				v27.5C537.1,843,532,848.3,525.7,848.3z"/>
			<path  d="M520.5,841.4l-14.7,0c-6.3,0-11.5-5.4-11.5-11.9l0-21.6c0-4.4,3.4-7.9,7.6-7.9h22.3c4.2,0,7.6,3.6,7.6,7.9
				v21.6C532,836,526.8,841.4,520.5,841.4z"/>
		</g>
		<g id="4E" class="seat economy">
			<path  d="M583.4,848.3h-24.8c-6.3,0-11.5-5.4-11.5-11.9v-27.5c0-4.4,3.4-7.9,7.6-7.9l32.5,0c4.2,0,7.6,3.6,7.6,7.9
				v27.5C594.8,843,589.7,848.3,583.4,848.3z"/>
			<path  d="M578.2,841.4h-14.7c-6.3,0-11.5-5.4-11.5-11.9v-21.6c0-4.4,3.4-7.9,7.6-7.9l22.4,0c4.2,0,7.6,3.6,7.6,7.9
				l0,21.6C589.7,836,584.5,841.4,578.2,841.4z"/>
		</g>
		<g id="4F" class="seat economy">
			<path  d="M641.1,848.3h-24.8c-6.3,0-11.5-5.4-11.5-11.9l0-27.5c0-4.4,3.4-7.9,7.6-7.9l32.5,0c4.2,0,7.6,3.6,7.6,7.9
				l0,27.5C652.6,843,647.4,848.3,641.1,848.3z"/>
			<path  d="M636,841.4h-14.7c-6.3,0-11.5-5.4-11.5-11.9v-21.6c0-4.4,3.4-7.9,7.6-7.9l22.3,0c4.2,0,7.6,3.6,7.6,7.9v21.6
				C647.4,836,642.3,841.4,636,841.4z"/>
		</g>
		<g id="5A" class="seat economy">
			<path  d="M314.6,908.7h-24.8c-6.3,0-11.5-5.4-11.5-11.9l0-27.5c0-4.4,3.4-7.9,7.6-7.9h32.5c4.2,0,7.6,3.6,7.6,7.9
				l0,27.5C326,903.3,320.9,908.7,314.6,908.7z"/>
			<path  d="M309.4,901.7h-14.7c-6.3,0-11.5-5.4-11.5-11.9l0-21.6c0-4.4,3.4-7.9,7.6-7.9h22.3c4.2,0,7.6,3.6,7.6,7.9
				l0,21.6C320.9,896.4,315.7,901.7,309.4,901.7z"/>
		</g>
		<g id="5B" class="seat economy">
			<path  d="M372.3,908.7l-24.8,0c-6.3,0-11.5-5.4-11.5-11.9l0-27.5c0-4.4,3.4-7.9,7.6-7.9l32.5,0c4.2,0,7.6,3.6,7.6,7.9
				l0,27.5C383.7,903.3,378.6,908.7,372.3,908.7z"/>
			<path  d="M367.1,901.7l-14.7,0c-6.3,0-11.5-5.4-11.5-11.9l0-21.6c0-4.4,3.4-7.9,7.6-7.9l22.4,0c4.2,0,7.6,3.6,7.6,7.9
				l0,21.6C378.6,896.4,373.4,901.7,367.1,901.7z"/>
		</g>
		<g id="5C" class="seat economy">
			<path  d="M430,908.7l-24.8,0c-6.3,0-11.5-5.4-11.5-11.9l0-27.5c0-4.4,3.4-7.9,7.6-7.9l32.5,0c4.2,0,7.6,3.6,7.6,7.9
				l0,27.5C441.5,903.3,436.3,908.7,430,908.7z"/>
			<path  d="M424.9,901.7h-14.7c-6.3,0-11.5-5.4-11.5-11.9l0-21.6c0-4.4,3.4-7.9,7.6-7.9l22.3,0c4.2,0,7.6,3.6,7.6,7.9
				l0,21.6C436.3,896.4,431.2,901.7,424.9,901.7z"/>
		</g>
		<g id="5D" class="seat economy">
			<path  d="M525.7,908.7h-24.8c-6.3,0-11.5-5.4-11.5-11.9l0-27.5c0-4.4,3.4-7.9,7.6-7.9h32.5c4.2,0,7.6,3.6,7.6,7.9
				l0,27.5C537.1,903.3,532,908.7,525.7,908.7z"/>
			<path  d="M520.5,901.7h-14.7c-6.3,0-11.5-5.4-11.5-11.9l0-21.6c0-4.4,3.4-7.9,7.6-7.9h22.3c4.2,0,7.6,3.6,7.6,7.9
				l0,21.6C532,896.4,526.8,901.7,520.5,901.7z"/>
		</g>
		<g id="5E" class="seat economy">
			<path  d="M583.4,908.7l-24.8,0c-6.3,0-11.5-5.4-11.5-11.9l0-27.5c0-4.4,3.4-7.9,7.6-7.9l32.5,0c4.2,0,7.6,3.6,7.6,7.9
				l0,27.5C594.8,903.3,589.7,908.7,583.4,908.7z"/>
			<path  d="M578.2,901.7l-14.7,0c-6.3,0-11.5-5.4-11.5-11.9l0-21.6c0-4.4,3.4-7.9,7.6-7.9l22.4,0c4.2,0,7.6,3.6,7.6,7.9
				v21.6C589.7,896.4,584.5,901.7,578.2,901.7z"/>
		</g>
		<g id="5F" class="seat economy">
			<path  d="M641.1,908.7l-24.8,0c-6.3,0-11.5-5.4-11.5-11.9l0-27.5c0-4.4,3.4-7.9,7.6-7.9l32.5,0c4.2,0,7.6,3.6,7.6,7.9
				l0,27.5C652.6,903.3,647.4,908.7,641.1,908.7z"/>
			<path  d="M636,901.7h-14.7c-6.3,0-11.5-5.4-11.5-11.9v-21.6c0-4.4,3.4-7.9,7.6-7.9l22.3,0c4.2,0,7.6,3.6,7.6,7.9v21.6
				C647.4,896.4,642.3,901.7,636,901.7z"/>
		</g>
		<g id="6A" class="seat economy">
			<path  d="M314.6,969l-24.8,0c-6.3,0-11.5-5.4-11.5-11.9l0-27.5c0-4.4,3.4-7.9,7.6-7.9l32.5,0c4.2,0,7.6,3.6,7.6,7.9
				l0,27.5C326,963.7,320.9,969,314.6,969z"/>
			<path  d="M309.4,962.1l-14.7,0c-6.3,0-11.5-5.4-11.5-11.9l0-21.6c0-4.4,3.4-7.9,7.6-7.9l22.3,0c4.2,0,7.6,3.6,7.6,7.9
				l0,21.6C320.9,956.7,315.7,962.1,309.4,962.1z"/>
		</g>
		<g id="6B" class="seat economy">
			<path  d="M372.3,969h-24.8c-6.3,0-11.5-5.4-11.5-11.9l0-27.5c0-4.4,3.4-7.9,7.6-7.9h32.5c4.2,0,7.6,3.6,7.6,7.9
				l0,27.5C383.7,963.7,378.6,969,372.3,969z"/>
			<path  d="M367.1,962.1h-14.7c-6.3,0-11.5-5.4-11.5-11.9l0-21.6c0-4.4,3.4-7.9,7.6-7.9h22.4c4.2,0,7.6,3.6,7.6,7.9
				l0,21.6C378.6,956.7,373.4,962.1,367.1,962.1z"/>
		</g>
		<g id="6C" class="seat economy">
			<path  d="M430,969l-24.8,0c-6.3,0-11.5-5.4-11.5-11.9l0-27.5c0-4.4,3.4-7.9,7.6-7.9l32.5,0c4.2,0,7.6,3.6,7.6,7.9
				l0,27.5C441.5,963.7,436.3,969,430,969z"/>
			<path  d="M424.9,962.1h-14.7c-6.3,0-11.5-5.4-11.5-11.9l0-21.6c0-4.4,3.4-7.9,7.6-7.9l22.3,0c4.2,0,7.6,3.6,7.6,7.9
				l0,21.6C436.3,956.7,431.2,962.1,424.9,962.1z"/>
		</g>
		<g id="6D" class="seat economy">
			<path  d="M525.7,969l-24.8,0c-6.3,0-11.5-5.4-11.5-11.9l0-27.5c0-4.4,3.4-7.9,7.6-7.9l32.5,0c4.2,0,7.6,3.6,7.6,7.9
				l0,27.5C537.1,963.7,532,969,525.7,969z"/>
			<path  d="M520.5,962.1l-14.7,0c-6.3,0-11.5-5.4-11.5-11.9l0-21.6c0-4.4,3.4-7.9,7.6-7.9l22.3,0c4.2,0,7.6,3.6,7.6,7.9
				v21.6C532,956.7,526.8,962.1,520.5,962.1z"/>
		</g>
		<g id="6E" class="seat economy">
			<path  d="M583.4,969h-24.8c-6.3,0-11.5-5.4-11.5-11.9l0-27.5c0-4.4,3.4-7.9,7.6-7.9h32.5c4.2,0,7.6,3.6,7.6,7.9
				l0,27.5C594.8,963.7,589.7,969,583.4,969z"/>
			<path  d="M578.2,962.1h-14.7c-6.3,0-11.5-5.4-11.5-11.9v-21.6c0-4.4,3.4-7.9,7.6-7.9H582c4.2,0,7.6,3.6,7.6,7.9
				l0,21.6C589.7,956.7,584.5,962.1,578.2,962.1z"/>
		</g>
		<g id="6F" class="seat economy">
			<path  d="M641.1,969l-24.8,0c-6.3,0-11.5-5.4-11.5-11.9l0-27.5c0-4.4,3.4-7.9,7.6-7.9l32.5,0c4.2,0,7.6,3.6,7.6,7.9
				l0,27.5C652.6,963.7,647.4,969,641.1,969z"/>
			<path  d="M636,962.1h-14.7c-6.3,0-11.5-5.4-11.5-11.9v-21.6c0-4.4,3.4-7.9,7.6-7.9h22.3c4.2,0,7.6,3.6,7.6,7.9v21.6
				C647.4,956.7,642.3,962.1,636,962.1z"/>
		</g>
		<g id="7_A" class="seat economy">
			<path  d="M314.6,1029.3l-24.8,0c-6.3,0-11.5-5.4-11.5-11.9l0-27.5c0-4.4,3.4-7.9,7.6-7.9l32.5,0
				c4.2,0,7.6,3.6,7.6,7.9l0,27.5C326,1023.9,320.9,1029.3,314.6,1029.3z"/>
			<path  d="M309.4,1022.4h-14.7c-6.3,0-11.5-5.4-11.5-11.9l0-21.6c0-4.4,3.4-7.9,7.6-7.9h22.3c4.2,0,7.6,3.6,7.6,7.9
				l0,21.6C320.9,1017,315.7,1022.4,309.4,1022.4z"/>
		</g>
		<g id="7_B" class="seat economy">
			<path  d="M372.3,1029.3h-24.8c-6.3,0-11.5-5.4-11.5-11.9l0-27.5c0-4.4,3.4-7.9,7.6-7.9l32.5,0c4.2,0,7.6,3.6,7.6,7.9
				l0,27.5C383.7,1023.9,378.6,1029.3,372.3,1029.3z"/>
			<path  d="M367.1,1022.4l-14.7,0c-6.3,0-11.5-5.4-11.5-11.9l0-21.6c0-4.4,3.4-7.9,7.6-7.9l22.4,0
				c4.2,0,7.6,3.6,7.6,7.9l0,21.6C378.6,1017,373.4,1022.4,367.1,1022.4z"/>
		</g>
		<g id="7_C" class="seat economy">
			<path  d="M430,1029.3h-24.8c-6.3,0-11.5-5.4-11.5-11.9l0-27.5c0-4.4,3.4-7.9,7.6-7.9l32.5,0c4.2,0,7.6,3.6,7.6,7.9
				l0,27.5C441.5,1023.9,436.3,1029.3,430,1029.3z"/>
			<path  d="M424.9,1022.4h-14.7c-6.3,0-11.5-5.4-11.5-11.9l0-21.6c0-4.4,3.4-7.9,7.6-7.9h22.3c4.2,0,7.6,3.6,7.6,7.9
				l0,21.6C436.3,1017,431.2,1022.4,424.9,1022.4z"/>
		</g>
		<g id="7_D" class="seat economy">
			<path  d="M525.7,1029.3l-24.8,0c-6.3,0-11.5-5.4-11.5-11.9l0-27.5c0-4.4,3.4-7.9,7.6-7.9l32.5,0
				c4.2,0,7.6,3.6,7.6,7.9v27.5C537.1,1023.9,532,1029.3,525.7,1029.3z"/>
			<path  d="M520.5,1022.4h-14.7c-6.3,0-11.5-5.4-11.5-11.9l0-21.6c0-4.4,3.4-7.9,7.6-7.9h22.3c4.2,0,7.6,3.6,7.6,7.9
				l0,21.6C532,1017,526.8,1022.4,520.5,1022.4z"/>
		</g>
		<g id="7_E" class="seat economy">
			<path  d="M583.4,1029.3h-24.8c-6.3,0-11.5-5.4-11.5-11.9v-27.5c0-4.4,3.4-7.9,7.6-7.9l32.5,0c4.2,0,7.6,3.6,7.6,7.9
				v27.5C594.8,1023.9,589.7,1029.3,583.4,1029.3z"/>
			<path  d="M578.2,1022.4l-14.7,0c-6.3,0-11.5-5.4-11.5-11.9l0-21.6c0-4.4,3.4-7.9,7.6-7.9l22.4,0
				c4.2,0,7.6,3.6,7.6,7.9v21.6C589.7,1017,584.5,1022.4,578.2,1022.4z"/>
		</g>
		<g id="7_F" class="seat economy">
			<path  d="M641.1,1029.3h-24.8c-6.3,0-11.5-5.4-11.5-11.9l0-27.5c0-4.4,3.4-7.9,7.6-7.9l32.5,0c4.2,0,7.6,3.6,7.6,7.9
				l0,27.5C652.6,1023.9,647.4,1029.3,641.1,1029.3z"/>
			<path  d="M636,1022.4h-14.7c-6.3,0-11.5-5.4-11.5-11.9v-21.6c0-4.4,3.4-7.9,7.6-7.9h22.3c4.2,0,7.6,3.6,7.6,7.9v21.6
				C647.4,1017,642.3,1022.4,636,1022.4z"/>
		</g>
		<g id="8_A" class="seat economy">
			<path  d="M314.6,1089.6h-24.8c-6.3,0-11.5-5.4-11.5-11.9l0-27.5c0-4.4,3.4-7.9,7.6-7.9h32.5c4.2,0,7.6,3.6,7.6,7.9
				l0,27.5C326,1084.3,320.9,1089.6,314.6,1089.6z"/>
			<path  d="M309.4,1082.7h-14.7c-6.3,0-11.5-5.4-11.5-11.9l0-21.6c0-4.4,3.4-7.9,7.6-7.9h22.3c4.2,0,7.6,3.6,7.6,7.9
				l0,21.6C320.9,1077.4,315.7,1082.7,309.4,1082.7z"/>
		</g>
		<g id="8_B" class="seat economy">
			<path  d="M372.3,1089.6l-24.8,0c-6.3,0-11.5-5.4-11.5-11.9l0-27.5c0-4.4,3.4-7.9,7.6-7.9l32.5,0
				c4.2,0,7.6,3.6,7.6,7.9l0,27.5C383.7,1084.3,378.6,1089.6,372.3,1089.6z"/>
			<path  d="M367.1,1082.7l-14.7,0c-6.3,0-11.5-5.4-11.5-11.9l0-21.6c0-4.4,3.4-7.9,7.6-7.9l22.4,0
				c4.2,0,7.6,3.6,7.6,7.9l0,21.6C378.6,1077.4,373.4,1082.7,367.1,1082.7z"/>
		</g>
		<g id="8_C" class="seat economy">
			<path  d="M430,1089.6h-24.8c-6.3,0-11.5-5.4-11.5-11.9l0-27.5c0-4.4,3.4-7.9,7.6-7.9h32.5c4.2,0,7.6,3.6,7.6,7.9
				l0,27.5C441.5,1084.3,436.3,1089.6,430,1089.6z"/>
			<path  d="M424.9,1082.7h-14.7c-6.3,0-11.5-5.4-11.5-11.9l0-21.6c0-4.4,3.4-7.9,7.6-7.9h22.3c4.2,0,7.6,3.6,7.6,7.9
				l0,21.6C436.3,1077.4,431.2,1082.7,424.9,1082.7z"/>
		</g>
		<g id="8_D" class="seat economy">
			<path  d="M525.7,1089.6h-24.8c-6.3,0-11.5-5.4-11.5-11.9l0-27.5c0-4.4,3.4-7.9,7.6-7.9h32.5c4.2,0,7.6,3.6,7.6,7.9
				l0,27.5C537.1,1084.3,532,1089.6,525.7,1089.6z"/>
			<path  d="M520.5,1082.7h-14.7c-6.3,0-11.5-5.4-11.5-11.9l0-21.6c0-4.4,3.4-7.9,7.6-7.9h22.3c4.2,0,7.6,3.6,7.6,7.9
				l0,21.6C532,1077.4,526.8,1082.7,520.5,1082.7z"/>
		</g>
		<g id="8_E" class="seat economy">
			<path  d="M583.4,1089.6l-24.8,0c-6.3,0-11.5-5.4-11.5-11.9l0-27.5c0-4.4,3.4-7.9,7.6-7.9l32.5,0
				c4.2,0,7.6,3.6,7.6,7.9l0,27.5C594.8,1084.3,589.7,1089.6,583.4,1089.6z"/>
			<path  d="M578.2,1082.7l-14.7,0c-6.3,0-11.5-5.4-11.5-11.9l0-21.6c0-4.4,3.4-7.9,7.6-7.9l22.4,0
				c4.2,0,7.6,3.6,7.6,7.9v21.6C589.7,1077.4,584.5,1082.7,578.2,1082.7z"/>
		</g>
		<g id="8_F" class="seat economy">
			<path  d="M641.1,1089.6h-24.8c-6.3,0-11.5-5.4-11.5-11.9l0-27.5c0-4.4,3.4-7.9,7.6-7.9h32.5c4.2,0,7.6,3.6,7.6,7.9
				l0,27.5C652.6,1084.3,647.4,1089.6,641.1,1089.6z"/>
			<path  d="M636,1082.7h-14.7c-6.3,0-11.5-5.4-11.5-11.9v-21.6c0-4.4,3.4-7.9,7.6-7.9h22.3c4.2,0,7.6,3.6,7.6,7.9v21.6
				C647.4,1077.4,642.3,1082.7,636,1082.7z"/>
		</g>
		<g id="9_A" class="seat economy">
			<path  d="M314.6,1149.9h-24.8c-6.3,0-11.5-5.4-11.5-11.9l0-27.5c0-4.4,3.4-7.9,7.6-7.9h32.5c4.2,0,7.6,3.6,7.6,7.9
				l0,27.5C326,1144.5,320.9,1149.9,314.6,1149.9z"/>
			<path  d="M309.4,1143h-14.7c-6.3,0-11.5-5.4-11.5-11.9l0-21.6c0-4.4,3.4-7.9,7.6-7.9h22.3c4.2,0,7.6,3.6,7.6,7.9
				l0,21.6C320.9,1137.6,315.7,1143,309.4,1143z"/>
		</g>
		<g id="9_B" class="seat economy">
			<path  d="M372.3,1149.9h-24.8c-6.3,0-11.5-5.4-11.5-11.9l0-27.5c0-4.4,3.4-7.9,7.6-7.9h32.5c4.2,0,7.6,3.6,7.6,7.9
				l0,27.5C383.7,1144.5,378.6,1149.9,372.3,1149.9z"/>
			<path  d="M367.1,1143h-14.7c-6.3,0-11.5-5.4-11.5-11.9l0-21.6c0-4.4,3.4-7.9,7.6-7.9h22.4c4.2,0,7.6,3.6,7.6,7.9
				l0,21.6C378.6,1137.6,373.4,1143,367.1,1143z"/>
		</g>
		<g id="9_C" class="seat economy">
			<path  d="M430,1149.9l-24.8,0c-6.3,0-11.5-5.4-11.5-11.9l0-27.5c0-4.4,3.4-7.9,7.6-7.9l32.5,0c4.2,0,7.6,3.6,7.6,7.9
				l0,27.5C441.5,1144.5,436.3,1149.9,430,1149.9z"/>
			<path  d="M424.9,1143l-14.7,0c-6.3,0-11.5-5.4-11.5-11.9l0-21.6c0-4.4,3.4-7.9,7.6-7.9l22.3,0c4.2,0,7.6,3.6,7.6,7.9
				l0,21.6C436.3,1137.6,431.2,1143,424.9,1143z"/>
		</g>
		<g id="9_D" class="seat economy">
			<path  d="M525.7,1149.9h-24.8c-6.3,0-11.5-5.4-11.5-11.9l0-27.5c0-4.4,3.4-7.9,7.6-7.9h32.5c4.2,0,7.6,3.6,7.6,7.9
				l0,27.5C537.1,1144.5,532,1149.9,525.7,1149.9z"/>
			<path  d="M520.5,1143h-14.7c-6.3,0-11.5-5.4-11.5-11.9l0-21.6c0-4.4,3.4-7.9,7.6-7.9h22.3c4.2,0,7.6,3.6,7.6,7.9v21.6
				C532,1137.6,526.8,1143,520.5,1143z"/>
		</g>
		<g id="9_E" class="seat economy">
			<path  d="M583.4,1149.9h-24.8c-6.3,0-11.5-5.4-11.5-11.9l0-27.5c0-4.4,3.4-7.9,7.6-7.9h32.5c4.2,0,7.6,3.6,7.6,7.9
				l0,27.5C594.8,1144.5,589.7,1149.9,583.4,1149.9z"/>
			<path  d="M578.2,1143h-14.7c-6.3,0-11.5-5.4-11.5-11.9v-21.6c0-4.4,3.4-7.9,7.6-7.9H582c4.2,0,7.6,3.6,7.6,7.9l0,21.6
				C589.7,1137.6,584.5,1143,578.2,1143z"/>
		</g>
		<g id="9_F" class="seat economy">
			<path  d="M641.1,1149.9l-24.8,0c-6.3,0-11.5-5.4-11.5-11.9l0-27.5c0-4.4,3.4-7.9,7.6-7.9l32.5,0
				c4.2,0,7.6,3.6,7.6,7.9l0,27.5C652.6,1144.5,647.4,1149.9,641.1,1149.9z"/>
			<path  d="M636,1143l-14.7,0c-6.3,0-11.5-5.4-11.5-11.9v-21.6c0-4.4,3.4-7.9,7.6-7.9l22.3,0c4.2,0,7.6,3.6,7.6,7.9
				v21.6C647.4,1137.6,642.3,1143,636,1143z"/>
		</g>
		<g id="10A" class="seat economy">
			<path  d="M314.6,1210.3l-24.8,0c-6.3,0-11.5-5.4-11.5-11.9l0-27.5c0-4.4,3.4-7.9,7.6-7.9l32.5,0
				c4.2,0,7.6,3.6,7.6,7.9l0,27.5C326,1204.9,320.9,1210.3,314.6,1210.3z"/>
			<path  d="M309.4,1203.3h-14.7c-6.3,0-11.5-5.4-11.5-11.9l0-21.6c0-4.4,3.4-7.9,7.6-7.9l22.4,0c4.2,0,7.6,3.6,7.6,7.9
				l0,21.6C320.9,1198,315.7,1203.3,309.4,1203.3z"/>
		</g>
		<g id="10B" class="seat economy">
			<path  d="M372.3,1210.3h-24.8c-6.3,0-11.5-5.4-11.5-11.9l0-27.5c0-4.4,3.4-7.9,7.6-7.9h32.5c4.2,0,7.6,3.6,7.6,7.9
				l0,27.5C383.8,1204.9,378.6,1210.3,372.3,1210.3z"/>
			<path  d="M367.2,1203.3h-14.7c-6.3,0-11.5-5.4-11.5-11.9l0-21.6c0-4.4,3.4-7.9,7.6-7.9h22.3c4.2,0,7.6,3.6,7.6,7.9
				l0,21.6C378.6,1198,373.5,1203.3,367.2,1203.3z"/>
		</g>
		<g id="10C" class="seat economy">
			<path  d="M430,1210.3h-24.8c-6.3,0-11.5-5.4-11.5-11.9l0-27.5c0-4.4,3.4-7.9,7.6-7.9h32.5c4.2,0,7.6,3.6,7.6,7.9
				l0,27.5C441.5,1204.9,436.3,1210.3,430,1210.3z"/>
			<path  d="M424.9,1203.3h-14.7c-6.3,0-11.5-5.4-11.5-11.9l0-21.6c0-4.4,3.4-7.9,7.6-7.9h22.3c4.2,0,7.6,3.6,7.6,7.9
				l0,21.6C436.3,1198,431.2,1203.3,424.9,1203.3z"/>
		</g>
		<g id="10D" class="seat economy">
			<path  d="M525.7,1210.3l-24.8,0c-6.3,0-11.5-5.4-11.5-11.9l0-27.5c0-4.4,3.4-7.9,7.6-7.9l32.5,0
				c4.2,0,7.6,3.6,7.6,7.9l0,27.5C537.2,1204.9,532,1210.3,525.7,1210.3z"/>
			<path  d="M520.6,1203.3h-14.7c-6.3,0-11.5-5.4-11.5-11.9l0-21.6c0-4.4,3.4-7.9,7.6-7.9l22.3,0c4.2,0,7.6,3.6,7.6,7.9
				v21.6C532,1198,526.9,1203.3,520.6,1203.3z"/>
		</g>
		<g id="10E" class="seat economy">
			<path  d="M583.4,1210.3h-24.8c-6.3,0-11.5-5.4-11.5-11.9l0-27.5c0-4.4,3.4-7.9,7.6-7.9h32.5c4.2,0,7.6,3.6,7.6,7.9
				l0,27.5C594.9,1204.9,589.7,1210.3,583.4,1210.3z"/>
			<path  d="M578.3,1203.3h-14.7c-6.3,0-11.5-5.4-11.5-11.9v-21.6c0-4.4,3.4-7.9,7.6-7.9H582c4.2,0,7.6,3.6,7.6,7.9v21.6
				C589.7,1198,584.6,1203.3,578.3,1203.3z"/>
		</g>
		<g id="10F" class="seat economy">
			<path  d="M641.1,1210.3h-24.8c-6.3,0-11.5-5.4-11.5-11.9l0-27.5c0-4.4,3.4-7.9,7.6-7.9h32.5c4.2,0,7.6,3.6,7.6,7.9
				l0,27.5C652.6,1204.9,647.4,1210.3,641.1,1210.3z"/>
			<path  d="M636,1203.3h-14.7c-6.3,0-11.5-5.4-11.5-11.9l0-21.6c0-4.4,3.4-7.9,7.6-7.9h22.3c4.2,0,7.6,3.6,7.6,7.9
				l0,21.6C647.4,1198,642.3,1203.3,636,1203.3z"/>
		</g>
		<g id="11A" class="seat economy">
			<path  d="M314.6,1270.6h-24.8c-6.3,0-11.5-5.4-11.5-11.9l0-27.5c0-4.4,3.4-7.9,7.6-7.9h32.5c4.2,0,7.6,3.6,7.6,7.9
				l0,27.5C326,1265.3,320.9,1270.6,314.6,1270.6z"/>
			<path  d="M309.4,1263.7h-14.7c-6.3,0-11.5-5.4-11.5-11.9l0-21.6c0-4.4,3.4-7.9,7.6-7.9h22.3c4.2,0,7.6,3.6,7.6,7.9
				l0,21.6C320.9,1258.3,315.7,1263.7,309.4,1263.7z"/>
		</g>
		<g id="11B" class="seat economy">
			<path  d="M372.3,1270.6h-24.8c-6.3,0-11.5-5.4-11.5-11.9l0-27.5c0-4.4,3.4-7.9,7.6-7.9h32.5c4.2,0,7.6,3.6,7.6,7.9
				l0,27.5C383.7,1265.3,378.6,1270.6,372.3,1270.6z"/>
			<path  d="M367.1,1263.7h-14.7c-6.3,0-11.5-5.4-11.5-11.9l0-21.6c0-4.4,3.4-7.9,7.6-7.9h22.4c4.2,0,7.6,3.6,7.6,7.9
				l0,21.6C378.6,1258.3,373.4,1263.7,367.1,1263.7z"/>
		</g>
		<g id="11C" class="seat economy">
			<path  d="M430,1270.6l-24.8,0c-6.3,0-11.5-5.4-11.5-11.9l0-27.5c0-4.4,3.4-7.9,7.6-7.9l32.5,0c4.2,0,7.6,3.6,7.6,7.9
				l0,27.5C441.5,1265.3,436.3,1270.6,430,1270.6z"/>
			<path  d="M424.9,1263.7h-14.7c-6.3,0-11.5-5.4-11.5-11.9l0-21.6c0-4.4,3.4-7.9,7.6-7.9h22.3c4.2,0,7.6,3.6,7.6,7.9
				l0,21.6C436.3,1258.3,431.2,1263.7,424.9,1263.7z"/>
		</g>
		<g id="11D" class="seat economy">
			<path  d="M525.7,1270.6h-24.8c-6.3,0-11.5-5.4-11.5-11.9l0-27.5c0-4.4,3.4-7.9,7.6-7.9h32.5c4.2,0,7.6,3.6,7.6,7.9
				v27.5C537.2,1265.3,532,1270.6,525.7,1270.6z"/>
			<path  d="M520.6,1263.7h-14.7c-6.3,0-11.5-5.4-11.5-11.9l0-21.6c0-4.4,3.4-7.9,7.6-7.9h22.3c4.2,0,7.6,3.6,7.6,7.9
				l0,21.6C532,1258.3,526.9,1263.7,520.6,1263.7z"/>
		</g>
		<g id="11E" class="seat economy">
			<path  d="M583.4,1270.6h-24.8c-6.3,0-11.5-5.4-11.5-11.9l0-27.5c0-4.4,3.4-7.9,7.6-7.9h32.5c4.2,0,7.6,3.6,7.6,7.9
				l0,27.5C594.9,1265.3,589.7,1270.6,583.4,1270.6z"/>
			<path  d="M578.3,1263.7h-14.7c-6.3,0-11.5-5.4-11.5-11.9v-21.6c0-4.4,3.4-7.9,7.6-7.9H582c4.2,0,7.6,3.6,7.6,7.9v21.6
				C589.7,1258.3,584.6,1263.7,578.3,1263.7z"/>
		</g>
		<g id="11F" class="seat economy">
			<path  d="M641.1,1270.6l-24.8,0c-6.3,0-11.5-5.4-11.5-11.9l0-27.5c0-4.4,3.4-7.9,7.6-7.9l32.5,0
				c4.2,0,7.6,3.6,7.6,7.9l0,27.5C652.6,1265.3,647.4,1270.6,641.1,1270.6z"/>
			<path  d="M636,1263.7h-14.7c-6.3,0-11.5-5.4-11.5-11.9l0-21.6c0-4.4,3.4-7.9,7.6-7.9h22.3c4.2,0,7.6,3.6,7.6,7.9
				l0,21.6C647.4,1258.3,642.3,1263.7,636,1263.7z"/>
		</g>
		<g id="12A" class="seat economy">
			<path  d="M313,1330.6h-25c-6.3,0-11.6-5.4-11.6-11.8l0-27.3c0-4.4,3.4-7.8,7.6-7.8l32.7,0c4.2,0,7.6,3.6,7.6,7.8
				l0,27.3C324.5,1325.2,319.4,1330.6,313,1330.6z"/>
			<path  d="M308,1323.6h-14.9c-6.4,0-11.7-5.3-11.7-11.8l0-21.4c0-4.4,3.4-7.8,7.7-7.8l22.6,0c4.3,0,7.7,3.6,7.7,7.8
				l0,21.4C319.7,1318.4,314.4,1323.6,308,1323.6z"/>
		</g>
		<g id="12B" class="seat economy">
			<path  d="M371,1330.6h-25c-6.3,0-11.6-5.4-11.6-11.8l0-27.3c0-4.4,3.4-7.8,7.6-7.8h32.7c4.2,0,7.6,3.6,7.6,7.8l0,27.3
				C382.5,1325.2,377.4,1330.6,371,1330.6z"/>
			<path  d="M366,1323.6h-14.9c-6.4,0-11.6-5.3-11.6-11.8l0-21.4c0-4.4,3.4-7.8,7.7-7.8h22.6c4.2,0,7.7,3.6,7.7,7.8
				l0,21.4C377.6,1318.4,372.3,1323.6,366,1323.6z"/>
		</g>
		<g id="12C" class="seat economy">
			<path  d="M429,1330.6l-25,0c-6.3,0-11.6-5.4-11.6-11.8l0-27.3c0-4.4,3.4-7.8,7.6-7.8h32.7c4.2,0,7.6,3.6,7.6,7.8
				l0,27.3C440.6,1325.2,435.4,1330.6,429,1330.6z"/>
			<path  d="M424,1323.6l-14.9,0c-6.4,0-11.7-5.3-11.7-11.8l0-21.4c0-4.4,3.4-7.8,7.7-7.8h22.6c4.3,0,7.7,3.6,7.7,7.8
				l0,21.4C435.6,1318.4,430.4,1323.6,424,1323.6z"/>
		</g>
		<g id="12D" class="seat economy">
			<path  d="M525,1330.6h-25c-6.3,0-11.6-5.4-11.6-11.8l0-27.3c0-4.4,3.4-7.8,7.6-7.8l32.7,0c4.2,0,7.6,3.6,7.6,7.8v27.3
				C536.6,1325.2,531.4,1330.6,525,1330.6z"/>
			<path  d="M520,1323.6h-14.9c-6.4,0-11.7-5.3-11.7-11.8l0-21.4c0-4.4,3.4-7.8,7.7-7.8l22.6,0c4.3,0,7.7,3.6,7.7,7.8
				v21.4C531.6,1318.4,526.4,1323.6,520,1323.6z"/>
		</g>
		<g id="12E" class="seat economy">
			<path  d="M583,1330.6h-25c-6.3,0-11.6-5.4-11.6-11.8l0-27.3c0-4.4,3.4-7.8,7.6-7.8h32.7c4.2,0,7.6,3.6,7.6,7.8v27.3
				C594.6,1325.2,589.4,1330.6,583,1330.6z"/>
			<path  d="M578,1323.6h-14.9c-6.4,0-11.7-5.3-11.7-11.8l0-21.4c0-4.4,3.4-7.8,7.7-7.8h22.6c4.3,0,7.7,3.6,7.7,7.8v21.4
				C589.6,1318.4,584.4,1323.6,578,1323.6z"/>
		</g>
		<g id="12F" class="seat economy">
			<path  d="M641.2,1330.6l-25,0c-6.3,0-11.6-5.4-11.6-11.8v-27.3c0-4.4,3.4-7.8,7.6-7.8H645c4.2,0,7.6,3.6,7.6,7.8
				l0,27.3C652.7,1325.2,647.5,1330.6,641.2,1330.6z"/>
			<path  d="M636.2,1323.6l-14.9,0c-6.4,0-11.7-5.3-11.7-11.8v-21.4c0-4.4,3.4-7.8,7.7-7.8h22.6c4.3,0,7.7,3.6,7.7,7.8
				l0,21.4C647.7,1318.4,642.6,1323.6,636.2,1323.6z"/>
		</g>
		<g id="13A" class="seat economy">
			<path  d="M314,1390.6h-25c-6.3,0-11.6-5.4-11.6-11.8l0-27.3c0-4.4,3.4-7.8,7.6-7.8l32.7,0c4.2,0,7.6,3.6,7.6,7.8
				l0,27.3C325.5,1385.2,320.4,1390.6,314,1390.6z"/>
			<path  d="M309,1383.6h-14.9c-6.4,0-11.7-5.3-11.7-11.8l0-21.4c0-4.4,3.4-7.8,7.7-7.8l22.6,0c4.3,0,7.7,3.6,7.7,7.8
				l0,21.4C320.7,1378.4,315.4,1383.6,309,1383.6z"/>
		</g>
		<g id="13B" class="seat economy">
			<path  d="M372,1390.6h-25c-6.3,0-11.6-5.4-11.6-11.8l0-27.3c0-4.4,3.4-7.8,7.6-7.8h32.7c4.2,0,7.6,3.6,7.6,7.8l0,27.3
				C383.5,1385.2,378.4,1390.6,372,1390.6z"/>
			<path  d="M367,1383.6h-14.9c-6.4,0-11.6-5.3-11.6-11.8l0-21.4c0-4.4,3.4-7.8,7.7-7.8h22.6c4.2,0,7.7,3.6,7.7,7.8
				l0,21.4C378.6,1378.4,373.3,1383.6,367,1383.6z"/>
		</g>
		<g id="13C" class="seat economy">
			<path  d="M430,1390.6l-25,0c-6.3,0-11.6-5.4-11.6-11.8l0-27.3c0-4.4,3.4-7.8,7.6-7.8h32.7c4.2,0,7.6,3.6,7.6,7.8
				l0,27.3C441.6,1385.2,436.4,1390.6,430,1390.6z"/>
			<path  d="M425,1383.6l-14.9,0c-6.4,0-11.7-5.3-11.7-11.8l0-21.4c0-4.4,3.4-7.8,7.7-7.8h22.6c4.3,0,7.7,3.6,7.7,7.8
				l0,21.4C436.6,1378.4,431.4,1383.6,425,1383.6z"/>
		</g>
		<g id="13D" class="seat economy">
			<path  d="M526,1390.6h-25c-6.3,0-11.6-5.4-11.6-11.8l0-27.3c0-4.4,3.4-7.8,7.6-7.8l32.7,0c4.2,0,7.6,3.6,7.6,7.8v27.3
				C537.6,1385.2,532.4,1390.6,526,1390.6z"/>
			<path  d="M521,1383.6h-14.9c-6.4,0-11.7-5.3-11.7-11.8l0-21.4c0-4.4,3.4-7.8,7.7-7.8l22.6,0c4.3,0,7.7,3.6,7.7,7.8
				v21.4C532.6,1378.4,527.4,1383.6,521,1383.6z"/>
		</g>
		<g id="13E" class="seat economy">
			<path  d="M584,1390.6h-25c-6.3,0-11.6-5.4-11.6-11.8l0-27.3c0-4.4,3.4-7.8,7.6-7.8h32.7c4.2,0,7.6,3.6,7.6,7.8v27.3
				C595.6,1385.2,590.4,1390.6,584,1390.6z"/>
			<path  d="M579,1383.6h-14.9c-6.4,0-11.7-5.3-11.7-11.8l0-21.4c0-4.4,3.4-7.8,7.7-7.8h22.6c4.3,0,7.7,3.6,7.7,7.8v21.4
				C590.6,1378.4,585.4,1383.6,579,1383.6z"/>
		</g>
		<g id="13F" class="seat economy">
			<path  d="M642.2,1390.6l-25,0c-6.3,0-11.6-5.4-11.6-11.8v-27.3c0-4.4,3.4-7.8,7.6-7.8H646c4.2,0,7.6,3.6,7.6,7.8
				l0,27.3C653.7,1385.2,648.5,1390.6,642.2,1390.6z"/>
			<path  d="M637.2,1383.6l-14.9,0c-6.4,0-11.7-5.3-11.7-11.8v-21.4c0-4.4,3.4-7.8,7.7-7.8h22.6c4.3,0,7.7,3.6,7.7,7.8
				l0,21.4C648.7,1378.4,643.6,1383.6,637.2,1383.6z"/>
		</g>
		<g id="14A" class="seat economy">
			<path  d="M313,1450.6h-25c-6.3,0-11.6-5.4-11.6-11.8l0-27.3c0-4.4,3.4-7.8,7.6-7.8l32.7,0c4.2,0,7.6,3.6,7.6,7.8
				l0,27.3C324.5,1445.2,319.4,1450.6,313,1450.6z"/>
			<path  d="M308,1443.6h-14.9c-6.4,0-11.7-5.3-11.7-11.8l0-21.4c0-4.4,3.4-7.8,7.7-7.8l22.6,0c4.3,0,7.7,3.6,7.7,7.8
				l0,21.4C319.7,1438.4,314.4,1443.6,308,1443.6z"/>
		</g>
		<g id="14B" class="seat economy">
			<path  d="M371,1450.6h-25c-6.3,0-11.6-5.4-11.6-11.8l0-27.3c0-4.4,3.4-7.8,7.6-7.8h32.7c4.2,0,7.6,3.6,7.6,7.8l0,27.3
				C382.5,1445.2,377.4,1450.6,371,1450.6z"/>
			<path  d="M366,1443.6h-14.9c-6.4,0-11.6-5.3-11.6-11.8l0-21.4c0-4.4,3.4-7.8,7.7-7.8h22.6c4.2,0,7.7,3.6,7.7,7.8
				l0,21.4C377.6,1438.4,372.3,1443.6,366,1443.6z"/>
		</g>
		<g id="14C" class="seat economy">
			<path  d="M429,1450.6l-25,0c-6.3,0-11.6-5.4-11.6-11.8l0-27.3c0-4.4,3.4-7.8,7.6-7.8h32.7c4.2,0,7.6,3.6,7.6,7.8
				l0,27.3C440.6,1445.2,435.4,1450.6,429,1450.6z"/>
			<path  d="M424,1443.6l-14.9,0c-6.4,0-11.7-5.3-11.7-11.8l0-21.4c0-4.4,3.4-7.8,7.7-7.8h22.6c4.3,0,7.7,3.6,7.7,7.8
				l0,21.4C435.6,1438.4,430.4,1443.6,424,1443.6z"/>
		</g>
		<g id="14D" class="seat economy">
			<path  d="M525,1450.6h-25c-6.3,0-11.6-5.4-11.6-11.8l0-27.3c0-4.4,3.4-7.8,7.6-7.8l32.7,0c4.2,0,7.6,3.6,7.6,7.8v27.3
				C536.6,1445.2,531.4,1450.6,525,1450.6z"/>
			<path  d="M520,1443.6h-14.9c-6.4,0-11.7-5.3-11.7-11.8l0-21.4c0-4.4,3.4-7.8,7.7-7.8l22.6,0c4.3,0,7.7,3.6,7.7,7.8
				v21.4C531.6,1438.4,526.4,1443.6,520,1443.6z"/>
		</g>
		<g id="14E" class="seat economy">
			<path  d="M583,1450.6h-25c-6.3,0-11.6-5.4-11.6-11.8l0-27.3c0-4.4,3.4-7.8,7.6-7.8h32.7c4.2,0,7.6,3.6,7.6,7.8v27.3
				C594.6,1445.2,589.4,1450.6,583,1450.6z"/>
			<path  d="M578,1443.6h-14.9c-6.4,0-11.7-5.3-11.7-11.8l0-21.4c0-4.4,3.4-7.8,7.7-7.8h22.6c4.3,0,7.7,3.6,7.7,7.8v21.4
				C589.6,1438.4,584.4,1443.6,578,1443.6z"/>
		</g>
		<g id="14F" class="seat economy">
			<path  d="M641.2,1450.6l-25,0c-6.3,0-11.6-5.4-11.6-11.8v-27.3c0-4.4,3.4-7.8,7.6-7.8H645c4.2,0,7.6,3.6,7.6,7.8
				l0,27.3C652.7,1445.2,647.5,1450.6,641.2,1450.6z"/>
			<path  d="M636.2,1443.6l-14.9,0c-6.4,0-11.7-5.3-11.7-11.8v-21.4c0-4.4,3.4-7.8,7.7-7.8h22.6c4.3,0,7.7,3.6,7.7,7.8
				l0,21.4C647.7,1438.4,642.6,1443.6,636.2,1443.6z"/>
		</g>
		<g id="columnLabel">
		<text transform="matrix(1 0 0 1 293.5 611.5)" >A</text>
		<text transform="matrix(1 0 0 1 352.5 611.5)" >B</text>
		<text transform="matrix(1 0 0 1 409.5 611.5)" >C</text>
		<text transform="matrix(1 0 0 1 505.5 611.5)" >D</text>
		<text transform="matrix(1 0 0 1 564.5 611.5)" >E</text>
		<text transform="matrix(1 0 0 1 622.5 611.5)" >F</text>
	</g>
	<g>
		<rect class="tooltip_outline" id="tooltip_outline" x="0" y="0" rx="4" ry="4" width="250" height="100" style="display:none;"/>
		<text id="tooltip" class="tooltip" x="0" y="50"  style="display:none;" width="250" height="100">This is a tooltip. It tells me things about this seat(or it will eventually anyway).</text>
	</g>
</g>
</svg>
