<?xml version="1.0" encoding="utf-8"?>
<!-- Generator: Adobe Illustrator 21.1.0, SVG Export Plug-In . SVG Version: 6.00 Build 0)  -->
<svg version="1.1" id="seat-map" xmlns="http://www.w3.org/2000/svg" xmlns:xlink="http://www.w3.org/1999/xlink" x="0px" y="0px"
	 viewBox="0 300 700 3520" style="enable-background:new 0 0 1301.6 3868;" xml:space="preserve">
<style type="text/css">
</style>
<defs>
	<link  href="../../css/seat-style.css" rel="stylesheet" type="text/css" xmlns="http://www.w3.org/1999/xhtml"></link>
</defs>
<g id="planeShape">
	<path class="planeOutline" d="M595,3445.1c0,61-104.7,351-234.2,351s-234.6-290-234.6-351V2352.6v1v-487.5l1.2-1070.6V492.9
		c0-87.8,105.5-469,235-469s233.8,381.2,233.8,469v302.5L595,3445.1z"/>
	<polygon class="planeOutline" points="619.1,2312 595.8,2312 595.8,1295.7 619.5,1340.7 	"/>
	<polygon class="planeOutline" points="103.5,2312 126.8,2312 126.8,1295.7 103,1340.7 	"/>
	<g id="frontExitArrow2">
		<polyline class="exitArrow" points="123.5,1167.9 108.1,1151.9 123.5,1135.9 		"/>
		<polyline class="exitArrow" points="133,1167.9 117.7,1151.9 133,1135.9 		"/>
		<polyline class="exitArrow" points="142.5,1167.9 127.2,1151.9 142.5,1135.9 		"/>
	</g>
	<g id="frontExitArrow1">
		<polyline class="exitArrow" points="598.9,1135.8 614.1,1151.8 598.9,1167.8 		"/>
		<polyline class="exitArrow" points="589.4,1135.8 604.6,1151.8 589.4,1167.8 		"/>
		<polyline class="exitArrow" points="579.9,1135.8 595.1,1151.8 579.9,1167.8 		"/>
	</g>
	<g id="midExitArrow2">
		<polyline class="exitArrow" points="124.3,2728.7 109,2712.7 124.3,2696.7 		"/>
		<polyline class="exitArrow" points="133.8,2728.7 118.5,2712.7 133.8,2696.7 		"/>
		<polyline class="exitArrow" points="143.4,2728.7 128,2712.7 143.4,2696.7 		"/>
	</g>
	<g id="midExitArrow1">
		<polyline class="exitArrow" points="598.1,2696.7 613.4,2712.7 598.1,2728.7 		"/>
		<polyline class="exitArrow" points="588.6,2696.7 603.8,2712.7 588.6,2728.7 		"/>
		<polyline class="exitArrow" points="579.1,2696.7 594.3,2712.7 579.1,2728.7 		"/>
	</g>
	<g id="backExitArrow1">
		<polyline class="exitArrow" points="599.6,3346.6 614.8,3362.6 599.6,3378.6 		"/>
		<polyline class="exitArrow" points="590.1,3346.6 605.3,3362.6 590.1,3378.6 		"/>
		<polyline class="exitArrow" points="580.6,3346.6 595.8,3362.6 580.6,3378.6 		"/>
	</g>
	<g id="backExitArrow2">
		<polyline class="exitArrow" points="121.3,3378.6 106,3362.6 121.3,3346.6 		"/>
		<polyline class="exitArrow" points="130.8,3378.6 115.5,3362.6 130.8,3346.6 		"/>
		<polyline class="exitArrow" points="140.3,3378.6 125,3362.6 140.3,3346.6 		"/>
	</g>
</g>
<g id="rearAmenities">
	<g id="rearWC3">
		<path class="amenityBox" d="M289.1,3534.8H152.3c-1.2,0-2.4-0.9-2.8-2.2l-17-58c-0.5-1.9,0.9-3.8,2.8-3.8h153.8c1.6,0,2.9,1.3,2.9,3v58
			C291.9,3533.5,290.7,3534.8,289.1,3534.8z"/>
		<text transform="matrix(0.9519 0 0 1 208.1553 3506.8047)" class="amenityLabel">WC</text>
	</g>
	<g id="rearWC1">
		<path class="amenityBox" d="M428.9,3531.8v-58c0-1.7,1.3-3,2.9-3h153.8c1.9,0,3.3,1.9,2.8,3.8l-17,58c-0.4,1.3-1.6,2.2-2.8,2.2H431.8
			C430.2,3534.8,429,3533.5,428.9,3531.8z"/>
		<text transform="matrix(0.9519 0 0 1 490.6499 3506.8047)" class="amenityLabel">WC</text>
	</g>
	<g id="rearWC2">
		<path class="amenityBox" d="M481.6,3428.4H240.8c-7.2,0-13.1-2.9-13.1-6.5v-173.2c0-3.6,5.9-6.5,13.1-6.5h240.8
			c7.2,0,13.1,2.9,13.1,6.5v173.2C494.7,3425.5,488.8,3428.4,481.6,3428.4z"/>
		<text transform="matrix(0.9519 0 0 1 312.0874 3340.5996)" class="amenityLabel">Bar/Social Area</text>
	</g>
	<g id="rearStairs">
		<g>
			<path class="stairs-outline" d="M306,3677.5v-127.2c0-1.8,1.2-3.3,2.7-3.3h106.4c1.5,0,2.7,1.5,2.7,3.3v127.2"/>
			<line class="stairs" x1="417.8" y1="3566.4" x2="306" y2="3566.4"/>
			<line class="stairs" x1="417.8" y1="3588.1" x2="306" y2="3588.1"/>
			<line class="stairs" x1="417.3" y1="3609.7" x2="305.5" y2="3609.7"/>
			<line class="stairs" x1="417.3" y1="3631.4" x2="305.5" y2="3631.4"/>
			<line class="stairs" x1="417.3" y1="3653" x2="305.5" y2="3653"/>
			<line class="stairs" x1="418.2" y1="3673.6" x2="306.4" y2="3673.6"/>
		</g>
		<g>
			<path class="stairs-arrow" d="M361.4,3575.8v60V3575.8z"/>
			<polygon class="stairs-arrow" points="372.7,3590.3 361.5,3573.4 350.3,3590.3 			"/>
		</g>
		<text id="Down" transform="matrix(0.8081 0 0 1 345.1973 3563.7285)" class="stairs-text">DOWN</text>
	</g>
</g>
<g id="midAmenities">
	<g id="midGalley4">
		<path id="CpathE4" class="amenityBox" d="M224.9,1260.2h-92c-2,0-3.6-1.6-3.6-3.6v-69c0-2,1.6-3.6,3.6-3.6h92c2,0,3.6,1.6,3.6,3.6v69
			C228.5,1258.6,226.9,1260.2,224.9,1260.2z"/>
		<text transform="matrix(0.9519 0 0 1 158.499 1227.9248)" class="amenityLabel">Galley</text>
	</g>
	<g id="midWC">
		<path id="CpathE3" class="amenityBox" d="M590,1260.2h-92c-2,0-3.6-1.6-3.6-3.6v-69c0-2,1.6-3.6,3.6-3.6h92c2,0,3.6,1.6,3.6,3.6v69
			C593.5,1258.6,591.9,1260.2,590,1260.2z"/>
		<text id="WC" transform="matrix(0.9519 0 0 1 532.5547 1226.9248)" class="amenityLabel">WC</text>
	</g>
	<g id="midGalley2">
		<path id="CpathE5" class="amenityBox" d="M415.3,1187.7H303.9c-2.4,0-4.3-1.6-4.3-3.6v-66.6c0-2,1.9-3.6,4.3-3.6h111.5
			c2.4,0,4.3,1.6,4.3,3.6v66.6C419.5,1186.1,417.6,1187.7,415.3,1187.7z"/>
		<text transform="matrix(0.9519 0 0 1 340.6553 1154.6606)" class="amenityLabel">Galley</text>
	</g>
	<g id="midGalley1">
		<path id="CpathE6" class="amenityBox" d="M415.3,1367.3H303.9c-2.4,0-4.3-1.6-4.3-3.6v-66.6c0-2,1.9-3.6,4.3-3.6h111.5
			c2.4,0,4.3,1.6,4.3,3.6v66.6C419.5,1365.7,417.6,1367.3,415.3,1367.3z"/>
		<text transform="matrix(0.9519 0 0 1 340.6553 1336.1304)" class="amenityLabel">Galley</text>
	</g>
	<g id="midGalley6">
		<path id="CpathE11" class="amenityBox" d="M445,2739.7H277.8c-3.5,0-6.4-1.6-6.4-3.6v-66.6c0-2,2.8-3.6,6.4-3.6H445
			c3.5,0,6.4,1.6,6.4,3.6v66.6C451.4,2738.1,448.6,2739.7,445,2739.7z"/>
		<text transform="matrix(0.9519 0 0 1 340.5366 2706.7227)" class="amenityLabel">Galley</text>
	</g>
</g>
<g id="frontAmenities">
	<g id="frontWC1">
		<path id="CpathE2" class="amenityBox" d="M421.7,627.2H301.1c-2.6,0-4.7-1.7-4.7-3.9v-75c0-2.2,2.1-3.9,4.7-3.9h120.6
			c2.6,0,4.7,1.7,4.7,3.9v75C426.3,625.5,424.2,627.2,421.7,627.2z"/>
		<text transform="matrix(0.9519 0 0 1 341.3452 587.876)" class="amenityLabel">Galley</text>
	</g>
	<g id="frontStairs">
		<g>
			<path class="stairs-outline" d="M305.5,493.2V366c0-1.8,1.2-3.3,2.7-3.3h106.4c1.5,0,2.7,1.5,2.7,3.3v127.2"/>
			<line class="stairs" x1="417.3" y1="382.1" x2="305.5" y2="382.1"/>
			<line class="stairs" x1="417.3" y1="403.7" x2="305.5" y2="403.7"/>
			<line class="stairs" x1="417.8" y1="425.4" x2="306" y2="425.4"/>
			<line class="stairs" x1="417.8" y1="447.1" x2="306" y2="447.1"/>
			<line class="stairs" x1="417.8" y1="468.7" x2="306" y2="468.7"/>
			<line class="stairs" x1="416.9" y1="489.3" x2="305.1" y2="489.3"/>
		</g>
		<g>
			<path class="stairs-arrow" d="M361.9,452.5v-60V452.5z"/>
			<polygon class="stairs-arrow" points="373,407 361.8,390 350.6,407 			"/>
		</g>
		<text transform="matrix(0.8081 0 0 1 345.6768 382.1836)" class="stairs-text">DOWN</text>
	</g>
	<g id="frontWC3">
		<path class="amenityBox" d="M273.3,362.7H156c-1.1,0-2.1,0.9-2.4,2.3l-12.8,57.9c-0.4,1.9,0.8,3.8,2.4,3.8h130.1c1.4,0,2.5-1.3,2.5-3v-58
			C275.7,364,274.7,362.7,273.3,362.7z"/>
		<text transform="matrix(0.8429 0 0 1 201.1709 397.6558)" class="amenityLabel">WC</text>
	</g>
	<g id="frontWC5">
		<path class="amenityBox" d="M448.6,365.7v58c0,1.7,1.1,3,2.5,3h130.1c1.6,0,2.8-1.9,2.4-3.8L570.7,365c-0.3-1.4-1.3-2.3-2.4-2.3H451
			C449.6,362.7,448.6,364,448.6,365.7z"/>
		<text transform="matrix(0.839 0 0 1 512.2275 398.6558)" class="amenityLabel">WC</text>
	</g>
</g>
<g id="rearSeats">
	<g id="columnLabel1">
		<text transform="matrix(1 0 0 1 139.206 2845.6919)" class="columnLabel">A</text>
		<text transform="matrix(1 0 0 1 193.206 2845.6919)" class="columnLabel">B</text>
		<text transform="matrix(1 0 0 1 288.6102 2788.1753)" class="columnLabel">D</text>
		<text transform="matrix(1 0 0 1 332.6102 2788.1753)" class="columnLabel">E</text>
		<text transform="matrix(1 0 0 1 375.6104 2788.1753)" class="columnLabel">F</text>
		<text transform="matrix(1 0 0 1 418.7333 2788.1753)" class="columnLabel">G</text>
		<text transform="matrix(1 0 0 1 520.3291 2845.6919)" class="columnLabel">J</text>
		<text transform="matrix(1 0 0 1 564.105 2845.6919)" class="columnLabel">K</text>
	</g>
	<g id="22D" class="seat economy">
		<path d="M307.4,2853.5h-20.5c-5.2,0-9.5-4.5-9.5-9.8V2821c0-3.6,2.8-6.5,6.3-6.5h26.9c3.5,0,6.3,3,6.3,6.5v22.7
			C316.9,2849.1,312.6,2853.5,307.4,2853.5z"/>
		<path d="M303.2,2847.7H291c-5.2,0-9.5-4.5-9.5-9.8V2820c0-3.6,2.8-6.5,6.3-6.5h18.4c3.5,0,6.3,3,6.3,6.5v17.9
			C312.6,2843.4,308.4,2847.7,303.2,2847.7z"/>
	</g>
	<g id="22E" class="seat economy">
		<path d="M351.1,2853.5h-20.5c-5.2,0-9.5-4.5-9.5-9.8V2821c0-3.6,2.8-6.5,6.3-6.5h26.9c3.5,0,6.3,3,6.3,6.5v22.7
			C360.6,2849.1,356.3,2853.5,351.1,2853.5z"/>
		<path d="M346.9,2847.7h-12.1c-5.2,0-9.5-4.5-9.5-9.8V2820c0-3.6,2.8-6.5,6.3-6.5H350c3.5,0,6.3,3,6.3,6.5v17.9
			C356.3,2843.4,352.1,2847.7,346.9,2847.7z"/>
	</g>
	<g id="22F" class="seat economy">
		<path d="M394.8,2853.5h-20.5c-5.2,0-9.5-4.5-9.5-9.8V2821c0-3.6,2.8-6.5,6.3-6.5H398c3.5,0,6.3,3,6.3,6.5v22.7
			C404.3,2849.1,400,2853.5,394.8,2853.5z"/>
		<path d="M390.5,2847.7h-12.1c-5.2,0-9.5-4.5-9.5-9.8V2820c0-3.6,2.8-6.5,6.3-6.5h18.4c3.5,0,6.3,3,6.3,6.5v17.9
			C400,2843.4,395.7,2847.7,390.5,2847.7z"/>
	</g>
	<g id="22G" class="seat economy">
		<path d="M438.5,2853.5H418c-5.2,0-9.5-4.5-9.5-9.8V2821c0-3.6,2.8-6.5,6.3-6.5h26.9c3.5,0,6.3,3,6.3,6.5v22.7
			C448,2849.1,443.7,2853.5,438.5,2853.5z"/>
		<path d="M434.3,2847.7h-12.1c-5.2,0-9.5-4.5-9.5-9.8V2820c0-3.6,2.8-6.5,6.3-6.5h18.4c3.5,0,6.3,3,6.3,6.5v17.9
			C443.7,2843.4,439.5,2847.7,434.3,2847.7z"/>
	</g>
	<g id="23A" class="seat economy">
		<path d="M169.7,2904h-20.5c-5.2,0-9.5-4.5-9.5-9.8v-22.7c0-3.6,2.8-6.5,6.3-6.5h26.9c3.5,0,6.3,3,6.3,6.5v22.7
			C179.1,2899.6,174.9,2904,169.7,2904z"/>
		<path d="M165.4,2898.3h-12.1c-5.2,0-9.5-4.5-9.5-9.8v-17.9c0-3.6,2.8-6.5,6.3-6.5h18.4c3.5,0,6.3,3,6.3,6.5v17.9
			C174.9,2893.9,170.6,2898.3,165.4,2898.3z"/>
	</g>
	<g id="23B" class="seat economy">
		<path d="M213.4,2904h-20.5c-5.2,0-9.5-4.5-9.5-9.8v-22.7c0-3.6,2.8-6.5,6.3-6.5h26.9c3.5,0,6.3,3,6.3,6.5v22.7
			C222.8,2899.6,218.6,2904,213.4,2904z"/>
		<path d="M209.1,2898.3H197c-5.2,0-9.5-4.5-9.5-9.8v-17.9c0-3.6,2.8-6.5,6.3-6.5h18.5c3.5,0,6.3,3,6.3,6.5v17.9
			C218.6,2893.9,214.3,2898.3,209.1,2898.3z"/>
	</g>
	<g id="23D" class="seat economy">
		<path d="M307.4,2903.5h-20.5c-5.2,0-9.5-4.5-9.5-9.8V2871c0-3.6,2.8-6.5,6.3-6.5h26.9c3.5,0,6.3,3,6.3,6.5v22.7
			C316.9,2899.1,312.6,2903.5,307.4,2903.5z"/>
		<path d="M303.2,2897.7H291c-5.2,0-9.5-4.5-9.5-9.8V2870c0-3.6,2.8-6.5,6.3-6.5h18.4c3.5,0,6.3,3,6.3,6.5v17.9
			C312.6,2893.4,308.4,2897.7,303.2,2897.7z"/>
	</g>
	<g id="23E" class="seat economy">
		<path d="M351.1,2903.5h-20.5c-5.2,0-9.5-4.5-9.5-9.8V2871c0-3.6,2.8-6.5,6.3-6.5h26.9c3.5,0,6.3,3,6.3,6.5v22.7
			C360.6,2899.1,356.3,2903.5,351.1,2903.5z"/>
		<path d="M346.9,2897.7h-12.1c-5.2,0-9.5-4.5-9.5-9.8V2870c0-3.6,2.8-6.5,6.3-6.5H350c3.5,0,6.3,3,6.3,6.5v17.9
			C356.3,2893.4,352.1,2897.7,346.9,2897.7z"/>
	</g>
	<g id="23F" class="seat economy">
		<path d="M394.8,2903.5h-20.5c-5.2,0-9.5-4.5-9.5-9.8V2871c0-3.6,2.8-6.5,6.3-6.5H398c3.5,0,6.3,3,6.3,6.5v22.7
			C404.3,2899.1,400,2903.5,394.8,2903.5z"/>
		<path d="M390.5,2897.7h-12.1c-5.2,0-9.5-4.5-9.5-9.8V2870c0-3.6,2.8-6.5,6.3-6.5h18.4c3.5,0,6.3,3,6.3,6.5v17.9
			C400,2893.4,395.7,2897.7,390.5,2897.7z"/>
	</g>
	<g id="23G" class="seat economy">
		<path d="M438.5,2903.5H418c-5.2,0-9.5-4.5-9.5-9.8V2871c0-3.6,2.8-6.5,6.3-6.5h26.9c3.5,0,6.3,3,6.3,6.5v22.7
			C448,2899.1,443.7,2903.5,438.5,2903.5z"/>
		<path d="M434.3,2897.7h-12.1c-5.2,0-9.5-4.5-9.5-9.8V2870c0-3.6,2.8-6.5,6.3-6.5h18.4c3.5,0,6.3,3,6.3,6.5v17.9
			C443.7,2893.4,439.5,2897.7,434.3,2897.7z"/>
	</g>
	<g id="23J" class="seat economy">
		<path d="M531.5,2903.9H511c-5.2,0-9.5-4.5-9.5-9.8v-22.7c0-3.6,2.8-6.5,6.3-6.5h26.9c3.5,0,6.3,3,6.3,6.5v22.7
			C540.9,2899.5,536.7,2903.9,531.5,2903.9z"/>
		<path d="M527.2,2898.2H515c-5.2,0-9.5-4.5-9.5-9.8v-17.9c0-3.6,2.8-6.5,6.3-6.5h18.5c3.5,0,6.3,3,6.3,6.5v17.9
			C536.7,2893.8,532.4,2898.2,527.2,2898.2z"/>
	</g>
	<g id="23K" class="seat economy">
		<path d="M575.1,2903.9h-20.5c-5.2,0-9.5-4.5-9.5-9.8v-22.7c0-3.6,2.8-6.5,6.3-6.5h26.9c3.5,0,6.3,3,6.3,6.5v22.7
			C584.6,2899.5,580.3,2903.9,575.1,2903.9z"/>
		<path d="M570.9,2898.2h-12.1c-5.2,0-9.5-4.5-9.5-9.8v-17.9c0-3.6,2.8-6.5,6.3-6.5H574c3.5,0,6.3,3,6.3,6.5v17.9
			C580.3,2893.8,576.1,2898.2,570.9,2898.2z"/>
	</g>
	<g id="24A" class="seat economy">
		<path d="M169.7,2953.9h-20.5c-5.2,0-9.5-4.5-9.5-9.8v-22.7c0-3.6,2.8-6.5,6.3-6.5h26.9c3.5,0,6.3,3,6.3,6.5v22.7
			C179.1,2949.5,174.9,2953.9,169.7,2953.9z"/>
		<path d="M165.4,2948.2h-12.1c-5.2,0-9.5-4.5-9.5-9.8v-17.9c0-3.6,2.8-6.5,6.3-6.5h18.4c3.5,0,6.3,3,6.3,6.5v17.9
			C174.9,2943.8,170.6,2948.2,165.4,2948.2z"/>
	</g>
	<g id="24B" class="seat economy">
		<path d="M213.4,2953.9h-20.5c-5.2,0-9.5-4.5-9.5-9.8v-22.7c0-3.6,2.8-6.5,6.3-6.5h26.9c3.5,0,6.3,3,6.3,6.5v22.7
			C222.8,2949.5,218.6,2953.9,213.4,2953.9z"/>
		<path d="M209.1,2948.2H197c-5.2,0-9.5-4.5-9.5-9.8v-17.9c0-3.6,2.8-6.5,6.3-6.5h18.5c3.5,0,6.3,3,6.3,6.5v17.9
			C218.6,2943.8,214.3,2948.2,209.1,2948.2z"/>
	</g>
	<g id="24D" class="seat economy">
		<path d="M307.4,2953.5h-20.5c-5.2,0-9.5-4.5-9.5-9.8V2921c0-3.6,2.8-6.5,6.3-6.5h26.9c3.5,0,6.3,3,6.3,6.5v22.7
			C316.9,2949.1,312.6,2953.5,307.4,2953.5z"/>
		<path d="M303.2,2947.7H291c-5.2,0-9.5-4.5-9.5-9.8V2920c0-3.6,2.8-6.5,6.3-6.5h18.4c3.5,0,6.3,3,6.3,6.5v17.9
			C312.6,2943.4,308.4,2947.7,303.2,2947.7z"/>
	</g>
	<g id="24E" class="seat economy">
		<path d="M351.1,2953.5h-20.5c-5.2,0-9.5-4.5-9.5-9.8V2921c0-3.6,2.8-6.5,6.3-6.5h26.9c3.5,0,6.3,3,6.3,6.5v22.7
			C360.6,2949.1,356.3,2953.5,351.1,2953.5z"/>
		<path d="M346.9,2947.7h-12.1c-5.2,0-9.5-4.5-9.5-9.8V2920c0-3.6,2.8-6.5,6.3-6.5H350c3.5,0,6.3,3,6.3,6.5v17.9
			C356.3,2943.4,352.1,2947.7,346.9,2947.7z"/>
	</g>
	<g id="24F" class="seat economy">
		<path d="M394.8,2953.5h-20.5c-5.2,0-9.5-4.5-9.5-9.8V2921c0-3.6,2.8-6.5,6.3-6.5H398c3.5,0,6.3,3,6.3,6.5v22.7
			C404.3,2949.1,400,2953.5,394.8,2953.5z"/>
		<path d="M390.5,2947.7h-12.1c-5.2,0-9.5-4.5-9.5-9.8V2920c0-3.6,2.8-6.5,6.3-6.5h18.4c3.5,0,6.3,3,6.3,6.5v17.9
			C400,2943.4,395.7,2947.7,390.5,2947.7z"/>
	</g>
	<g id="24G" class="seat economy">
		<path d="M438.5,2953.5H418c-5.2,0-9.5-4.5-9.5-9.8V2921c0-3.6,2.8-6.5,6.3-6.5h26.9c3.5,0,6.3,3,6.3,6.5v22.7
			C448,2949.1,443.7,2953.5,438.5,2953.5z"/>
		<path d="M434.3,2947.7h-12.1c-5.2,0-9.5-4.5-9.5-9.8V2920c0-3.6,2.8-6.5,6.3-6.5h18.4c3.5,0,6.3,3,6.3,6.5v17.9
			C443.7,2943.4,439.5,2947.7,434.3,2947.7z"/>
	</g>
	<g id="24J" class="seat economy">
		<path d="M531.5,2953.8H511c-5.2,0-9.5-4.5-9.5-9.8v-22.7c0-3.6,2.8-6.5,6.3-6.5h26.9c3.5,0,6.3,3,6.3,6.5v22.7
			C540.9,2949.4,536.7,2953.8,531.5,2953.8z"/>
		<path d="M527.2,2948.1H515c-5.2,0-9.5-4.5-9.5-9.8v-17.9c0-3.6,2.8-6.5,6.3-6.5h18.5c3.5,0,6.3,3,6.3,6.5v17.9
			C536.7,2943.7,532.4,2948.1,527.2,2948.1z"/>
	</g>
	<g id="24K" class="seat economy">
		<path d="M575.1,2953.8h-20.5c-5.2,0-9.5-4.5-9.5-9.8v-22.7c0-3.6,2.8-6.5,6.3-6.5h26.9c3.5,0,6.3,3,6.3,6.5v22.7
			C584.6,2949.4,580.3,2953.8,575.1,2953.8z"/>
		<path d="M570.9,2948.1h-12.1c-5.2,0-9.5-4.5-9.5-9.8v-17.9c0-3.6,2.8-6.5,6.3-6.5H574c3.5,0,6.3,3,6.3,6.5v17.9
			C580.3,2943.7,576.1,2948.1,570.9,2948.1z"/>
	</g>
	<g id="25A" class="seat economy">
		<path d="M169.7,3003.8h-20.5c-5.2,0-9.5-4.5-9.5-9.8v-22.7c0-3.6,2.8-6.5,6.3-6.5h26.9c3.5,0,6.3,3,6.3,6.5v22.7
			C179.1,2999.4,174.9,3003.8,169.7,3003.8z"/>
		<path d="M165.4,2998.1h-12.1c-5.2,0-9.5-4.5-9.5-9.8v-17.9c0-3.6,2.8-6.5,6.3-6.5h18.4c3.5,0,6.3,3,6.3,6.5v17.9
			C174.9,2993.7,170.6,2998.1,165.4,2998.1z"/>
	</g>
	<g id="25B" class="seat economy">
		<path d="M213.4,3003.8h-20.5c-5.2,0-9.5-4.5-9.5-9.8v-22.7c0-3.6,2.8-6.5,6.3-6.5h26.9c3.5,0,6.3,3,6.3,6.5v22.7
			C222.8,2999.4,218.6,3003.8,213.4,3003.8z"/>
		<path d="M209.1,2998.1H197c-5.2,0-9.5-4.5-9.5-9.8v-17.9c0-3.6,2.8-6.5,6.3-6.5h18.5c3.5,0,6.3,3,6.3,6.5v17.9
			C218.6,2993.7,214.3,2998.1,209.1,2998.1z"/>
	</g>
	<g id="25D" class="seat economy">
		<path d="M307.4,3003.5h-20.5c-5.2,0-9.5-4.5-9.5-9.8V2971c0-3.6,2.8-6.5,6.3-6.5h26.9c3.5,0,6.3,3,6.3,6.5v22.7
			C316.9,2999.1,312.6,3003.5,307.4,3003.5z"/>
		<path d="M303.2,2997.7H291c-5.2,0-9.5-4.5-9.5-9.8V2970c0-3.6,2.8-6.5,6.3-6.5h18.4c3.5,0,6.3,3,6.3,6.5v17.9
			C312.6,2993.4,308.4,2997.7,303.2,2997.7z"/>
	</g>
	<g id="25E" class="seat economy">
		<path d="M351.1,3003.5h-20.5c-5.2,0-9.5-4.5-9.5-9.8V2971c0-3.6,2.8-6.5,6.3-6.5h26.9c3.5,0,6.3,3,6.3,6.5v22.7
			C360.6,2999.1,356.3,3003.5,351.1,3003.5z"/>
		<path d="M346.9,2997.7h-12.1c-5.2,0-9.5-4.5-9.5-9.8V2970c0-3.6,2.8-6.5,6.3-6.5H350c3.5,0,6.3,3,6.3,6.5v17.9
			C356.3,2993.4,352.1,2997.7,346.9,2997.7z"/>
	</g>
	<g id="25F" class="seat economy">
		<path d="M394.8,3003.5h-20.5c-5.2,0-9.5-4.5-9.5-9.8V2971c0-3.6,2.8-6.5,6.3-6.5H398c3.5,0,6.3,3,6.3,6.5v22.7
			C404.3,2999.1,400,3003.5,394.8,3003.5z"/>
		<path d="M390.5,2997.7h-12.1c-5.2,0-9.5-4.5-9.5-9.8V2970c0-3.6,2.8-6.5,6.3-6.5h18.4c3.5,0,6.3,3,6.3,6.5v17.9
			C400,2993.4,395.7,2997.7,390.5,2997.7z"/>
	</g>
	<g id="25G" class="seat economy">
		<path d="M438.5,3003.5H418c-5.2,0-9.5-4.5-9.5-9.8V2971c0-3.6,2.8-6.5,6.3-6.5h26.9c3.5,0,6.3,3,6.3,6.5v22.7
			C448,2999.1,443.7,3003.5,438.5,3003.5z"/>
		<path d="M434.3,2997.7h-12.1c-5.2,0-9.5-4.5-9.5-9.8V2970c0-3.6,2.8-6.5,6.3-6.5h18.4c3.5,0,6.3,3,6.3,6.5v17.9
			C443.7,2993.4,439.5,2997.7,434.3,2997.7z"/>
	</g>
	<g id="25J" class="seat economy">
		<path d="M531.5,3003.7H511c-5.2,0-9.5-4.5-9.5-9.8v-22.7c0-3.6,2.8-6.5,6.3-6.5h26.9c3.5,0,6.3,3,6.3,6.5v22.7
			C540.9,2999.3,536.7,3003.7,531.5,3003.7z"/>
		<path d="M527.2,2998H515c-5.2,0-9.5-4.5-9.5-9.8v-17.9c0-3.6,2.8-6.5,6.3-6.5h18.5c3.5,0,6.3,3,6.3,6.5v17.9
			C536.7,2993.6,532.4,2998,527.2,2998z"/>
	</g>
	<g id="25K" class="seat economy">
		<path d="M575.1,3003.7h-20.5c-5.2,0-9.5-4.5-9.5-9.8v-22.7c0-3.6,2.8-6.5,6.3-6.5h26.9c3.5,0,6.3,3,6.3,6.5v22.7
			C584.6,2999.3,580.3,3003.7,575.1,3003.7z"/>
		<path d="M570.9,2998h-12.1c-5.2,0-9.5-4.5-9.5-9.8v-17.9c0-3.6,2.8-6.5,6.3-6.5H574c3.5,0,6.3,3,6.3,6.5v17.9
			C580.3,2993.6,576.1,2998,570.9,2998z"/>
	</g>
	<g id="26A" class="seat economy">
		<path d="M169.7,3053.7h-20.5c-5.2,0-9.5-4.5-9.5-9.8v-22.7c0-3.6,2.8-6.5,6.3-6.5h26.9c3.5,0,6.3,3,6.3,6.5v22.7
			C179.1,3049.3,174.9,3053.7,169.7,3053.7z"/>
		<path d="M165.4,3048h-12.1c-5.2,0-9.5-4.5-9.5-9.8v-17.9c0-3.6,2.8-6.5,6.3-6.5h18.4c3.5,0,6.3,3,6.3,6.5v17.9
			C174.9,3043.6,170.6,3048,165.4,3048z"/>
	</g>
	<g id="26B" class="seat economy">
		<path d="M213.4,3053.7h-20.5c-5.2,0-9.5-4.5-9.5-9.8v-22.7c0-3.6,2.8-6.5,6.3-6.5h26.9c3.5,0,6.3,3,6.3,6.5v22.7
			C222.8,3049.3,218.6,3053.7,213.4,3053.7z"/>
		<path d="M209.1,3048H197c-5.2,0-9.5-4.5-9.5-9.8v-17.9c0-3.6,2.8-6.5,6.3-6.5h18.5c3.5,0,6.3,3,6.3,6.5v17.9
			C218.6,3043.6,214.3,3048,209.1,3048z"/>
	</g>
	<g id="26D" class="seat economy">
		<path d="M307.4,3053.5h-20.5c-5.2,0-9.5-4.5-9.5-9.8V3021c0-3.6,2.8-6.5,6.3-6.5h26.9c3.5,0,6.3,3,6.3,6.5v22.7
			C316.9,3049.1,312.6,3053.5,307.4,3053.5z"/>
		<path d="M303.2,3047.7H291c-5.2,0-9.5-4.5-9.5-9.8V3020c0-3.6,2.8-6.5,6.3-6.5h18.4c3.5,0,6.3,3,6.3,6.5v17.9
			C312.6,3043.4,308.4,3047.7,303.2,3047.7z"/>
	</g>
	<g id="26E" class="seat economy">
		<path d="M351.1,3053.5h-20.5c-5.2,0-9.5-4.5-9.5-9.8V3021c0-3.6,2.8-6.5,6.3-6.5h26.9c3.5,0,6.3,3,6.3,6.5v22.7
			C360.6,3049.1,356.3,3053.5,351.1,3053.5z"/>
		<path d="M346.9,3047.7h-12.1c-5.2,0-9.5-4.5-9.5-9.8V3020c0-3.6,2.8-6.5,6.3-6.5H350c3.5,0,6.3,3,6.3,6.5v17.9
			C356.3,3043.4,352.1,3047.7,346.9,3047.7z"/>
	</g>
	<g id="26F" class="seat economy">
		<path d="M394.8,3053.5h-20.5c-5.2,0-9.5-4.5-9.5-9.8V3021c0-3.6,2.8-6.5,6.3-6.5H398c3.5,0,6.3,3,6.3,6.5v22.7
			C404.3,3049.1,400,3053.5,394.8,3053.5z"/>
		<path d="M390.5,3047.7h-12.1c-5.2,0-9.5-4.5-9.5-9.8V3020c0-3.6,2.8-6.5,6.3-6.5h18.4c3.5,0,6.3,3,6.3,6.5v17.9
			C400,3043.4,395.7,3047.7,390.5,3047.7z"/>
	</g>
	<g id="26G" class="seat economy">
		<path d="M438.5,3053.5H418c-5.2,0-9.5-4.5-9.5-9.8V3021c0-3.6,2.8-6.5,6.3-6.5h26.9c3.5,0,6.3,3,6.3,6.5v22.7
			C448,3049.1,443.7,3053.5,438.5,3053.5z"/>
		<path d="M434.3,3047.7h-12.1c-5.2,0-9.5-4.5-9.5-9.8V3020c0-3.6,2.8-6.5,6.3-6.5h18.4c3.5,0,6.3,3,6.3,6.5v17.9
			C443.7,3043.4,439.5,3047.7,434.3,3047.7z"/>
	</g>
	<g id="26J" class="seat economy">
		<path d="M531.5,3053.6H511c-5.2,0-9.5-4.5-9.5-9.8v-22.7c0-3.6,2.8-6.5,6.3-6.5h26.9c3.5,0,6.3,3,6.3,6.5v22.7
			C540.9,3049.2,536.7,3053.6,531.5,3053.6z"/>
		<path d="M527.2,3047.9H515c-5.2,0-9.5-4.5-9.5-9.8v-17.9c0-3.6,2.8-6.5,6.3-6.5h18.5c3.5,0,6.3,3,6.3,6.5v17.9
			C536.7,3043.5,532.4,3047.9,527.2,3047.9z"/>
	</g>
	<g id="26K" class="seat economy">
		<path d="M575.1,3053.6h-20.5c-5.2,0-9.5-4.5-9.5-9.8v-22.7c0-3.6,2.8-6.5,6.3-6.5h26.9c3.5,0,6.3,3,6.3,6.5v22.7
			C584.6,3049.2,580.3,3053.6,575.1,3053.6z"/>
		<path d="M570.9,3047.9h-12.1c-5.2,0-9.5-4.5-9.5-9.8v-17.9c0-3.6,2.8-6.5,6.3-6.5H574c3.5,0,6.3,3,6.3,6.5v17.9
			C580.3,3043.5,576.1,3047.9,570.9,3047.9z"/>
	</g>
	<g id="27A" class="seat economy">
		<path d="M169.7,3103.6h-20.5c-5.2,0-9.5-4.5-9.5-9.8v-22.7c0-3.6,2.8-6.5,6.3-6.5h26.9c3.5,0,6.3,3,6.3,6.5v22.7
			C179.1,3099.2,174.9,3103.6,169.7,3103.6z"/>
		<path d="M165.4,3097.9h-12.1c-5.2,0-9.5-4.5-9.5-9.8v-17.9c0-3.6,2.8-6.5,6.3-6.5h18.4c3.5,0,6.3,3,6.3,6.5v17.9
			C174.9,3093.5,170.6,3097.9,165.4,3097.9z"/>
	</g>
	<g id="27B" class="seat economy">
		<path d="M213.4,3103.6h-20.5c-5.2,0-9.5-4.5-9.5-9.8v-22.7c0-3.6,2.8-6.5,6.3-6.5h26.9c3.5,0,6.3,3,6.3,6.5v22.7
			C222.8,3099.2,218.6,3103.6,213.4,3103.6z"/>
		<path d="M209.1,3097.9H197c-5.2,0-9.5-4.5-9.5-9.8v-17.9c0-3.6,2.8-6.5,6.3-6.5h18.5c3.5,0,6.3,3,6.3,6.5v17.9
			C218.6,3093.5,214.3,3097.9,209.1,3097.9z"/>
	</g>
	<g id="27D" class="seat economy">
		<path d="M307.4,3103.5h-20.5c-5.2,0-9.5-4.5-9.5-9.8V3071c0-3.6,2.8-6.5,6.3-6.5h26.9c3.5,0,6.3,3,6.3,6.5v22.7
			C316.9,3099.1,312.6,3103.5,307.4,3103.5z"/>
		<path d="M303.2,3097.7H291c-5.2,0-9.5-4.5-9.5-9.8V3070c0-3.6,2.8-6.5,6.3-6.5h18.4c3.5,0,6.3,3,6.3,6.5v17.9
			C312.6,3093.4,308.4,3097.7,303.2,3097.7z"/>
	</g>
	<g id="27E" class="seat economy">
		<path d="M351.1,3103.5h-20.5c-5.2,0-9.5-4.5-9.5-9.8V3071c0-3.6,2.8-6.5,6.3-6.5h26.9c3.5,0,6.3,3,6.3,6.5v22.7
			C360.6,3099.1,356.3,3103.5,351.1,3103.5z"/>
		<path d="M346.9,3097.7h-12.1c-5.2,0-9.5-4.5-9.5-9.8V3070c0-3.6,2.8-6.5,6.3-6.5H350c3.5,0,6.3,3,6.3,6.5v17.9
			C356.3,3093.4,352.1,3097.7,346.9,3097.7z"/>
	</g>
	<g id="27F" class="seat economy">
		<path d="M394.8,3103.5h-20.5c-5.2,0-9.5-4.5-9.5-9.8V3071c0-3.6,2.8-6.5,6.3-6.5H398c3.5,0,6.3,3,6.3,6.5v22.7
			C404.3,3099.1,400,3103.5,394.8,3103.5z"/>
		<path d="M390.5,3097.7h-12.1c-5.2,0-9.5-4.5-9.5-9.8V3070c0-3.6,2.8-6.5,6.3-6.5h18.4c3.5,0,6.3,3,6.3,6.5v17.9
			C400,3093.4,395.7,3097.7,390.5,3097.7z"/>
	</g>
	<g id="27G" class="seat economy">
		<path d="M438.5,3103.5H418c-5.2,0-9.5-4.5-9.5-9.8V3071c0-3.6,2.8-6.5,6.3-6.5h26.9c3.5,0,6.3,3,6.3,6.5v22.7
			C448,3099.1,443.7,3103.5,438.5,3103.5z"/>
		<path d="M434.3,3097.7h-12.1c-5.2,0-9.5-4.5-9.5-9.8V3070c0-3.6,2.8-6.5,6.3-6.5h18.4c3.5,0,6.3,3,6.3,6.5v17.9
			C443.7,3093.4,439.5,3097.7,434.3,3097.7z"/>
	</g>
	<g id="27J" class="seat economy">
		<path d="M531.5,3103.5H511c-5.2,0-9.5-4.5-9.5-9.8V3071c0-3.6,2.8-6.5,6.3-6.5h26.9c3.5,0,6.3,3,6.3,6.5v22.7
			C540.9,3099.1,536.7,3103.5,531.5,3103.5z"/>
		<path d="M527.2,3097.8H515c-5.2,0-9.5-4.5-9.5-9.8v-17.9c0-3.6,2.8-6.5,6.3-6.5h18.5c3.5,0,6.3,3,6.3,6.5v17.9
			C536.7,3093.4,532.4,3097.8,527.2,3097.8z"/>
	</g>
	<g id="27K" class="seat economy">
		<path d="M575.1,3103.5h-20.5c-5.2,0-9.5-4.5-9.5-9.8V3071c0-3.6,2.8-6.5,6.3-6.5h26.9c3.5,0,6.3,3,6.3,6.5v22.7
			C584.6,3099.1,580.3,3103.5,575.1,3103.5z"/>
		<path d="M570.9,3097.8h-12.1c-5.2,0-9.5-4.5-9.5-9.8v-17.9c0-3.6,2.8-6.5,6.3-6.5H574c3.5,0,6.3,3,6.3,6.5v17.9
			C580.3,3093.4,576.1,3097.8,570.9,3097.8z"/>
	</g>
	<g id="28A" class="seat economy">
		<path d="M169.7,3153.5h-20.5c-5.2,0-9.5-4.5-9.5-9.8V3121c0-3.6,2.8-6.5,6.3-6.5h26.9c3.5,0,6.3,3,6.3,6.5v22.7
			C179.1,3149.1,174.9,3153.5,169.7,3153.5z"/>
		<path d="M165.4,3147.8h-12.1c-5.2,0-9.5-4.5-9.5-9.8v-17.9c0-3.6,2.8-6.5,6.3-6.5h18.4c3.5,0,6.3,3,6.3,6.5v17.9
			C174.9,3143.4,170.6,3147.8,165.4,3147.8z"/>
	</g>
	<g id="28B" class="seat economy">
		<path d="M213.4,3153.5h-20.5c-5.2,0-9.5-4.5-9.5-9.8V3121c0-3.6,2.8-6.5,6.3-6.5h26.9c3.5,0,6.3,3,6.3,6.5v22.7
			C222.8,3149.1,218.6,3153.5,213.4,3153.5z"/>
		<path d="M209.1,3147.8H197c-5.2,0-9.5-4.5-9.5-9.8v-17.9c0-3.6,2.8-6.5,6.3-6.5h18.5c3.5,0,6.3,3,6.3,6.5v17.9
			C218.6,3143.4,214.3,3147.8,209.1,3147.8z"/>
	</g>
	<g id="28D" class="seat economy">
		<path d="M307.4,3153.5h-20.5c-5.2,0-9.5-4.5-9.5-9.8V3121c0-3.6,2.8-6.5,6.3-6.5h26.9c3.5,0,6.3,3,6.3,6.5v22.7
			C316.9,3149.1,312.6,3153.5,307.4,3153.5z"/>
		<path d="M303.2,3147.7H291c-5.2,0-9.5-4.5-9.5-9.8V3120c0-3.6,2.8-6.5,6.3-6.5h18.4c3.5,0,6.3,3,6.3,6.5v17.9
			C312.6,3143.4,308.4,3147.7,303.2,3147.7z"/>
	</g>
	<g id="28E" class="seat economy">
		<path d="M351.1,3153.5h-20.5c-5.2,0-9.5-4.5-9.5-9.8V3121c0-3.6,2.8-6.5,6.3-6.5h26.9c3.5,0,6.3,3,6.3,6.5v22.7
			C360.6,3149.1,356.3,3153.5,351.1,3153.5z"/>
		<path d="M346.9,3147.7h-12.1c-5.2,0-9.5-4.5-9.5-9.8V3120c0-3.6,2.8-6.5,6.3-6.5H350c3.5,0,6.3,3,6.3,6.5v17.9
			C356.3,3143.4,352.1,3147.7,346.9,3147.7z"/>
	</g>
	<g id="28F" class="seat economy">
		<path d="M394.8,3153.5h-20.5c-5.2,0-9.5-4.5-9.5-9.8V3121c0-3.6,2.8-6.5,6.3-6.5H398c3.5,0,6.3,3,6.3,6.5v22.7
			C404.3,3149.1,400,3153.5,394.8,3153.5z"/>
		<path d="M390.5,3147.7h-12.1c-5.2,0-9.5-4.5-9.5-9.8V3120c0-3.6,2.8-6.5,6.3-6.5h18.4c3.5,0,6.3,3,6.3,6.5v17.9
			C400,3143.4,395.7,3147.7,390.5,3147.7z"/>
	</g>
	<g id="28G" class="seat economy">
		<path d="M438.5,3153.5H418c-5.2,0-9.5-4.5-9.5-9.8V3121c0-3.6,2.8-6.5,6.3-6.5h26.9c3.5,0,6.3,3,6.3,6.5v22.7
			C448,3149.1,443.7,3153.5,438.5,3153.5z"/>
		<path d="M434.3,3147.7h-12.1c-5.2,0-9.5-4.5-9.5-9.8V3120c0-3.6,2.8-6.5,6.3-6.5h18.4c3.5,0,6.3,3,6.3,6.5v17.9
			C443.7,3143.4,439.5,3147.7,434.3,3147.7z"/>
	</g>
	<g id="28J" class="seat economy">
		<path d="M531.5,3153.4H511c-5.2,0-9.5-4.5-9.5-9.8v-22.7c0-3.6,2.8-6.5,6.3-6.5h26.9c3.5,0,6.3,3,6.3,6.5v22.7
			C540.9,3149,536.7,3153.4,531.5,3153.4z"/>
		<path d="M527.2,3147.7H515c-5.2,0-9.5-4.5-9.5-9.8V3120c0-3.6,2.8-6.5,6.3-6.5h18.5c3.5,0,6.3,3,6.3,6.5v17.9
			C536.7,3143.3,532.4,3147.7,527.2,3147.7z"/>
	</g>
	<g id="28K" class="seat economy">
		<path d="M575.1,3153.4h-20.5c-5.2,0-9.5-4.5-9.5-9.8v-22.7c0-3.6,2.8-6.5,6.3-6.5h26.9c3.5,0,6.3,3,6.3,6.5v22.7
			C584.6,3149,580.3,3153.4,575.1,3153.4z"/>
		<path d="M570.9,3147.7h-12.1c-5.2,0-9.5-4.5-9.5-9.8V3120c0-3.6,2.8-6.5,6.3-6.5H574c3.5,0,6.3,3,6.3,6.5v17.9
			C580.3,3143.3,576.1,3147.7,570.9,3147.7z"/>
	</g>
	<g id="29A" class="seat economy">
		<path d="M169.7,3203.4h-20.5c-5.2,0-9.5-4.5-9.5-9.8v-22.7c0-3.6,2.8-6.5,6.3-6.5h26.9c3.5,0,6.3,3,6.3,6.5v22.7
			C179.1,3199,174.9,3203.4,169.7,3203.4z"/>
		<path d="M165.4,3197.7h-12.1c-5.2,0-9.5-4.5-9.5-9.8V3170c0-3.6,2.8-6.5,6.3-6.5h18.4c3.5,0,6.3,3,6.3,6.5v17.9
			C174.9,3193.3,170.6,3197.7,165.4,3197.7z"/>
	</g>
	<g id="29B" class="seat economy">
		<path d="M213.4,3203.4h-20.5c-5.2,0-9.5-4.5-9.5-9.8v-22.7c0-3.6,2.8-6.5,6.3-6.5h26.9c3.5,0,6.3,3,6.3,6.5v22.7
			C222.8,3199,218.6,3203.4,213.4,3203.4z"/>
		<path d="M209.1,3197.7H197c-5.2,0-9.5-4.5-9.5-9.8V3170c0-3.6,2.8-6.5,6.3-6.5h18.5c3.5,0,6.3,3,6.3,6.5v17.9
			C218.6,3193.3,214.3,3197.7,209.1,3197.7z"/>
	</g>
	<g id="29D" class="seat economy">
		<path d="M307.4,3203.5h-20.5c-5.2,0-9.5-4.5-9.5-9.8V3171c0-3.6,2.8-6.5,6.3-6.5h26.9c3.5,0,6.3,3,6.3,6.5v22.7
			C316.9,3199.1,312.6,3203.5,307.4,3203.5z"/>
		<path d="M303.2,3197.7H291c-5.2,0-9.5-4.5-9.5-9.8V3170c0-3.6,2.8-6.5,6.3-6.5h18.4c3.5,0,6.3,3,6.3,6.5v17.9
			C312.6,3193.4,308.4,3197.7,303.2,3197.7z"/>
	</g>
	<g id="29E" class="seat economy">
		<path d="M351.1,3203.5h-20.5c-5.2,0-9.5-4.5-9.5-9.8V3171c0-3.6,2.8-6.5,6.3-6.5h26.9c3.5,0,6.3,3,6.3,6.5v22.7
			C360.6,3199.1,356.3,3203.5,351.1,3203.5z"/>
		<path d="M346.9,3197.7h-12.1c-5.2,0-9.5-4.5-9.5-9.8V3170c0-3.6,2.8-6.5,6.3-6.5H350c3.5,0,6.3,3,6.3,6.5v17.9
			C356.3,3193.4,352.1,3197.7,346.9,3197.7z"/>
	</g>
	<g id="29F" class="seat economy">
		<path d="M394.8,3203.5h-20.5c-5.2,0-9.5-4.5-9.5-9.8V3171c0-3.6,2.8-6.5,6.3-6.5H398c3.5,0,6.3,3,6.3,6.5v22.7
			C404.3,3199.1,400,3203.5,394.8,3203.5z"/>
		<path d="M390.5,3197.7h-12.1c-5.2,0-9.5-4.5-9.5-9.8V3170c0-3.6,2.8-6.5,6.3-6.5h18.4c3.5,0,6.3,3,6.3,6.5v17.9
			C400,3193.4,395.7,3197.7,390.5,3197.7z"/>
	</g>
	<g id="29G" class="seat economy">
		<path d="M438.5,3203.5H418c-5.2,0-9.5-4.5-9.5-9.8V3171c0-3.6,2.8-6.5,6.3-6.5h26.9c3.5,0,6.3,3,6.3,6.5v22.7
			C448,3199.1,443.7,3203.5,438.5,3203.5z"/>
		<path d="M434.3,3197.7h-12.1c-5.2,0-9.5-4.5-9.5-9.8V3170c0-3.6,2.8-6.5,6.3-6.5h18.4c3.5,0,6.3,3,6.3,6.5v17.9
			C443.7,3193.4,439.5,3197.7,434.3,3197.7z"/>
	</g>
	<g id="29J" class="seat economy">
		<path d="M531.5,3203.3H511c-5.2,0-9.5-4.5-9.5-9.8v-22.7c0-3.6,2.8-6.5,6.3-6.5h26.9c3.5,0,6.3,3,6.3,6.5v22.7
			C540.9,3198.9,536.7,3203.3,531.5,3203.3z"/>
		<path d="M527.2,3197.6H515c-5.2,0-9.5-4.5-9.5-9.8v-17.9c0-3.6,2.8-6.5,6.3-6.5h18.5c3.5,0,6.3,3,6.3,6.5v17.9
			C536.7,3193.2,532.4,3197.6,527.2,3197.6z"/>
	</g>
	<g id="29K" class="seat economy">
		<path d="M575.1,3203.3h-20.5c-5.2,0-9.5-4.5-9.5-9.8v-22.7c0-3.6,2.8-6.5,6.3-6.5h26.9c3.5,0,6.3,3,6.3,6.5v22.7
			C584.6,3198.9,580.3,3203.3,575.1,3203.3z"/>
		<path d="M570.9,3197.6h-12.1c-5.2,0-9.5-4.5-9.5-9.8v-17.9c0-3.6,2.8-6.5,6.3-6.5H574c3.5,0,6.3,3,6.3,6.5v17.9
			C580.3,3193.2,576.1,3197.6,570.9,3197.6z"/>
	</g>
</g>
<g id="midSeats">
	<g id="7A" class="seat business">
		<path class="seatArea" d="M194.5,1556.1h-54c-5.7,0-10.4-4.7-10.4-10.4v-54c0-3.8,3.1-6.9,6.9-6.9h57.5c3.8,0,6.9,3.1,6.9,6.9v57.5
			C201.5,1553,198.4,1556.1,194.5,1556.1z"/>
		<path class="" d="M171.8,1553.9h-27.1c-6.9,0-12.6-6-12.6-13v-30c0-4.8,3.7-8.6,8.3-8.6H176c4.6,0,8.3,4,8.3,8.6v30
			C184.3,1547.9,178.7,1553.9,171.8,1553.9z"/>
		<path class="" d="M166.1,1546.2h-16c-6.9,0-12.6-6-12.6-13v-23.7c0-4.8,3.7-8.6,8.3-8.6h24.3c4.6,0,8.3,4,8.3,8.6v23.7
			C178.7,1540.4,173,1546.2,166.1,1546.2z"/>
	</g>
	<g id="8B" class="seat business">
		<path class="seatArea" d="M207.3,1637.4h-54c-5.7,0-10.4-4.7-10.4-10.4v-54c0-3.8,3.1-6.9,6.9-6.9h57.5c3.8,0,6.9,3.1,6.9,6.9v57.5
			C214.2,1634.3,211.1,1637.4,207.3,1637.4z"/>
		<path class="" d="M200,1635.2h-27.1c-6.9,0-12.6-6-12.6-13v-30c0-4.8,3.7-8.6,8.3-8.6h35.6c4.6,0,8.3,4,8.3,8.6v30
			C212.5,1629.3,206.8,1635.2,200,1635.2z"/>
		<path class="" d="M194.4,1627.6h-16.1c-6.9,0-12.6-6-12.6-13v-23.7c0-4.8,3.7-8.6,8.3-8.6h24.3c4.6,0,8.3,4,8.3,8.6v23.7
			C206.8,1621.7,201.3,1627.6,194.4,1627.6z"/>
	</g>
	<g id="9A" class="seat business">
		<path class="seatArea" d="M194.4,1718.7h-54c-5.7,0-10.4-4.7-10.4-10.4v-54c0-3.8,3.1-6.9,6.9-6.9h57.5c3.8,0,6.9,3.1,6.9,6.9v57.5
			C201.3,1715.6,198.2,1718.7,194.4,1718.7z"/>
		<path class="" d="M171.7,1716.5h-27.1c-6.9,0-12.6-6-12.6-13v-30c0-4.8,3.7-8.6,8.3-8.6h35.6c4.6,0,8.3,4,8.3,8.6v30
			C184.2,1710.6,178.6,1716.5,171.7,1716.5z"/>
		<path class="" d="M166,1708.8h-16c-6.9,0-12.6-6-12.6-13v-23.7c0-4.8,3.7-8.6,8.3-8.6H170c4.6,0,8.3,4,8.3,8.6v23.7
			C178.6,1703,172.9,1708.8,166,1708.8z"/>
	</g>
	<g id="10B" class="seat business">
		<path class="seatArea" d="M207.2,1800h-54c-5.7,0-10.4-4.7-10.4-10.4v-54c0-3.8,3.1-6.9,6.9-6.9h57.5c3.8,0,6.9,3.1,6.9,6.9v57.5
			C214.1,1796.9,211,1800,207.2,1800z"/>
		<path class="" d="M199.8,1797.9h-27.1c-6.9,0-12.6-6-12.6-13v-30c0-4.8,3.7-8.6,8.3-8.6H204c4.6,0,8.3,4,8.3,8.6v30
			C212.4,1791.9,206.7,1797.9,199.8,1797.9z"/>
		<path class="" d="M194.3,1790.2h-16.1c-6.9,0-12.6-6-12.6-13v-23.7c0-4.8,3.7-8.6,8.3-8.6h24.3c4.6,0,8.3,4,8.3,8.6v23.7
			C206.7,1784.4,201.2,1790.2,194.3,1790.2z"/>
	</g>
	<g id="11A" class="seat business">
		<path class="seatArea" d="M195.3,1881.3h-54c-5.7,0-10.4-4.7-10.4-10.4v-54c0-3.8,3.1-6.9,6.9-6.9h57.5c3.8,0,6.9,3.1,6.9,6.9v57.5
			C202.2,1878.2,199.1,1881.3,195.3,1881.3z"/>
		<path class="" d="M172.6,1879.1h-27.1c-6.9,0-12.6-6-12.6-13v-30c0-4.8,3.7-8.6,8.3-8.6h35.6c4.6,0,8.3,4,8.3,8.6v30
			C185,1873.2,179.5,1879.1,172.6,1879.1z"/>
		<path class="" d="M166.9,1871.5h-16c-6.9,0-12.6-6-12.6-13v-23.7c0-4.8,3.7-8.6,8.3-8.6H171c4.6,0,8.3,4,8.3,8.6v23.7
			C179.5,1865.7,173.8,1871.5,166.9,1871.5z"/>
	</g>
	<g id="12B" class="seat business">
		<path class="seatArea" d="M208.1,1962.6h-54c-5.7,0-10.4-4.7-10.4-10.4v-54c0-3.8,3.1-6.9,6.9-6.9h57.5c3.8,0,6.9,3.1,6.9,6.9v57.5
			C215,1959.5,211.9,1962.6,208.1,1962.6z"/>
		<path class="" d="M200.7,1960.5h-27.1c-6.9,0-12.6-6-12.6-13v-30c0-4.8,3.7-8.6,8.3-8.6h35.6c4.6,0,8.3,4,8.3,8.6v30
			C213.3,1954.5,207.6,1960.5,200.7,1960.5z"/>
		<path class="" d="M195.2,1952.8H179c-6.9,0-12.6-6-12.6-13v-23.7c0-4.8,3.7-8.6,8.3-8.6H199c4.6,0,8.3,4,8.3,8.6v23.7
			C207.6,1947,202,1952.8,195.2,1952.8z"/>
	</g>
	<g id="14A" class="seat business">
		<path class="seatArea" d="M195.2,2044h-54c-5.7,0-10.4-4.7-10.4-10.4v-54c0-3.8,3.1-6.9,6.9-6.9h57.5c3.8,0,6.9,3.1,6.9,6.9v57.5
			C202.1,2040.9,199,2044,195.2,2044z"/>
		<path class="" d="M172.5,2041.8h-27.1c-6.9,0-12.6-6-12.6-13v-30c0-4.8,3.7-8.6,8.3-8.6h35.6c4.6,0,8.3,4,8.3,8.6v30
			C184.9,2035.8,179.4,2041.8,172.5,2041.8z"/>
		<path class="" d="M166.8,2034.1h-16c-6.9,0-12.6-6-12.6-13v-23.7c0-4.8,3.7-8.6,8.3-8.6h24.3c4.6,0,8.3,4,8.3,8.6v23.7
			C179.4,2028.3,173.7,2034.1,166.8,2034.1z"/>
	</g>
	<g id="15B" class="seat business">
		<path class="seatArea" d="M208,2125.3h-54c-5.7,0-10.4-4.7-10.4-10.4v-54c0-3.8,3.1-6.9,6.9-6.9H208c3.8,0,6.9,3.1,6.9,6.9v57.5
			C214.9,2122.2,211.8,2125.3,208,2125.3z"/>
		<path class="" d="M200.6,2123.1h-27.1c-6.9,0-12.6-6-12.6-13v-30c0-4.8,3.7-8.6,8.3-8.6h35.6c4.6,0,8.3,4,8.3,8.6v30
			C213.2,2117.2,207.5,2123.1,200.6,2123.1z"/>
		<path class="" d="M195,2115.4h-16.1c-6.9,0-12.6-6-12.6-13v-23.7c0-4.8,3.7-8.6,8.3-8.6H199c4.6,0,8.3,4,8.3,8.6v23.7
			C207.5,2109.6,201.9,2115.4,195,2115.4z"/>
	</g>
	<g id="16A" class="seat business">
		<path class="seatArea" d="M194.4,2206.6h-54c-5.7,0-10.4-4.7-10.4-10.4v-54c0-3.8,3.1-6.9,6.9-6.9h57.5c3.8,0,6.9,3.1,6.9,6.9v57.5
			C201.3,2203.5,198.2,2206.6,194.4,2206.6z"/>
		<path class="" d="M171.7,2204.4h-27.1c-6.9,0-12.6-6-12.6-13v-30c0-4.8,3.7-8.6,8.3-8.6H176c4.6,0,8.3,4,8.3,8.6v30
			C184.2,2198.5,178.6,2204.4,171.7,2204.4z"/>
		<path class="" d="M166,2196.7h-16c-6.9,0-12.6-6-12.6-13V2160c0-4.8,3.7-8.6,8.3-8.6H170c4.6,0,8.3,4,8.3,8.6v23.7
			C178.6,2190.9,172.9,2196.7,166,2196.7z"/>
	</g>
	<g id="17B" class="seat business">
		<path class="seatArea" d="M207.2,2287.9h-54c-5.7,0-10.4-4.7-10.4-10.4v-54c0-3.8,3.1-6.9,6.9-6.9h57.5c3.8,0,6.9,3.1,6.9,6.9v57.5
			C214.1,2284.8,211,2287.9,207.2,2287.9z"/>
		<path class="" d="M199.8,2285.7h-27.1c-6.9,0-12.6-6-12.6-13v-30c0-4.8,3.7-8.6,8.3-8.6H204c4.6,0,8.3,4,8.3,8.6v30
			C212.4,2279.8,206.7,2285.7,199.8,2285.7z"/>
		<path class="" d="M194.3,2278.1h-16.1c-6.9,0-12.6-6-12.6-13v-23.7c0-4.8,3.7-8.6,8.3-8.6h24.3c4.6,0,8.3,4,8.3,8.6v23.7
			C206.7,2272.3,201.2,2278.1,194.3,2278.1z"/>
	</g>
	<g id="18A" class="seat business">
		<path class="seatArea" d="M195.3,2369.2h-54c-5.7,0-10.4-4.7-10.4-10.4v-54c0-3.8,3.1-6.9,6.9-6.9h57.5c3.8,0,6.9,3.1,6.9,6.9v57.5
			C202.2,2366.1,199.1,2369.2,195.3,2369.2z"/>
		<path class="" d="M172.6,2367h-27.1c-6.9,0-12.6-6-12.6-13v-30c0-4.8,3.7-8.6,8.3-8.6h35.6c4.6,0,8.3,4,8.3,8.6v30
			C185,2361.1,179.5,2367,172.6,2367z"/>
		<path class="" d="M166.9,2359.4h-16c-6.9,0-12.6-6-12.6-13v-23.7c0-4.8,3.7-8.6,8.3-8.6H171c4.6,0,8.3,4,8.3,8.6v23.7
			C179.5,2353.5,173.8,2359.4,166.9,2359.4z"/>
	</g>
	<g id="19B" class="seat business">
		<path class="seatArea" d="M208.1,2450.5h-54c-5.7,0-10.4-4.7-10.4-10.4v-54c0-3.8,3.1-6.9,6.9-6.9h57.5c3.8,0,6.9,3.1,6.9,6.9v57.5
			C215,2447.4,211.9,2450.5,208.1,2450.5z"/>
		<path class="" d="M200.7,2448.4h-27.1c-6.9,0-12.6-6-12.6-13v-30c0-4.8,3.7-8.6,8.3-8.6H205c4.6,0,8.3,4,8.3,8.6v30
			C213.3,2442.4,207.6,2448.4,200.7,2448.4z"/>
		<path class="" d="M195.2,2440.7H179c-6.9,0-12.6-6-12.6-13V2404c0-4.8,3.7-8.6,8.3-8.6H199c4.6,0,8.3,4,8.3,8.6v23.7
			C207.6,2434.9,202,2440.7,195.2,2440.7z"/>
	</g>
	<g id="20A" class="seat business">
		<path class="seatArea" d="M195.2,2531.8h-54c-5.7,0-10.4-4.7-10.4-10.4v-54c0-3.8,3.1-6.9,6.9-6.9h57.5c3.8,0,6.9,3.1,6.9,6.9v57.5
			C202.1,2528.7,199,2531.8,195.2,2531.8z"/>
		<path class="" d="M172.5,2529.7h-27.1c-6.9,0-12.6-6-12.6-13v-30c0-4.8,3.7-8.6,8.3-8.6h35.6c4.6,0,8.3,4,8.3,8.6v30
			C184.9,2523.7,179.4,2529.7,172.5,2529.7z"/>
		<path class="" d="M166.8,2522h-16c-6.9,0-12.6-6-12.6-13v-23.7c0-4.8,3.7-8.6,8.3-8.6h24.3c4.6,0,8.3,4,8.3,8.6v23.7
			C179.4,2516.2,173.7,2522,166.8,2522z"/>
	</g>
	<g id="21B" class="seat business">
		<path class="seatArea" d="M208,2613.2h-54c-5.7,0-10.4-4.7-10.4-10.4v-54c0-3.8,3.1-6.9,6.9-6.9H208c3.8,0,6.9,3.1,6.9,6.9v57.5
			C214.9,2610.1,211.8,2613.2,208,2613.2z"/>
		<path class="" d="M200.6,2611h-27.1c-6.9,0-12.6-6-12.6-13v-30c0-4.8,3.7-8.6,8.3-8.6h35.6c4.6,0,8.3,4,8.3,8.6v30
			C213.2,2605.1,207.5,2611,200.6,2611z"/>
		<path class="" d="M195.1,2603.3H179c-6.9,0-12.6-6-12.6-13v-23.7c0-4.8,3.7-8.6,8.3-8.6H199c4.6,0,8.3,4,8.3,8.6v23.7
			C207.5,2597.5,201.9,2603.3,195.1,2603.3z"/>
	</g>
	<g id="6D" class="seat business">
		<path class="seatArea" d="M348.3,1494.3h-54c-5.7,0-10.4-4.7-10.4-10.4v-54c0-3.8,3.1-6.9,6.9-6.9h57.5c3.8,0,6.9,3.1,6.9,6.9v57.5
			C355.3,1491.2,352.2,1494.3,348.3,1494.3z"/>
		<path class="" d="M325.6,1492.1h-27.1c-6.9,0-12.6-6-12.6-13v-30c0-4.8,3.7-8.6,8.3-8.6h35.6c4.6,0,8.3,4,8.3,8.6v30
			C338.1,1486.2,332.5,1492.1,325.6,1492.1z"/>
		<path class="" d="M320,1484.4h-16c-6.9,0-12.6-6-12.6-13v-23.7c0-4.8,3.7-8.6,8.3-8.6H324c4.6,0,8.3,4,8.3,8.6v23.7
			C332.5,1478.6,326.8,1484.4,320,1484.4z"/>
	</g>
	<g id="7E" class="seat business">
		<path class="seatArea" d="M353.1,1575.6h-54c-5.7,0-10.4-4.7-10.4-10.4v-54c0-3.8,3.1-6.9,6.9-6.9h57.5c3.8,0,6.9,3.1,6.9,6.9v57.5
			C360.1,1572.5,356.9,1575.6,353.1,1575.6z"/>
		<path class="" d="M345.8,1573.5h-27.1c-6.9,0-12.6-6-12.6-13v-30c0-4.8,3.7-8.6,8.3-8.6H350c4.6,0,8.3,4,8.3,8.6v30
			C358.3,1567.5,352.7,1573.5,345.8,1573.5z"/>
		<path class="" d="M340.2,1565.8h-16.1c-6.9,0-12.6-6-12.6-13v-23.7c0-4.8,3.7-8.6,8.3-8.6h24.3c4.6,0,8.3,4,8.3,8.6v23.7
			C352.7,1560,347.1,1565.8,340.2,1565.8z"/>
	</g>
	<g id="8D" class="seat business">
		<path class="seatArea" d="M348.3,1656.9h-54c-5.7,0-10.4-4.7-10.4-10.4v-54c0-3.8,3.1-6.9,6.9-6.9h57.5c3.8,0,6.9,3.1,6.9,6.9v57.5
			C355.3,1653.8,352.2,1656.9,348.3,1656.9z"/>
		<path class="" d="M325.6,1654.7h-27.1c-6.9,0-12.6-6-12.6-13v-30c0-4.8,3.7-8.6,8.3-8.6h35.6c4.6,0,8.3,4,8.3,8.6v30
			C338.1,1648.8,332.5,1654.7,325.6,1654.7z"/>
		<path class="" d="M320,1647.1h-16c-6.9,0-12.6-6-12.6-13v-23.7c0-4.8,3.7-8.6,8.3-8.6H324c4.6,0,8.3,4,8.3,8.6v23.7
			C332.5,1641.2,326.8,1647.1,320,1647.1z"/>
	</g>
	<g id="9E" class="seat business">
		<path class="seatArea" d="M353.1,1738.2h-54c-5.7,0-10.4-4.7-10.4-10.4v-54c0-3.8,3.1-6.9,6.9-6.9h57.5c3.8,0,6.9,3.1,6.9,6.9v57.5
			C360.1,1735.1,356.9,1738.2,353.1,1738.2z"/>
		<path class="" d="M345.8,1736.1h-27.1c-6.9,0-12.6-6-12.6-13v-30c0-4.8,3.7-8.6,8.3-8.6H350c4.6,0,8.3,4,8.3,8.6v30
			C358.3,1730.1,352.7,1736.1,345.8,1736.1z"/>
		<path class="" d="M340.2,1728.4h-16.1c-6.9,0-12.6-6-12.6-13v-23.7c0-4.8,3.7-8.6,8.3-8.6h24.3c4.6,0,8.3,4,8.3,8.6v23.7
			C352.7,1722.6,347.1,1728.4,340.2,1728.4z"/>
	</g>
	<g id="10D" class="seat business">
		<path class="seatArea" d="M348.3,1819.5h-54c-5.7,0-10.4-4.7-10.4-10.4v-54c0-3.8,3.1-6.9,6.9-6.9h57.5c3.8,0,6.9,3.1,6.9,6.9v57.5
			C355.3,1816.4,352.2,1819.5,348.3,1819.5z"/>
		<path class="" d="M325.6,1817.4h-27.1c-6.9,0-12.6-6-12.6-13v-30c0-4.8,3.7-8.6,8.3-8.6h35.6c4.6,0,8.3,4,8.3,8.6v30
			C338.1,1811.4,332.5,1817.4,325.6,1817.4z"/>
		<path class="" d="M320,1809.7h-16c-6.9,0-12.6-6-12.6-13V1773c0-4.8,3.7-8.6,8.3-8.6H324c4.6,0,8.3,4,8.3,8.6v23.7
			C332.5,1803.9,326.8,1809.7,320,1809.7z"/>
	</g>
	<g id="11E" class="seat business">
		<path class="seatArea" d="M353.1,1900.9h-54c-5.7,0-10.4-4.7-10.4-10.4v-54c0-3.8,3.1-6.9,6.9-6.9h57.5c3.8,0,6.9,3.1,6.9,6.9v57.5
			C360.1,1897.8,356.9,1900.9,353.1,1900.9z"/>
		<path class="" d="M345.8,1898.7h-27.1c-6.9,0-12.6-6-12.6-13v-30c0-4.8,3.7-8.6,8.3-8.6H350c4.6,0,8.3,4,8.3,8.6v30
			C358.3,1892.8,352.7,1898.7,345.8,1898.7z"/>
		<path class="" d="M340.2,1891h-16.1c-6.9,0-12.6-6-12.6-13v-23.7c0-4.8,3.7-8.6,8.3-8.6h24.3c4.6,0,8.3,4,8.3,8.6v23.7
			C352.7,1885.2,347.1,1891,340.2,1891z"/>
	</g>
	<g id="12D" class="seat business">
		<path class="seatArea" d="M348.3,1982.2h-54c-5.7,0-10.4-4.7-10.4-10.4v-54c0-3.8,3.1-6.9,6.9-6.9h57.5c3.8,0,6.9,3.1,6.9,6.9v57.5
			C355.3,1979.1,352.2,1982.2,348.3,1982.2z"/>
		<path class="" d="M325.6,1980h-27.1c-6.9,0-12.6-6-12.6-13v-30c0-4.8,3.7-8.6,8.3-8.6h35.6c4.6,0,8.3,4,8.3,8.6v30
			C338.1,1974,332.5,1980,325.6,1980z"/>
		<path class="" d="M320,1972.3h-16c-6.9,0-12.6-6-12.6-13v-23.7c0-4.8,3.7-8.6,8.3-8.6H324c4.6,0,8.3,4,8.3,8.6v23.7
			C332.5,1966.5,326.8,1972.3,320,1972.3z"/>
	</g>
	<g id="14E" class="seat business">
		<path class="seatArea" d="M353.1,2063.5h-54c-5.7,0-10.4-4.7-10.4-10.4v-54c0-3.8,3.1-6.9,6.9-6.9h57.5c3.8,0,6.9,3.1,6.9,6.9v57.5
			C360.1,2060.4,356.9,2063.5,353.1,2063.5z"/>
		<path class="" d="M345.8,2061.3h-27.1c-6.9,0-12.6-6-12.6-13v-30c0-4.8,3.7-8.6,8.3-8.6H350c4.6,0,8.3,4,8.3,8.6v30
			C358.3,2055.4,352.7,2061.3,345.8,2061.3z"/>
		<path class="" d="M340.2,2053.7h-16.1c-6.9,0-12.6-6-12.6-13V2017c0-4.8,3.7-8.6,8.3-8.6h24.3c4.6,0,8.3,4,8.3,8.6v23.7
			C352.7,2047.8,347.1,2053.7,340.2,2053.7z"/>
	</g>
	<g id="15D" class="seat business">
		<path class="seatArea" d="M348.3,2144.8h-54c-5.7,0-10.4-4.7-10.4-10.4v-54c0-3.8,3.1-6.9,6.9-6.9h57.5c3.8,0,6.9,3.1,6.9,6.9v57.5
			C355.3,2141.7,352.2,2144.8,348.3,2144.8z"/>
		<path class="" d="M325.6,2142.6h-27.1c-6.9,0-12.6-6-12.6-13v-30c0-4.8,3.7-8.6,8.3-8.6h35.6c4.6,0,8.3,4,8.3,8.6v30
			C338.1,2136.7,332.5,2142.6,325.6,2142.6z"/>
		<path class="" d="M320,2135h-16c-6.9,0-12.6-6-12.6-13v-23.7c0-4.8,3.7-8.6,8.3-8.6H324c4.6,0,8.3,4,8.3,8.6v23.7
			C332.5,2129.1,326.8,2135,320,2135z"/>
	</g>
	<g id="16E" class="seat business">
		<path class="seatArea" d="M353.1,2226.1h-54c-5.7,0-10.4-4.7-10.4-10.4v-54c0-3.8,3.1-6.9,6.9-6.9h57.5c3.8,0,6.9,3.1,6.9,6.9v57.5
			C360.1,2223,356.9,2226.1,353.1,2226.1z"/>
		<path class="" d="M345.8,2224h-27.1c-6.9,0-12.6-6-12.6-13v-30c0-4.8,3.7-8.6,8.3-8.6H350c4.6,0,8.3,4,8.3,8.6v30
			C358.3,2218,352.7,2224,345.8,2224z"/>
		<path class="" d="M340.2,2216.3h-16.1c-6.9,0-12.6-6-12.6-13v-23.7c0-4.8,3.7-8.6,8.3-8.6h24.3c4.6,0,8.3,4,8.3,8.6v23.7
			C352.7,2210.5,347.1,2216.3,340.2,2216.3z"/>
	</g>
	<g id="17D" class="seat business">
		<path class="seatArea" d="M348.3,2307.4h-54c-5.7,0-10.4-4.7-10.4-10.4v-54c0-3.8,3.1-6.9,6.9-6.9h57.5c3.8,0,6.9,3.1,6.9,6.9v57.5
			C355.3,2304.3,352.2,2307.4,348.3,2307.4z"/>
		<path class="" d="M325.6,2305.3h-27.1c-6.9,0-12.6-6-12.6-13v-30c0-4.8,3.7-8.6,8.3-8.6h35.6c4.6,0,8.3,4,8.3,8.6v30
			C338.1,2299.3,332.5,2305.3,325.6,2305.3z"/>
		<path class="" d="M320,2297.6h-16c-6.9,0-12.6-6-12.6-13v-23.7c0-4.8,3.7-8.6,8.3-8.6H324c4.6,0,8.3,4,8.3,8.6v23.7
			C332.5,2291.8,326.8,2297.6,320,2297.6z"/>
	</g>
	<g id="18E" class="seat business">
		<path class="seatArea" d="M353.1,2388.8h-54c-5.7,0-10.4-4.7-10.4-10.4v-54c0-3.8,3.1-6.9,6.9-6.9h57.5c3.8,0,6.9,3.1,6.9,6.9v57.5
			C360.1,2385.6,356.9,2388.8,353.1,2388.8z"/>
		<path class="" d="M345.8,2386.6h-27.1c-6.9,0-12.6-6-12.6-13v-30c0-4.8,3.7-8.6,8.3-8.6H350c4.6,0,8.3,4,8.3,8.6v30
			C358.3,2380.6,352.7,2386.6,345.8,2386.6z"/>
		<path class="" d="M340.2,2378.9h-16.1c-6.9,0-12.6-6-12.6-13v-23.7c0-4.8,3.7-8.6,8.3-8.6h24.3c4.6,0,8.3,4,8.3,8.6v23.7
			C352.7,2373.1,347.1,2378.9,340.2,2378.9z"/>
	</g>
	<g id="19D" class="seat business">
		<path class="seatArea" d="M348.3,2470.1h-54c-5.7,0-10.4-4.7-10.4-10.4v-54c0-3.8,3.1-6.9,6.9-6.9h57.5c3.8,0,6.9,3.1,6.9,6.9v57.5
			C355.3,2467,352.2,2470.1,348.3,2470.1z"/>
		<path class="" d="M325.6,2467.9h-27.1c-6.9,0-12.6-6-12.6-13v-30c0-4.8,3.7-8.6,8.3-8.6h35.6c4.6,0,8.3,4,8.3,8.6v30
			C338.1,2461.9,332.5,2467.9,325.6,2467.9z"/>
		<path class="" d="M320,2460.2h-16c-6.9,0-12.6-6-12.6-13v-23.7c0-4.8,3.7-8.6,8.3-8.6H324c4.6,0,8.3,4,8.3,8.6v23.7
			C332.5,2454.4,326.8,2460.2,320,2460.2z"/>
	</g>
	<g id="20E" class="seat business">
		<path class="seatArea" d="M353.1,2551.4h-54c-5.7,0-10.4-4.7-10.4-10.4v-54c0-3.8,3.1-6.9,6.9-6.9h57.5c3.8,0,6.9,3.1,6.9,6.9v57.5
			C360.1,2548.3,356.9,2551.4,353.1,2551.4z"/>
		<path class="" d="M345.8,2549.2h-27.1c-6.9,0-12.6-6-12.6-13v-30c0-4.8,3.7-8.6,8.3-8.6H350c4.6,0,8.3,4,8.3,8.6v30
			C358.3,2543.3,352.7,2549.2,345.8,2549.2z"/>
		<path class="" d="M340.2,2541.6h-16.1c-6.9,0-12.6-6-12.6-13v-23.7c0-4.8,3.7-8.6,8.3-8.6h24.3c4.6,0,8.3,4,8.3,8.6v23.7
			C352.7,2535.7,347.1,2541.6,340.2,2541.6z"/>
	</g>
	<g id="21D" class="seat business">
		<path class="seatArea" d="M348.3,2632.7h-54c-5.7,0-10.4-4.7-10.4-10.4v-54c0-3.8,3.1-6.9,6.9-6.9h57.5c3.8,0,6.9,3.1,6.9,6.9v57.5
			C355.3,2629.6,352.2,2632.7,348.3,2632.7z"/>
		<path class="" d="M325.6,2630.5h-27.1c-6.9,0-12.6-6-12.6-13v-30c0-4.8,3.7-8.6,8.3-8.6h35.6c4.6,0,8.3,4,8.3,8.6v30
			C338.1,2624.6,332.5,2630.5,325.6,2630.5z"/>
		<path class="" d="M320,2622.8h-16c-6.9,0-12.6-6-12.6-13v-23.7c0-4.8,3.7-8.6,8.3-8.6H324c4.6,0,8.3,4,8.3,8.6v23.7
			C332.5,2617,326.8,2622.8,320,2622.8z"/>
	</g>
	<g id="6G" class="seat business">
		<path class="seatArea" d="M375.1,1494.3h54c5.7,0,10.4-4.7,10.4-10.4v-54c0-3.8-3.1-6.9-6.9-6.9h-57.5c-3.8,0-6.9,3.1-6.9,6.9v57.5
			C368.2,1491.2,371.3,1494.3,375.1,1494.3z"/>
		<path class="" d="M385.2,1479.1v-30c0-4.6,3.7-8.6,8.3-8.6h35.6c4.6,0,8.3,3.8,8.3,8.6v30c0,7-5.7,13-12.6,13h-27.1
			C390.9,1492.1,385.4,1486.2,385.2,1479.1z"/>
		<path class="" d="M391.1,1471.5v-23.7c0-4.6,3.7-8.6,8.3-8.6h24.3c4.6,0,8.3,3.8,8.3,8.6v23.7c0,7-5.7,13-12.6,13h-16
			C396.6,1484.4,390.9,1478.6,391.1,1471.5z"/>
	</g>
	<g id="7F" class="seat business">
		<path class="seatArea" d="M370.3,1575.6h54c5.7,0,10.4-4.7,10.4-10.4v-54c0-3.8-3.1-6.9-6.9-6.9h-57.5c-3.8,0-6.9,3.1-6.9,6.9v57.5
			C363.4,1572.5,366.5,1575.6,370.3,1575.6z"/>
		<path class="" d="M365.1,1560.5v-30c0-4.6,3.7-8.6,8.3-8.6H409c4.6,0,8.3,3.8,8.3,8.6v30c0,7-5.7,13-12.6,13h-27.1
			C370.8,1573.5,365.1,1567.5,365.1,1560.5z"/>
		<path class="" d="M370.9,1552.8v-23.7c0-4.6,3.7-8.6,8.3-8.6h24.3c4.6,0,8.3,3.8,8.3,8.6v23.7c0,7-5.7,13-12.6,13h-16.1
			C376.4,1565.8,370.8,1560,370.9,1552.8z"/>
	</g>
	<g id="8G" class="seat business">
		<path class="seatArea" d="M375.1,1656.9h54c5.7,0,10.4-4.7,10.4-10.4v-54c0-3.8-3.1-6.9-6.9-6.9h-57.5c-3.8,0-6.9,3.1-6.9,6.9v57.5
			C368.2,1653.8,371.3,1656.9,375.1,1656.9z"/>
		<path class="" d="M385.2,1641.8v-30c0-4.6,3.7-8.6,8.3-8.6h35.6c4.6,0,8.3,3.8,8.3,8.6v30c0,7-5.7,13-12.6,13h-27.1
			C390.9,1654.7,385.4,1648.8,385.2,1641.8z"/>
		<path class="" d="M391.1,1634.1v-23.7c0-4.6,3.7-8.6,8.3-8.6h24.3c4.6,0,8.3,3.8,8.3,8.6v23.7c0,7-5.7,13-12.6,13h-16
			C396.6,1647.1,390.9,1641.2,391.1,1634.1z"/>
	</g>
	<g id="9F" class="seat business">
		<path class="seatArea" d="M370.3,1738.2h54c5.7,0,10.4-4.7,10.4-10.4v-54c0-3.8-3.1-6.9-6.9-6.9h-57.5c-3.8,0-6.9,3.1-6.9,6.9v57.5
			C363.4,1735.1,366.5,1738.2,370.3,1738.2z"/>
		<path class="" d="M365.1,1723.1v-30c0-4.6,3.7-8.6,8.3-8.6H409c4.6,0,8.3,3.8,8.3,8.6v30c0,7-5.7,13-12.6,13h-27.1
			C370.8,1736.1,365.1,1730.1,365.1,1723.1z"/>
		<path class="" d="M370.9,1715.4v-23.7c0-4.6,3.7-8.6,8.3-8.6h24.3c4.6,0,8.3,3.8,8.3,8.6v23.7c0,7-5.7,13-12.6,13h-16.1
			C376.4,1728.4,370.8,1722.6,370.9,1715.4z"/>
	</g>
	<g id="10G" class="seat business">
		<path class="seatArea" d="M375.1,1819.5h54c5.7,0,10.4-4.7,10.4-10.4v-54c0-3.8-3.1-6.9-6.9-6.9h-57.5c-3.8,0-6.9,3.1-6.9,6.9v57.5
			C368.2,1816.4,371.3,1819.5,375.1,1819.5z"/>
		<path class="" d="M385.2,1804.4v-30c0-4.6,3.7-8.6,8.3-8.6h35.6c4.6,0,8.3,3.8,8.3,8.6v30c0,7-5.7,13-12.6,13h-27.1
			C390.9,1817.4,385.4,1811.4,385.2,1804.4z"/>
		<path class="" d="M391.1,1796.7V1773c0-4.6,3.7-8.6,8.3-8.6h24.3c4.6,0,8.3,3.8,8.3,8.6v23.7c0,7-5.7,13-12.6,13h-16
			C396.6,1809.7,390.9,1803.9,391.1,1796.7z"/>
	</g>
	<g id="11F" class="seat business">
		<path class="seatArea" d="M370.3,1900.9h54c5.7,0,10.4-4.7,10.4-10.4v-54c0-3.8-3.1-6.9-6.9-6.9h-57.5c-3.8,0-6.9,3.1-6.9,6.9v57.5
			C363.4,1897.8,366.5,1900.9,370.3,1900.9z"/>
		<path class="" d="M365.1,1885.7v-30c0-4.6,3.7-8.6,8.3-8.6H409c4.6,0,8.3,3.8,8.3,8.6v30c0,7-5.7,13-12.6,13h-27.1
			C370.8,1898.7,365.1,1892.8,365.1,1885.7z"/>
		<path class="" d="M370.9,1878.1v-23.7c0-4.6,3.7-8.6,8.3-8.6h24.3c4.6,0,8.3,3.8,8.3,8.6v23.7c0,7-5.7,13-12.6,13h-16.1
			C376.4,1891,370.8,1885.2,370.9,1878.1z"/>
	</g>
	<g id="12G" class="seat business">
		<path class="seatArea" d="M375.1,1982.2h54c5.7,0,10.4-4.7,10.4-10.4v-54c0-3.8-3.1-6.9-6.9-6.9h-57.5c-3.8,0-6.9,3.1-6.9,6.9v57.5
			C368.2,1979.1,371.3,1982.2,375.1,1982.2z"/>
		<path class="" d="M385.2,1967v-30c0-4.6,3.7-8.6,8.3-8.6h35.6c4.6,0,8.3,3.8,8.3,8.6v30c0,7-5.7,13-12.6,13h-27.1
			C390.9,1980,385.4,1974,385.2,1967z"/>
		<path class="" d="M391.1,1959.4v-23.7c0-4.6,3.7-8.6,8.3-8.6h24.3c4.6,0,8.3,3.8,8.3,8.6v23.7c0,7-5.7,13-12.6,13h-16
			C396.6,1972.3,390.9,1966.5,391.1,1959.4z"/>
	</g>
	<g id="14F" class="seat business">
		<path class="seatArea" d="M370.3,2063.5h54c5.7,0,10.4-4.7,10.4-10.4v-54c0-3.8-3.1-6.9-6.9-6.9h-57.5c-3.8,0-6.9,3.1-6.9,6.9v57.5
			C363.4,2060.4,366.5,2063.5,370.3,2063.5z"/>
		<path class="" d="M365.1,2048.4v-30c0-4.6,3.7-8.6,8.3-8.6H409c4.6,0,8.3,3.8,8.3,8.6v30c0,7-5.7,13-12.6,13h-27.1
			C370.8,2061.3,365.1,2055.4,365.1,2048.4z"/>
		<path class="" d="M370.9,2040.7V2017c0-4.6,3.7-8.6,8.3-8.6h24.3c4.6,0,8.3,3.8,8.3,8.6v23.7c0,7-5.7,13-12.6,13h-16.1
			C376.4,2053.7,370.8,2047.8,370.9,2040.7z"/>
	</g>
	<g id="15G" class="seat business">
		<path class="seatArea" d="M375.1,2144.8h54c5.7,0,10.4-4.7,10.4-10.4v-54c0-3.8-3.1-6.9-6.9-6.9h-57.5c-3.8,0-6.9,3.1-6.9,6.9v57.5
			C368.2,2141.7,371.3,2144.8,375.1,2144.8z"/>
		<path class="" d="M385.2,2129.7v-30c0-4.6,3.7-8.6,8.3-8.6h35.6c4.6,0,8.3,3.8,8.3,8.6v30c0,7-5.7,13-12.6,13h-27.1
			C390.9,2142.6,385.4,2136.7,385.2,2129.7z"/>
		<path class="" d="M391.1,2122v-23.7c0-4.6,3.7-8.6,8.3-8.6h24.3c4.6,0,8.3,3.8,8.3,8.6v23.7c0,7-5.7,13-12.6,13h-16
			C396.6,2135,390.9,2129.1,391.1,2122z"/>
	</g>
	<g id="16F" class="seat business">
		<path class="seatArea" d="M370.3,2226.1h54c5.7,0,10.4-4.7,10.4-10.4v-54c0-3.8-3.1-6.9-6.9-6.9h-57.5c-3.8,0-6.9,3.1-6.9,6.9v57.5
			C363.4,2223,366.5,2226.1,370.3,2226.1z"/>
		<path class="" d="M365.1,2211v-30c0-4.6,3.7-8.6,8.3-8.6H409c4.6,0,8.3,3.8,8.3,8.6v30c0,7-5.7,13-12.6,13h-27.1
			C370.8,2224,365.1,2218,365.1,2211z"/>
		<path class="" d="M370.9,2203.3v-23.7c0-4.6,3.7-8.6,8.3-8.6h24.3c4.6,0,8.3,3.8,8.3,8.6v23.7c0,7-5.7,13-12.6,13h-16.1
			C376.4,2216.3,370.8,2210.5,370.9,2203.3z"/>
	</g>
	<g id="17G" class="seat business">
		<path class="seatArea" d="M375.1,2307.4h54c5.7,0,10.4-4.7,10.4-10.4v-54c0-3.8-3.1-6.9-6.9-6.9h-57.5c-3.8,0-6.9,3.1-6.9,6.9v57.5
			C368.2,2304.3,371.3,2307.4,375.1,2307.4z"/>
		<path class="" d="M385.2,2292.3v-30c0-4.6,3.7-8.6,8.3-8.6h35.6c4.6,0,8.3,3.8,8.3,8.6v30c0,7-5.7,13-12.6,13h-27.1
			C390.9,2305.3,385.4,2299.3,385.2,2292.3z"/>
		<path class="" d="M391.1,2284.6v-23.7c0-4.6,3.7-8.6,8.3-8.6h24.3c4.6,0,8.3,3.8,8.3,8.6v23.7c0,7-5.7,13-12.6,13h-16
			C396.6,2297.6,390.9,2291.8,391.1,2284.6z"/>
	</g>
	<g id="18F" class="seat business">
		<path class="seatArea" d="M370.3,2388.8h54c5.7,0,10.4-4.7,10.4-10.4v-54c0-3.8-3.1-6.9-6.9-6.9h-57.5c-3.8,0-6.9,3.1-6.9,6.9v57.5
			C363.4,2385.6,366.5,2388.8,370.3,2388.8z"/>
		<path class="" d="M365.1,2373.6v-30c0-4.6,3.7-8.6,8.3-8.6H409c4.6,0,8.3,3.8,8.3,8.6v30c0,7-5.7,13-12.6,13h-27.1
			C370.8,2386.6,365.1,2380.6,365.1,2373.6z"/>
		<path class="" d="M370.9,2366v-23.7c0-4.6,3.7-8.6,8.3-8.6h24.3c4.6,0,8.3,3.8,8.3,8.6v23.7c0,7-5.7,13-12.6,13h-16.1
			C376.4,2378.9,370.8,2373.1,370.9,2366z"/>
	</g>
	<g id="19G" class="seat business">
		<path class="seatArea" d="M375.1,2470.1h54c5.7,0,10.4-4.7,10.4-10.4v-54c0-3.8-3.1-6.9-6.9-6.9h-57.5c-3.8,0-6.9,3.1-6.9,6.9v57.5
			C368.2,2467,371.3,2470.1,375.1,2470.1z"/>
		<path class="" d="M385.2,2454.9v-30c0-4.6,3.7-8.6,8.3-8.6h35.6c4.6,0,8.3,3.8,8.3,8.6v30c0,7-5.7,13-12.6,13h-27.1
			C390.9,2467.9,385.4,2461.9,385.2,2454.9z"/>
		<path class="" d="M391.1,2447.3v-23.7c0-4.6,3.7-8.6,8.3-8.6h24.3c4.6,0,8.3,3.8,8.3,8.6v23.7c0,7-5.7,13-12.6,13h-16
			C396.6,2460.2,390.9,2454.4,391.1,2447.3z"/>
	</g>
	<g id="20F" class="seat business">
		<path class="seatArea" d="M370.3,2551.4h54c5.7,0,10.4-4.7,10.4-10.4v-54c0-3.8-3.1-6.9-6.9-6.9h-57.5c-3.8,0-6.9,3.1-6.9,6.9v57.5
			C363.4,2548.3,366.5,2551.4,370.3,2551.4z"/>
		<path class="" d="M365.1,2536.3v-30c0-4.6,3.7-8.6,8.3-8.6H409c4.6,0,8.3,3.8,8.3,8.6v30c0,7-5.7,13-12.6,13h-27.1
			C370.8,2549.2,365.1,2543.3,365.1,2536.3z"/>
		<path class="" d="M370.9,2528.6v-23.7c0-4.6,3.7-8.6,8.3-8.6h24.3c4.6,0,8.3,3.8,8.3,8.6v23.7c0,7-5.7,13-12.6,13h-16.1
			C376.4,2541.6,370.8,2535.7,370.9,2528.6z"/>
	</g>
	<g id="21G" class="seat business">
		<path class="seatArea" d="M375.1,2632.7h54c5.7,0,10.4-4.7,10.4-10.4v-54c0-3.8-3.1-6.9-6.9-6.9h-57.5c-3.8,0-6.9,3.1-6.9,6.9v57.5
			C368.2,2629.6,371.3,2632.7,375.1,2632.7z"/>
		<path class="" d="M385.2,2617.6v-30c0-4.6,3.7-8.6,8.3-8.6h35.6c4.6,0,8.3,3.8,8.3,8.6v30c0,7-5.7,13-12.6,13h-27.1
			C390.9,2630.5,385.4,2624.6,385.2,2617.6z"/>
		<path class="" d="M391.1,2609.9v-23.7c0-4.6,3.7-8.6,8.3-8.6h24.3c4.6,0,8.3,3.8,8.3,8.6v23.7c0,7-5.7,13-12.6,13h-16
			C396.6,2622.8,390.9,2617,391.1,2609.9z"/>
	</g>
	<g id="7K" class="seat business">
		<path class="seatArea" d="M527.7,1556.2h54c5.7,0,10.4-4.7,10.4-10.4v-54c0-3.8-3.1-6.9-6.9-6.9h-57.5c-3.8,0-6.9,3.1-6.9,6.9v57.5
			C520.8,1553.1,523.9,1556.2,527.7,1556.2z"/>
		<path class="" d="M537.8,1541.1v-30c0-4.6,3.7-8.6,8.3-8.6h35.6c4.6,0,8.3,3.8,8.3,8.6v30c0,7-5.7,13-12.6,13h-27.1
			C543.5,1554,538,1548.1,537.8,1541.1z"/>
		<path class="" d="M543.7,1533.4v-23.7c0-4.6,3.7-8.6,8.3-8.6h24.3c4.6,0,8.3,3.8,8.3,8.6v23.7c0,7-5.7,13-12.6,13h-16
			C549.2,1546.4,543.5,1540.5,543.7,1533.4z"/>
	</g>
	<g id="8J" class="seat business">
		<path class="seatArea" d="M514.9,1637.5h54c5.7,0,10.4-4.7,10.4-10.4v-54c0-3.8-3.1-6.9-6.9-6.9h-57.5c-3.8,0-6.9,3.1-6.9,6.9v57.5
			C508,1634.4,511.1,1637.5,514.9,1637.5z"/>
		<path class="" d="M509.7,1622.4v-30c0-4.6,3.7-8.6,8.3-8.6h35.6c4.6,0,8.3,3.8,8.3,8.6v30c0,7-5.7,13-12.6,13h-27.1
			C515.4,1635.4,509.7,1629.4,509.7,1622.4z"/>
		<path class="" d="M515.5,1614.7V1591c0-4.6,3.7-8.6,8.3-8.6h24.3c4.6,0,8.3,3.8,8.3,8.6v23.7c0,7-5.7,13-12.6,13h-16.1
			C521,1627.7,515.4,1621.9,515.5,1614.7z"/>
	</g>
	<g id="9K" class="seat business">
		<path class="seatArea" d="M527.8,1718.8h54c5.7,0,10.4-4.7,10.4-10.4v-54c0-3.8-3.1-6.9-6.9-6.9h-57.5c-3.8,0-6.9,3.1-6.9,6.9v57.5
			C520.9,1715.7,524,1718.8,527.8,1718.8z"/>
		<path class="" d="M537.9,1703.7v-30c0-4.6,3.7-8.6,8.3-8.6h35.6c4.6,0,8.3,3.8,8.3,8.6v30c0,7-5.7,13-12.6,13h-27.1
			C543.6,1716.7,538.1,1710.7,537.9,1703.7z"/>
		<path class="" d="M543.8,1696v-23.7c0-4.6,3.7-8.6,8.3-8.6h24.3c4.6,0,8.3,3.8,8.3,8.6v23.7c0,7-5.7,13-12.6,13h-16
			C549.3,1709,543.6,1703.2,543.8,1696z"/>
	</g>
	<g id="10J" class="seat business">
		<path class="seatArea" d="M515,1800.2h54c5.7,0,10.4-4.7,10.4-10.4v-54c0-3.8-3.1-6.9-6.9-6.9H515c-3.8,0-6.9,3.1-6.9,6.9v57.5
			C508.1,1797.1,511.2,1800.2,515,1800.2z"/>
		<path class="" d="M509.8,1785v-30c0-4.6,3.7-8.6,8.3-8.6h35.6c4.6,0,8.3,3.8,8.3,8.6v30c0,7-5.7,13-12.6,13h-27.1
			C515.5,1798,509.8,1792.1,509.8,1785z"/>
		<path class="" d="M515.6,1777.4v-23.7c0-4.6,3.7-8.6,8.3-8.6h24.3c4.6,0,8.3,3.8,8.3,8.6v23.7c0,7-5.7,13-12.6,13h-16.1
			C521.1,1790.3,515.5,1784.5,515.6,1777.4z"/>
	</g>
	<g id="11K" class="seat business">
		<path class="seatArea" d="M526.9,1881.5h54c5.7,0,10.4-4.7,10.4-10.4v-54c0-3.8-3.1-6.9-6.9-6.9h-57.5c-3.8,0-6.9,3.1-6.9,6.9v57.5
			C520,1878.4,523.1,1881.5,526.9,1881.5z"/>
		<path class="" d="M537.1,1866.3v-30c0-4.6,3.7-8.6,8.3-8.6H581c4.6,0,8.3,3.8,8.3,8.6v30c0,7-5.7,13-12.6,13h-27.1
			C542.8,1879.3,537.2,1873.3,537.1,1866.3z"/>
		<path class="" d="M542.9,1858.7V1835c0-4.6,3.7-8.6,8.3-8.6h24.3c4.6,0,8.3,3.8,8.3,8.6v23.7c0,7-5.7,13-12.6,13h-16
			C548.4,1871.6,542.8,1865.8,542.9,1858.7z"/>
	</g>
	<g id="12J" class="seat business">
		<path class="seatArea" d="M514.2,1962.8h54c5.7,0,10.4-4.7,10.4-10.4v-54c0-3.8-3.1-6.9-6.9-6.9h-57.5c-3.8,0-6.9,3.1-6.9,6.9v57.5
			C507.2,1959.7,510.3,1962.8,514.2,1962.8z"/>
		<path class="" d="M508.9,1947.7v-30c0-4.6,3.7-8.6,8.3-8.6h35.6c4.6,0,8.3,3.8,8.3,8.6v30c0,7-5.7,13-12.6,13h-27.1
			C514.6,1960.6,508.9,1954.7,508.9,1947.7z"/>
		<path class="" d="M514.8,1940v-23.7c0-4.6,3.7-8.6,8.3-8.6h24.3c4.6,0,8.3,3.8,8.3,8.6v23.7c0,7-5.7,13-12.6,13H527
			C520.2,1953,514.6,1947.1,514.8,1940z"/>
	</g>
	<g id="14K" class="seat business">
		<path class="seatArea" d="M527.1,2044.1h54c5.7,0,10.4-4.7,10.4-10.4v-54c0-3.8-3.1-6.9-6.9-6.9h-57.5c-3.8,0-6.9,3.1-6.9,6.9v57.5
			C520.1,2041,523.2,2044.1,527.1,2044.1z"/>
		<path class="" d="M537.2,2029v-30c0-4.6,3.7-8.6,8.3-8.6h35.6c4.6,0,8.3,3.8,8.3,8.6v30c0,7-5.7,13-12.6,13h-27.1
			C542.9,2041.9,537.3,2036,537.2,2029z"/>
		<path class="" d="M543,2021.3v-23.7c0-4.6,3.7-8.6,8.3-8.6h24.3c4.6,0,8.3,3.8,8.3,8.6v23.7c0,7-5.7,13-12.6,13h-16
			C548.6,2034.3,542.9,2028.4,543,2021.3z"/>
	</g>
	<g id="15J" class="seat business">
		<path class="seatArea" d="M514.3,2125.4h54c5.7,0,10.4-4.7,10.4-10.4v-54c0-3.8-3.1-6.9-6.9-6.9h-57.5c-3.8,0-6.9,3.1-6.9,6.9v57.5
			C507.3,2122.3,510.4,2125.4,514.3,2125.4z"/>
		<path class="" d="M509.1,2110.3v-30c0-4.6,3.7-8.6,8.3-8.6H553c4.6,0,8.3,3.8,8.3,8.6v30c0,7-5.7,13-12.6,13h-27.1
			C514.7,2123.3,509.1,2117.3,509.1,2110.3z"/>
		<path class="" d="M514.9,2102.6V2079c0-4.6,3.7-8.6,8.3-8.6h24.3c4.6,0,8.3,3.8,8.3,8.6v23.7c0,7-5.7,13-12.6,13h-16.1
			C520.3,2115.6,514.7,2109.8,514.9,2102.6z"/>
	</g>
	<g id="16K" class="seat business">
		<path class="seatArea" d="M527.8,2206.7h54c5.7,0,10.4-4.7,10.4-10.4v-54c0-3.8-3.1-6.9-6.9-6.9h-57.5c-3.8,0-6.9,3.1-6.9,6.9v57.5
			C520.9,2203.6,524,2206.7,527.8,2206.7z"/>
		<path class="" d="M537.9,2191.6v-30c0-4.6,3.7-8.6,8.3-8.6h35.6c4.6,0,8.3,3.8,8.3,8.6v30c0,7-5.7,13-12.6,13h-27.1
			C543.6,2204.6,538.1,2198.6,537.9,2191.6z"/>
		<path class="" d="M543.8,2183.9v-23.7c0-4.6,3.7-8.6,8.3-8.6h24.3c4.6,0,8.3,3.8,8.3,8.6v23.7c0,7-5.7,13-12.6,13h-16
			C549.3,2196.9,543.6,2191.1,543.8,2183.9z"/>
	</g>
	<g id="17J" class="seat business">
		<path class="seatArea" d="M515,2288h54c5.7,0,10.4-4.7,10.4-10.4v-54c0-3.8-3.1-6.9-6.9-6.9H515c-3.8,0-6.9,3.1-6.9,6.9v57.5
			C508.1,2284.9,511.2,2288,515,2288z"/>
		<path class="" d="M509.8,2272.9v-30c0-4.6,3.7-8.6,8.3-8.6h35.6c4.6,0,8.3,3.8,8.3,8.6v30c0,7-5.7,13-12.6,13h-27.1
			C515.5,2285.9,509.8,2279.9,509.8,2272.9z"/>
		<path class="" d="M515.6,2265.3v-23.7c0-4.6,3.7-8.6,8.3-8.6h24.3c4.6,0,8.3,3.8,8.3,8.6v23.7c0,7-5.7,13-12.6,13h-16.1
			C521.1,2278.2,515.5,2272.4,515.6,2265.3z"/>
	</g>
	<g id="18K" class="seat business">
		<path class="seatArea" d="M526.9,2369.4h54c5.7,0,10.4-4.7,10.4-10.4v-54c0-3.8-3.1-6.9-6.9-6.9h-57.5c-3.8,0-6.9,3.1-6.9,6.9v57.5
			C520,2366.3,523.1,2369.4,526.9,2369.4z"/>
		<path class="" d="M537.1,2354.2v-30c0-4.6,3.7-8.6,8.3-8.6H581c4.6,0,8.3,3.8,8.3,8.6v30c0,7-5.7,13-12.6,13h-27.1
			C542.8,2367.2,537.2,2361.2,537.1,2354.2z"/>
		<path class="" d="M542.9,2346.6v-23.7c0-4.6,3.7-8.6,8.3-8.6h24.3c4.6,0,8.3,3.8,8.3,8.6v23.7c0,7-5.7,13-12.6,13h-16
			C548.4,2359.5,542.8,2353.7,542.9,2346.6z"/>
	</g>
	<g id="19J" class="seat business">
		<path class="seatArea" d="M514.2,2450.7h54c5.7,0,10.4-4.7,10.4-10.4v-54c0-3.8-3.1-6.9-6.9-6.9h-57.5c-3.8,0-6.9,3.1-6.9,6.9v57.5
			C507.2,2447.6,510.3,2450.7,514.2,2450.7z"/>
		<path class="" d="M508.9,2435.6v-30c0-4.6,3.7-8.6,8.3-8.6h35.6c4.6,0,8.3,3.8,8.3,8.6v30c0,7-5.7,13-12.6,13h-27.1
			C514.6,2448.5,508.9,2442.6,508.9,2435.6z"/>
		<path class="" d="M514.8,2427.9v-23.7c0-4.6,3.7-8.6,8.3-8.6h24.3c4.6,0,8.3,3.8,8.3,8.6v23.7c0,7-5.7,13-12.6,13H527
			C520.2,2440.9,514.6,2435,514.8,2427.9z"/>
	</g>
	<g id="20K" class="seat business">
		<path class="seatArea" d="M527,2532h54c5.7,0,10.4-4.7,10.4-10.4v-54c0-3.8-3.1-6.9-6.9-6.9H527c-3.8,0-6.9,3.1-6.9,6.9v57.5
			C520.1,2528.9,523.2,2532,527,2532z"/>
		<path class="" d="M537.2,2516.9v-30c0-4.6,3.7-8.6,8.3-8.6h35.6c4.6,0,8.3,3.8,8.3,8.6v30c0,7-5.7,13-12.6,13h-27.1
			C542.9,2529.8,537.3,2523.9,537.2,2516.9z"/>
		<path class="" d="M543,2509.2v-23.7c0-4.6,3.7-8.6,8.3-8.6h24.3c4.6,0,8.3,3.8,8.3,8.6v23.7c0,7-5.7,13-12.6,13h-16
			C548.6,2522.1,542.9,2516.3,543,2509.2z"/>
	</g>
	<g id="21J" class="seat business">
		<path class="seatArea" d="M514.3,2613.3h54c5.7,0,10.4-4.7,10.4-10.4v-54c0-3.8-3.1-6.9-6.9-6.9h-57.5c-3.8,0-6.9,3.1-6.9,6.9v57.5
			C507.3,2610.2,510.4,2613.3,514.3,2613.3z"/>
		<path class="" d="M509.1,2598.2v-30c0-4.6,3.7-8.6,8.3-8.6H553c4.6,0,8.3,3.8,8.3,8.6v30c0,7-5.7,13-12.6,13h-27.1
			C514.7,2611.2,509.1,2605.2,509.1,2598.2z"/>
		<path class="" d="M514.9,2590.5v-23.7c0-4.6,3.7-8.6,8.3-8.6h24.3c4.6,0,8.3,3.8,8.3,8.6v23.7c0,7-5.7,13-12.6,13h-16.1
			C520.3,2603.5,514.7,2597.7,514.9,2590.5z"/>
	</g>
	<g id="columnLabel2">
		<text transform="matrix(1 0 0 1 137.5236 1472.5715)" class="columnLabel">A</text>
		<text transform="matrix(1 0 0 1 191.5236 1472.5715)" class="columnLabel">B</text>
		<text transform="matrix(1 0 0 1 286.9278 1415.0549)" class="columnLabel">D</text>
		<text transform="matrix(1 0 0 1 336.9278 1415.0549)" class="columnLabel">E</text>
		<text transform="matrix(1 0 0 1 370.9279 1415.0549)" class="columnLabel">F</text>
		<text transform="matrix(1 0 0 1 417.0509 1415.0552)" class="columnLabel">G</text>
		<text transform="matrix(1 0 0 1 518.6467 1472.5715)" class="columnLabel">J</text>
		<text transform="matrix(1 0 0 1 567.4226 1472.5715)" class="columnLabel">K</text>
	</g>
</g>
<g id="frontSeats">
	<g id="1A" class="seat firstClass">
		<path class="seatArea" d="M204,731.2h-59.3c-8.3,0-15-6.7-15-15V615.7c0-5.5,4.5-10,10-10H204c5.5,0,10,4.5,10,10v105.5
			C214,726.8,209.5,731.2,204,731.2z"/>
		<path class="" d="M173.7,729h-28.3c-7.2,0-13.1-6.2-13.1-13.5v-31.3c0-5,3.9-9,8.7-9h37.1c4.8,0,8.7,4.1,8.7,9v31.3
			C186.6,722.8,180.9,729,173.7,729z"/>
		<path class="" d="M167.1,721h-14.7c-6.3,0-11.5-8.6-11.5-18.6v-34c0-6.8,3.4-12.4,7.6-12.4h22.3c4.2,0,7.6,5.7,7.6,12.4v34
			C178.6,712.6,173.4,721,167.1,721z"/>
	</g>
	<g id="2A" class="seat firstClass">
		<path class="seatArea" d="M204,858.8h-59.3c-8.3,0-15-6.7-15-15V743.2c0-5.5,4.5-10,10-10H204c5.5,0,10,4.5,10,10v105.5
			C214,854.3,209.5,858.8,204,858.8z"/>
		<path class="" d="M173.7,856.5h-28.3c-7.2,0-13.1-6.2-13.1-13.5v-31.3c0-5,3.9-9,8.7-9h37.1c4.8,0,8.7,4.1,8.7,9V843
			C186.6,850.3,180.9,856.5,173.7,856.5z"/>
		<path class="" d="M167.1,848.5h-14.7c-6.3,0-11.5-8.6-11.5-18.6v-34c0-6.8,3.4-12.4,7.6-12.4h22.3c4.2,0,7.6,5.7,7.6,12.4v34
			C178.6,840.2,173.4,848.5,167.1,848.5z"/>
	</g>
	<g id="3A" class="seat firstClass">
		<path class="seatArea" d="M204,986.3h-59.3c-8.3,0-15-6.7-15-15V870.8c0-5.5,4.5-10,10-10H204c5.5,0,10,4.5,10,10v105.5
			C214,981.8,209.5,986.3,204,986.3z"/>
		<path class="" d="M173.7,984.1h-28.3c-7.2,0-13.1-6.2-13.1-13.5v-31.3c0-5,3.9-9,8.7-9h37.1c4.8,0,8.7,4.1,8.7,9v31.3
			C186.6,977.9,180.9,984.1,173.7,984.1z"/>
		<path class="" d="M167.1,976.1h-14.7c-6.3,0-11.5-8.6-11.5-18.6v-34c0-6.8,3.4-12.4,7.6-12.4h22.3c4.2,0,7.6,5.7,7.6,12.4v34
			C178.6,967.7,173.4,976.1,167.1,976.1z"/>
	</g>
	<g id="4A" class="seat firstClass">
		<path class="seatArea" d="M204,1113.9h-59.3c-8.3,0-15-6.7-15-15V998.3c0-5.5,4.5-10,10-10H204c5.5,0,10,4.5,10,10v105.5
			C214,1109.4,209.5,1113.9,204,1113.9z"/>
		<path class="" d="M173.7,1111.6h-28.3c-7.2,0-13.1-6.2-13.1-13.5v-31.3c0-5,3.9-9,8.7-9h37.1c4.8,0,8.7,4.1,8.7,9v31.3
			C186.6,1105.4,180.9,1111.6,173.7,1111.6z"/>
		<path class="" d="M167.1,1103.6h-14.7c-6.3,0-11.5-8.6-11.5-18.6v-34c0-6.8,3.4-12.4,7.6-12.4h22.3c4.2,0,7.6,5.7,7.6,12.4v34
			C178.6,1095.2,173.4,1103.6,167.1,1103.6z"/>
	</g>
	<g id="1E" class="seat firstClass">
		<path class="seatArea" d="M345,800.7h-59.3c-5.5,0-10-4.5-10-10V685.2c0-5.5,4.5-10,10-10H350c5.5,0,10,4.5,10,10v100.5
			C360,794,353.3,800.7,345,800.7z"/>
		<path class="" d="M344.7,798.5h-28.3c-7.2,0-13.1-6.2-13.1-13.5v-31.3c0-5,3.9-9,8.7-9h37.1c4.8,0,8.7,4.1,8.7,9V785
			C357.6,792.3,351.9,798.5,344.7,798.5z"/>
		<path class="" d="M338.1,790.5h-14.7c-6.3,0-11.5-8.6-11.5-18.6v-34c0-6.8,3.4-12.4,7.6-12.4h22.3c4.2,0,7.6,5.7,7.6,12.4v34
			C349.6,782.1,344.4,790.5,338.1,790.5z"/>
	</g>
	<g id="2E" class="seat firstClass">
		<path class="seatArea" d="M345,928.3h-59.3c-5.5,0-10-4.5-10-10V812.7c0-5.5,4.5-10,10-10H350c5.5,0,10,4.5,10,10v100.5
			C360,921.5,353.3,928.3,345,928.3z"/>
		<path class="" d="M344.7,926h-28.3c-7.2,0-13.1-6.2-13.1-13.5v-31.3c0-5,3.9-9,8.7-9h37.1c4.8,0,8.7,4.1,8.7,9v31.3
			C357.6,919.8,351.9,926,344.7,926z"/>
		<path class="" d="M338.1,918h-14.7c-6.3,0-11.5-8.6-11.5-18.6v-34c0-6.8,3.4-12.4,7.6-12.4h22.3c4.2,0,7.6,5.7,7.6,12.4v34
			C349.6,909.6,344.4,918,338.1,918z"/>
	</g>
	<g id="3E" class="seat firstClass">
		<path class="seatArea" d="M345,1055.8h-59.3c-5.5,0-10-4.5-10-10V940.3c0-5.5,4.5-10,10-10H350c5.5,0,10,4.5,10,10v100.5
			C360,1049.1,353.3,1055.8,345,1055.8z"/>
		<path class="" d="M344.7,1053.6h-28.3c-7.2,0-13.1-6.2-13.1-13.5v-31.3c0-5,3.9-9,8.7-9h37.1c4.8,0,8.7,4.1,8.7,9v31.3
			C357.6,1047.3,351.9,1053.6,344.7,1053.6z"/>
		<path class="" d="M338.1,1045.6h-14.7c-6.3,0-11.5-8.6-11.5-18.6v-34c0-6.8,3.4-12.4,7.6-12.4h22.3c4.2,0,7.6,5.7,7.6,12.4v34
			C349.6,1037.2,344.4,1045.6,338.1,1045.6z"/>
	</g>
	<g id="1F" class="seat firstClass">
		<path class="seatArea" d="M437.6,800.7h-59.3c-8.3,0-15-6.7-15-15V685.2c0-5.5,4.5-10,10-10h64.3c5.5,0,10,4.5,10,10v105.5
			C447.6,796.2,443.1,800.7,437.6,800.7z"/>
		<path class="" d="M407.3,798.5H379c-7.2,0-13.1-6.2-13.1-13.5v-31.3c0-5,3.9-9,8.7-9h37.1c4.8,0,8.7,4.1,8.7,9V785
			C420.2,792.3,414.4,798.5,407.3,798.5z"/>
		<path class="" d="M400.7,790.5H386c-6.3,0-11.5-8.6-11.5-18.6v-34c0-6.8,3.4-12.4,7.6-12.4h22.3c4.2,0,7.6,5.7,7.6,12.4v34
			C412.2,782.1,407,790.5,400.7,790.5z"/>
	</g>
	<g id="2F" class="seat firstClass">
		<path class="seatArea" d="M437.6,928.3h-59.3c-8.3,0-15-6.7-15-15V812.7c0-5.5,4.5-10,10-10h64.3c5.5,0,10,4.5,10,10v105.5
			C447.6,923.8,443.1,928.3,437.6,928.3z"/>
		<path class="" d="M407.3,926H379c-7.2,0-13.1-6.2-13.1-13.5v-31.3c0-5,3.9-9,8.7-9h37.1c4.8,0,8.7,4.1,8.7,9v31.3
			C420.2,919.8,414.4,926,407.3,926z"/>
		<path class="" d="M400.7,918H386c-6.3,0-11.5-8.6-11.5-18.6v-34c0-6.8,3.4-12.4,7.6-12.4h22.3c4.2,0,7.6,5.7,7.6,12.4v34
			C412.2,909.6,407,918,400.7,918z"/>
	</g>
	<g id="3F" class="seat firstClass">
		<path class="seatArea" d="M437.6,1055.8h-59.3c-8.3,0-15-6.7-15-15V940.3c0-5.5,4.5-10,10-10h64.3c5.5,0,10,4.5,10,10v105.5
			C447.6,1051.3,443.1,1055.8,437.6,1055.8z"/>
		<path class="" d="M407.3,1053.6H379c-7.2,0-13.1-6.2-13.1-13.5v-31.3c0-5,3.9-9,8.7-9h37.1c4.8,0,8.7,4.1,8.7,9v31.3
			C420.2,1047.3,414.4,1053.6,407.3,1053.6z"/>
		<path class="" d="M400.7,1045.6H386c-6.3,0-11.5-8.6-11.5-18.6v-34c0-6.8,3.4-12.4,7.6-12.4h22.3c4.2,0,7.6,5.7,7.6,12.4v34
			C412.2,1037.2,407,1045.6,400.7,1045.6z"/>
	</g>
	<g id="1K" class="seat firstClass">
		<path class="seatArea" d="M578.5,731.2h-59.3c-5.5,0-10-4.5-10-10V615.7c0-5.5,4.5-10,10-10h64.3c5.5,0,10,4.5,10,10v100.5
			C593.5,724.5,586.8,731.2,578.5,731.2z"/>
		<path class="" d="M578.2,729h-28.3c-7.2,0-13.1-6.2-13.1-13.5v-31.3c0-5,3.9-9,8.7-9h37.1c4.8,0,8.7,4.1,8.7,9v31.3
			C591.2,722.8,585.4,729,578.2,729z"/>
		<path class="" d="M571.6,721H557c-6.3,0-11.5-8.6-11.5-18.6v-34c0-6.8,3.4-12.4,7.6-12.4h22.3c4.2,0,7.6,5.7,7.6,12.4v34
			C583.2,712.6,578,721,571.6,721z"/>
	</g>
	<g id="2K" class="seat firstClass">
		<path class="seatArea" d="M578.5,858.8h-59.3c-5.5,0-10-4.5-10-10V743.2c0-5.5,4.5-10,10-10h64.3c5.5,0,10,4.5,10,10v100.5
			C593.5,852.1,586.8,858.8,578.5,858.8z"/>
		<path class="" d="M578.2,856.5h-28.3c-7.2,0-13.1-6.2-13.1-13.5v-31.3c0-5,3.9-9,8.7-9h37.1c4.8,0,8.7,4.1,8.7,9V843
			C591.2,850.3,585.4,856.5,578.2,856.5z"/>
		<path class="" d="M571.6,848.5H557c-6.3,0-11.5-8.6-11.5-18.6v-34c0-6.8,3.4-12.4,7.6-12.4h22.3c4.2,0,7.6,5.7,7.6,12.4v34
			C583.2,840.2,578,848.5,571.6,848.5z"/>
	</g>
	<g id="3K" class="seat firstClass">
		<path class="seatArea" d="M578.5,986.3h-59.3c-5.5,0-10-4.5-10-10V870.8c0-5.5,4.5-10,10-10h64.3c5.5,0,10,4.5,10,10v100.5
			C593.5,979.6,586.8,986.3,578.5,986.3z"/>
		<path class="" d="M578.2,984.1h-28.3c-7.2,0-13.1-6.2-13.1-13.5v-31.3c0-5,3.9-9,8.7-9h37.1c4.8,0,8.7,4.1,8.7,9v31.3
			C591.2,977.9,585.4,984.1,578.2,984.1z"/>
		<path class="" d="M571.6,976.1H557c-6.3,0-11.5-8.6-11.5-18.6v-34c0-6.8,3.4-12.4,7.6-12.4h22.3c4.2,0,7.6,5.7,7.6,12.4v34
			C583.2,967.7,578,976.1,571.6,976.1z"/>
	</g>
	<g id="4K" class="seat firstClass">
		<path class="seatArea" d="M578.5,1113.9h-59.3c-5.5,0-10-4.5-10-10V998.3c0-5.5,4.5-10,10-10h64.3c5.5,0,10,4.5,10,10v100.5
			C593.5,1107.1,586.8,1113.9,578.5,1113.9z"/>
		<path class="" d="M578.2,1111.6h-28.3c-7.2,0-13.1-6.2-13.1-13.5v-31.3c0-5,3.9-9,8.7-9h37.1c4.8,0,8.7,4.1,8.7,9v31.3
			C591.2,1105.4,585.4,1111.6,578.2,1111.6z"/>
		<path class="" d="M571.6,1103.6H557c-6.3,0-11.5-8.6-11.5-18.6v-34c0-6.8,3.4-12.4,7.6-12.4h22.3c4.2,0,7.6,5.7,7.6,12.4v34
			C583.2,1095.2,578,1103.6,571.6,1103.6z"/>
	</g>
	<g id="columnLabel8">
		<text transform="matrix(1 0 0 1 158.4634 594.4675)" class="columnLabel">A</text>
		<text transform="matrix(1 0 0 1 311.9347 665.5281)" class="columnLabel">E</text>
		<text transform="matrix(1 0 0 1 399.4923 665.5281)" class="columnLabel">F</text>
		<text transform="matrix(1 0 0 1 545.3624 594.4675)" class="columnLabel">K</text>
	</g>
</g>
<g id="rowNum">
	<text transform="matrix(1 0 0 1 76.9258 1456.6586)" class="rowLabel">6</text>
	<text transform="matrix(1 0 0 1 76.9258 1537.7465)" class="rowLabel">7</text>
	<text transform="matrix(1 0 0 1 76.9258 1618.8345)" class="rowLabel">8</text>
	<text transform="matrix(1 0 0 1 76.9258 1699.9224)" class="rowLabel">9</text>
	<text transform="matrix(1 0 0 1 70.77 1781.0099)" class="rowLabel">10</text>
	<text transform="matrix(1 0 0 1 70.77 1862.0978)" class="rowLabel">11</text>
	<text transform="matrix(1 0 0 1 70.77 1943.1859)" class="rowLabel">12</text>
	<text transform="matrix(1 0 0 1 70.77 2024.274)" class="rowLabel">14</text>
	<text transform="matrix(1 0 0 1 70.7703 2105.3618)" class="rowLabel">15</text>
	<text transform="matrix(1 0 0 1 70.7703 2186.4497)" class="rowLabel">16</text>
	<text transform="matrix(1 0 0 1 70.7702 2267.5374)" class="rowLabel">17</text>
	<text transform="matrix(1 0 0 1 70.77 2348.6257)" class="rowLabel">18</text>
	<text transform="matrix(1 0 0 1 70.7703 2429.7139)" class="rowLabel">19</text>
	<text transform="matrix(1 0 0 1 70.77 2510.8013)" class="rowLabel">20</text>
	<text transform="matrix(1 0 0 1 70.7698 2591.8887)" class="rowLabel">21</text>
	<text transform="matrix(1 0 0 1 73.8478 679.4395)" class="rowLabel">1</text>
	<text transform="matrix(1 0 0 1 73.8477 805.5269)" class="rowLabel">2</text>
	<text transform="matrix(1 0 0 1 73.8477 931.615)" class="rowLabel">3</text>
	<text transform="matrix(1 0 0 1 73.8477 1057.7029)" class="rowLabel">4</text>
	<text transform="matrix(1 0 0 1 70.7701 2841.6831)" class="rowLabel">22</text>
	<text transform="matrix(1 0 0 1 70.7701 2892.0723)" class="rowLabel">23</text>
	<text transform="matrix(1 0 0 1 70.7701 2942.4602)" class="rowLabel">24</text>
	<text transform="matrix(1 0 0 1 70.77 2992.8496)" class="rowLabel">25</text>
	<text transform="matrix(1 0 0 1 70.7701 3043.2378)" class="rowLabel">26</text>
	<text transform="matrix(1 0 0 1 70.7698 3093.6262)" class="rowLabel">27</text>
	<text transform="matrix(1 0 0 1 70.7698 3194.4043)" class="rowLabel">29</text>
	<text transform="matrix(1 0 0 1 70.7701 3144.0149)" class="rowLabel">28</text>
</g>
</svg>
