<svg id="Layer_1" data-name="Layer 1" xmlns="http://www.w3.org/2000/svg" xmlns:xlink="http://www.w3.org/1999/xlink" width="300" height="199.99" viewBox="0 0 300 199.99"><defs><style>.cls-1{fill:url(#linear-gradient);}.cls-2{fill:url(#linear-gradient-2);}.cls-3{fill:#fff;}</style><linearGradient id="linear-gradient" x1="-5.8" y1="10.04" x2="305.8" y2="189.94" gradientUnits="userSpaceOnUse"><stop offset="0.17" stop-color="#f9c227"/><stop offset="0.22" stop-color="#f9be27"/><stop offset="0.44" stop-color="#f7ae28"/><stop offset="0.61" stop-color="#f7a828"/></linearGradient><linearGradient id="linear-gradient-2" x1="153.06" y1="94.2" x2="235.1" y2="236.29" gradientUnits="userSpaceOnUse"><stop offset="0.17" stop-color="#f9c227"/><stop offset="0.22" stop-color="#f9be27"/><stop offset="0.51" stop-color="#f7ae28"/><stop offset="0.74" stop-color="#f7a828"/></linearGradient></defs><title>room_details01</title><rect class="cls-1" width="300" height="199.99"/><polygon class="cls-2" points="183.38 199.81 69.8 142.27 226.18 141.45 228.59 113.52 300 156.41 300 198.81 183.38 199.81"/><path class="cls-3" d="M224.09,86H72.58C69.74,86,67,88,67,90.87v46.65A5.83,5.83,0,0,0,72.58,143H82a4.13,4.13,0,0,0-.1,1.07A2.91,2.91,0,0,0,84.47,147h8.13a2.91,2.91,0,0,0,2.58-2.93,4.13,4.13,0,0,0-.1-1.07h105a4.13,4.13,0,0,0-.1,1.07,2.91,2.91,0,0,0,2.58,2.93h8.13a2.91,2.91,0,0,0,2.58-2.93,4.13,4.13,0,0,0-.1-1.07h10.94c2.84,0,4.91-2.64,4.91-5.48V90.87A4.73,4.73,0,0,0,224.09,86Z" transform="translate(0 -0.19)"/><path class="cls-3" d="M97,79.32V71.43c0-2.84,2.09-4.43,4.93-4.43h37.64c2.84,0,5.43,1.59,5.43,4.43v7.89a6.74,6.74,0,0,1-.08,1.68h6.83c-.16-1,.25-1.14.25-1.68V71.43c0-2.84,1.83-4.43,4.67-4.43h38.07c2.84,0,4.26,1.59,4.26,4.43v7.89c0,.54.81.68.66,1.68H215V53.58c0-2.48-2.21-3.58-4.89-3.58H86.56C83.87,50,81,51.1,81,53.58V81H97A5.87,5.87,0,0,1,97,79.32Z" transform="translate(0 -0.19)"/></svg>