<svg xmlns="http://www.w3.org/2000/svg" width="79" height="44">
    <g fill-rule="evenodd">
        <path d="M55.3 7c-1 0-1.8 1-1.8 2v3.5h-2.2v25.3h19.2V12.5h-2V9c0-1-.8-2-1.8-2H55.3zm.7 2.7h10v2.8H56V9.7zm-7.4 2.8c-2.6 0-4.7 2.2-4.7 5V33c0 2.7 2 4.8 4.6 4.8h.3V12.5h-.4zm24.3 0v25.3h.7c2.7 0 4.8-2 4.8-4.8V17.4c0-2.7-2-5-4.8-5H73z" fill="#076480" />
        <path d="M17 1c-1.5 0-2.7 1-2.7 2.5v5h-3v35h27.3v-35h-2.8v-5C35.8 2 34.6 1 33.3 1H17zm1 3.5h14.2v4H18v-4zm-10.6 4C3.6 8.4.6 11.4.6 15v21.6c0 3.7 3 6.7 6.8 6.7h.4v-35h-.4zm34.6 0v35h1.3c3.7 0 6.7-3 6.7-6.7V15.2c0-3.7-3-6.8-6.8-6.8H42z" fill="#2386a4" />
    </g>
</svg>
