<svg xmlns="http://www.w3.org/2000/svg" viewBox="0 0 61 67" height="67" width="61"><g transform="matrix(.75774 0 0 .75774 24.734 .76)"><circle r="6.092" cy="11.422" cx="18.424" fill="#89bac9" fill-rule="evenodd"/><path d="M19.496 23.366l3.448 17.64" fill="#89bac9" fill-rule="evenodd" stroke="#89bac9" stroke-width="9.8" stroke-linecap="round"/><path d="M21.618 42.2c.928 1.988 16.844-2.256 16.976-1.062.133 1.194.133 18.7.133 18.7" fill="none" stroke="#89bac9" stroke-width="6.3" stroke-linecap="round" stroke-linejoin="round"/><path d="M6.5 11.43l1.855 10.61M9.55 28.008c3.972 18.79 2.48 25.726 21.352 22.148" fill="none" stroke="#7baab8" stroke-width="5" stroke-linecap="round"/></g><circle cx="18.424" cy="11.422" r="6.092" fill="#2285a3" fill-rule="evenodd"/><path d="M19.496 23.366l3.448 17.64" fill="#2285a3" fill-rule="evenodd" stroke="#2285a3" stroke-width="9.8" stroke-linecap="round"/><path d="M21.618 42.2c.928 1.988 16.844-2.256 16.976-1.062.133 1.194.133 18.7.133 18.7" fill="none" stroke="#2285a3" stroke-width="6.3" stroke-linecap="round" stroke-linejoin="round"/><path d="M6.5 11.43l1.855 10.61M9.55 28.008c3.972 18.79 2.48 25.726 21.352 22.148" fill="none" stroke="#056380" stroke-width="5" stroke-linecap="round"/></svg>

