<svg id="Layer_1" data-name="Layer 1" xmlns="http://www.w3.org/2000/svg" xmlns:xlink="http://www.w3.org/1999/xlink" viewBox="0 0 272.42 100.83"><defs><style>.cls-1{fill:url(#linear-gradient);}.cls-2{fill:#f9a923;}.cls-3{fill:#fff;}</style><linearGradient id="linear-gradient" x1="52.22" y1="-11.5" x2="101.86" y2="74.46" gradientUnits="userSpaceOnUse"><stop offset="0.17" stop-color="#f8c225"/><stop offset="0.2" stop-color="#f8bf25"/><stop offset="0.34" stop-color="#f9af23"/><stop offset="0.46" stop-color="#f9a923"/></linearGradient></defs><title>logotravelstore</title><path class="cls-1" d="M21.61,7.79s-3.3-.26-5.14,1.49L5.71,17.12c17.15,8,35.77,17.05,53.14,24.55,2.43,1,7.19-.54,9.52-2.51,5.39-4.56,11.56-9.38,17.33-14.79h-.21L74.84,83.57H86.08L96.76,24.16,128.59,24l1.91-9.14Z" transform="translate(-5.71 -7.77)"/><path class="cls-2" d="M134.66,39.4l-1.72-.48a8.19,8.19,0,0,0-1-.2,8.85,8.85,0,0,0-1.24-.09,19.73,19.73,0,0,0-4.67.55,17.68,17.68,0,0,0-4.35,1.69,22.87,22.87,0,0,0-3.49,2.36c0-.6.07-1.16.07-1.67v-2.3h-8.72v1.63a10.66,10.66,0,0,1-.15,1.69q-.17,1-.43,2.52l-6.54,37.83h9.22l5.1-29.46a8.25,8.25,0,0,1,1.4-2,12.36,12.36,0,0,1,2.28-1.9,9.3,9.3,0,0,1,2.82-1.19,17.19,17.19,0,0,1,4.09-.42c.52,0,1,0,1.4.05a4.35,4.35,0,0,1,.93.18l1.46.45Z" transform="translate(-5.71 -7.77)"/><path class="cls-2" d="M170.87,39.59q-1.55-.27-3.24-.48t-3.24-.34c-1.08-.09-1.92-.14-2.57-.14a31.36,31.36,0,0,0-12.49,2.29,24,24,0,0,0-13.79,15,33,33,0,0,0-1.62,10.31,21.41,21.41,0,0,0,1.21,7.51,16.46,16.46,0,0,0,3.25,5.44,13.29,13.29,0,0,0,4.82,3.34,15.12,15.12,0,0,0,5.68,1.09,20.85,20.85,0,0,0,4.12-.41,14.3,14.3,0,0,0,4-1.44,14.65,14.65,0,0,0,3.12-2.28q0,.27,0,.54c0,.48,0,.95.06,1.41l.09,1.54h9.32L169.22,81c-.07-.39-.13-.8-.17-1.25A15.65,15.65,0,0,1,169,78.2q0-1.23.09-2.77t.25-3.16q.17-1.62.39-3.2c.15-1.06.3-2,.44-2.89l4.63-25.58-1.37-.43A20.18,20.18,0,0,0,170.87,39.59ZM154,74.55a8.62,8.62,0,0,1-3.74.82,4.72,4.72,0,0,1-2.49-.69,6.67,6.67,0,0,1-2.11-2,11,11,0,0,1-1.46-3.26,16.05,16.05,0,0,1-.54-4.3A22.8,22.8,0,0,1,145,56.64a18.25,18.25,0,0,1,3.7-5.93,14.94,14.94,0,0,1,5.06-3.5A14.72,14.72,0,0,1,159.46,46a14.48,14.48,0,0,1,3.46.36,13.86,13.86,0,0,1,1.44.44L161.1,64.76a14,14,0,0,1-3.88,7.51A11.7,11.7,0,0,1,154,74.55Z" transform="translate(-5.71 -7.77)"/><polygon class="cls-2" points="202.75 31.49 188.25 61.94 183.98 31.49 174.26 31.49 181.98 75.16 190.14 75.16 212.82 31.49 202.75 31.49"/><path class="cls-2" d="M250.72,41.39c-2.4-1.84-5.77-2.77-10-2.77A19.64,19.64,0,0,0,231.2,41a23.24,23.24,0,0,0-7.26,6.19A29.13,29.13,0,0,0,219.32,56a33.13,33.13,0,0,0-1.64,10.39,22,22,0,0,0,1,6.65,15.61,15.61,0,0,0,3.05,5.57,13.89,13.89,0,0,0,5.14,3.69,17.85,17.85,0,0,0,7,1.29,31.08,31.08,0,0,0,9.69-1.43A26.19,26.19,0,0,0,251.4,78l1.16-.9-4.24-6.89-1.41,1a29.47,29.47,0,0,1-2.68,1.59,22.84,22.84,0,0,1-3.07,1.34,24.14,24.14,0,0,1-3.4.93c-2.36.47-5,.54-6.71-.32a5.47,5.47,0,0,1-2.1-1.89,9.66,9.66,0,0,1-1.33-3.3,20.8,20.8,0,0,1-.47-4.53v-.37s0-.08,0-.12c1.63,0,3.29-.11,5-.22a60.4,60.4,0,0,0,6.44-.75,38.16,38.16,0,0,0,5.94-1.51,19,19,0,0,0,5.07-2.6,12.72,12.72,0,0,0,3.6-4.05,11.59,11.59,0,0,0,1.37-5.72A9.87,9.87,0,0,0,250.72,41.39ZM228.4,57.58a24.16,24.16,0,0,1,1-2.72,16.89,16.89,0,0,1,2.59-4.2,13,13,0,0,1,3.61-3A9,9,0,0,1,240,46.6a6.76,6.76,0,0,1,4.13,1,3.07,3.07,0,0,1,1.13,2.7,4.32,4.32,0,0,1-.63,2.38,6.07,6.07,0,0,1-1.91,1.85A13.4,13.4,0,0,1,239.57,56a30.21,30.21,0,0,1-4.1,1,45.47,45.47,0,0,1-4.55.51Z" transform="translate(-5.71 -7.77)"/><path class="cls-2" d="M278.13,21h-9.22l-9.25,53.13a14.32,14.32,0,0,0-.25,2.54,8,8,0,0,0,.56,3.18,5.64,5.64,0,0,0,3.88,3.39,9.24,9.24,0,0,0,2.32.3,12.32,12.32,0,0,0,2-.17c.66-.11,1.32-.25,2-.42s1.31-.37,1.93-.58,1.19-.43,1.7-.64l1.08-.46L274.36,75l-1.7.21c-.37,0-.73.08-1.08.1l-.77,0a5.71,5.71,0,0,1-1.8-.21,1.37,1.37,0,0,1-.09-.63,6,6,0,0,1,.13-1.18Z" transform="translate(-5.71 -7.77)"/><path class="cls-3" d="M215.26,99.38a15.86,15.86,0,0,0-3.53-1.16,8.59,8.59,0,0,1-3-1.08,1.24,1.24,0,0,1-.49-1,1.18,1.18,0,0,1,.52-1,3.73,3.73,0,0,1,2.23-.59,3.3,3.3,0,0,1,2.07.55,2.78,2.78,0,0,1,.9,1.79l3.27-.14a4.72,4.72,0,0,0-1.62-3.57A6.83,6.83,0,0,0,211,91.86a8.1,8.1,0,0,0-3.19.56,4.39,4.39,0,0,0-2,1.64,4.16,4.16,0,0,0-.7,2.31,4.21,4.21,0,0,0,1.49,3.26,8.88,8.88,0,0,0,3.69,1.6q2,.51,2.62.71a2.69,2.69,0,0,1,1.18.7,1.47,1.47,0,0,1,.34,1,2,2,0,0,1-.8,1.56,3.64,3.64,0,0,1-2.38.67,3.52,3.52,0,0,1-2.37-.75,3.88,3.88,0,0,1-1.16-2.35l-3.18.31a6.17,6.17,0,0,0,2,4.14,7,7,0,0,0,4.71,1.42,9.17,9.17,0,0,0,3.52-.59,4.63,4.63,0,0,0,2.19-1.81,5.1,5.1,0,0,0,.13-5.18A4.55,4.55,0,0,0,215.26,99.38Z" transform="translate(-5.71 -7.77)"/><polygon class="cls-3" points="213.09 87.1 217.89 87.1 217.89 100.55 221.16 100.55 221.16 87.1 225.95 87.1 225.95 84.36 213.09 84.36 213.09 87.1"/><path class="cls-3" d="M240,91.86a8.89,8.89,0,0,0-3.49.64A6.31,6.31,0,0,0,234.46,94,7.62,7.62,0,0,0,233,96.17a10.3,10.3,0,0,0-.74,4.15,8.36,8.36,0,0,0,2.13,6.07,7.62,7.62,0,0,0,5.74,2.2,7.54,7.54,0,0,0,5.7-2.21,9.92,9.92,0,0,0,0-12.31A7.6,7.6,0,0,0,240,91.86Zm3.24,12.54a4.37,4.37,0,0,1-6.43,0,7.58,7.58,0,0,1,0-8.35,4.52,4.52,0,0,1,6.5,0,6.09,6.09,0,0,1,1.22,4.15A6.19,6.19,0,0,1,243.28,104.4Z" transform="translate(-5.71 -7.77)"/><path class="cls-3" d="M260.7,102.53a7.64,7.64,0,0,0-1.75-1.36,5.14,5.14,0,0,0,3.2-1.5,4.32,4.32,0,0,0,1.07-3,4.67,4.67,0,0,0-.71-2.55,3.72,3.72,0,0,0-1.88-1.55,11.78,11.78,0,0,0-3.77-.44H250v16.19h3.27v-6.76h.66a5.39,5.39,0,0,1,1.65.18,2.51,2.51,0,0,1,1,.67,22.88,22.88,0,0,1,1.72,2.38l2.36,3.52h3.91l-2-3.16A18.49,18.49,0,0,0,260.7,102.53Zm-5-3.56h-2.42V94.87h2.55q2,0,2.39.06a2,2,0,0,1,1.23.64,1.94,1.94,0,0,1,.44,1.32,2.11,2.11,0,0,1-.33,1.21,1.76,1.76,0,0,1-.92.68A12.48,12.48,0,0,1,255.67,99Z" transform="translate(-5.71 -7.77)"/><polygon class="cls-3" points="263.38 97.82 263.38 93.42 271.5 93.42 271.5 90.69 263.38 90.69 263.38 87.1 272.11 87.1 272.11 84.36 260.11 84.36 260.11 100.55 272.42 100.55 272.42 97.82 263.38 97.82"/></svg>