<svg xmlns="http://www.w3.org/2000/svg" id="svg2" width="24" height="50" viewBox="0 0 24 50">
<circle r="10" id="circle-normal" cx="12.138" cy="12.188" fill="none" stroke="#9FA2A7" stroke-width="1.5" stroke-linecap="round" stroke-linejoin="bevel"/>
<path id="cross-normal" d="M9.662 8.48L8.03 10.115l2.314 2.315-2.315 2.313 1.63 1.633 2.316-2.315 2.314 2.317 1.634-1.633-2.315-2.314 2.313-2.316L14.29 8.48l-2.313 2.316L9.662 8.48z" fill="#9FA2A7"/>
<path d="M9.662 34.28L8.03 35.915l2.314 2.315-2.315 2.313 1.63 1.633 2.316-2.315 2.314 2.317 1.634-1.633-2.315-2.314 2.313-2.316-1.633-1.634-2.313 2.316-2.315-2.316z" id="cross-hover" fill="#ccc"/>
<circle cx="12.138" cy="38.088" r="10" stroke="#9FA2A7" stroke-width="1.5" fill="none" stroke-linecap="round" stroke-linejoin="bevel"/>
</svg>