<svg xmlns="http://www.w3.org/2000/svg" viewBox="0 0 72 37" height="37" width="72"><path d="M5.255 25.175l.263 9.46h60.7V24.65l3.417-6.57c1.044-1.568-.287-5.54-8.146-4.467-4.617.624-5.782 8.672-5.782 8.672-12.297-2.507-22.723-3.204-39.68.262 0 0-.714-7.346-5.254-8.934-4.6-1.125-9.503 1.534-8.935 3.942.422 1.79 3.415 7.62 3.415 7.62z" fill="#006482" fill-rule="evenodd"/><path d="M9.723 5.73C28.117.71 45.193 1.392 61.49 5.467l1.168 6.044c-5.362.542-8.294 5.01-8.527 8.41-14.1-3.17-20.583-2.87-36.524.262-.597-2.92-2.3-8.652-9.545-8.67z" fill="#1a86a6" fill-rule="evenodd"/></svg>

