<?xml version="1.0" encoding="utf-8"?>
<!-- Generator: Adobe Illustrator 21.1.0, SVG Export Plug-In . SVG Version: 6.00 Build 0)  -->
<svg version="1.1"
	 id="Layer_1" xmlns:cc="http://creativecommons.org/ns#" xmlns:dc="http://purl.org/dc/elements/1.1/" xmlns:rdf="http://www.w3.org/1999/02/22-rdf-syntax-ns#"
	 xmlns="http://www.w3.org/2000/svg" xmlns:xlink="http://www.w3.org/1999/xlink" x="0px" y="0px" viewBox="0 0 500 500"
	 style="enable-background:new 0 0 500 500;" xml:space="preserve">
<style type="text/css">
	.st0{fill:#BBDA6D;}
	.st1{fill:none;stroke:#D3FFBB;stroke-miterlimit:10;}
	.st2{fill:#FFFFFF;}
	.st3{fill:#0027A6;}
</style>
<circle class="st0" cx="250" cy="251" r="225.9"/>
<title>FLUG</title>
<g>
	<path class="st1" d="M139.6,82.9"/>
</g>
<g>
	<polyline class="st2" points="247.9,330.3 247.9,417.1 124.8,351.2 124.8,269.5 	"/>
	<path class="st3" d="M211.6,301.2"/>
	<path class="st3" d="M238.7,269.5"/>
	<polyline class="st2" points="248.1,272.8 248.1,336.3 202.8,313.9 	"/>
	<polygon class="st2" points="243.8,272 207.5,304.5 97.3,252.4 131,221.8 	"/>
	<path class="st3" d="M283.9,301.2"/>
	<path class="st3" d="M259.4,269.5"/>
	<polyline class="st2" points="252.1,330.3 250.9,417.1 374,351.2 375.2,269.5 	"/>
	<path class="st3" d="M287.2,301.2"/>
	<path class="st3" d="M261.3,269.5"/>
	<polyline class="st2" points="252,272.8 252,336.3 296,313.9 	"/>
	<polygon class="st2" points="255,272 291.2,304.5 402.6,252.4 367.7,221.8 	"/>
	<path class="st3" d="M240.6,269.5"/>
	<g>
		<path class="st1" d="M259.8,213.4"/>
	</g>
	<g>
		<g>
			<g>
				<path class="st2" d="M370.6,121c-5.7,2.5-11.3,5-17,7.8c-2.8,1.4-5.6,2.9-8.4,4.3c-2.8,1.6-5.5,3.2-8.2,4.9
					c-5.4,3.4-10.4,7.1-15.4,10.7c-2.5,1.8-5,3.5-7.5,5.4c-2.5,1.9-5,3.7-7.5,5.7l-3.7,3l-3.6,3.2l-1.8,1.6
					c-0.5,0.5-1.2,1.2-1.7,1.7c-1.2,1.2-2.3,2.3-3.4,3.5c-4.4,4.8-8.4,10.3-11.3,16.3c-3,5.9-5.1,12-7.1,18l-2.5,8l-9.3-2.9l1.7,7.4
					c0.5,2.5,1.2,4.9,1.6,7.4c1.1,4.9,2,9.9,3,14.9c3.9-3.3,7.8-6.7,11.6-10.2c1.9-1.7,3.8-3.5,5.7-5.3l5.7-5.3l-9.3-2.9l2.4-7.9
					c1.9-5.7,3.7-11.3,6.4-16.3c2.6-5,5.8-9.6,9.6-13.8c0.9-1.1,2-2.1,3-3.1c0.5-0.5,1-1,1.6-1.6l1.6-1.5l3.3-3l3.5-2.8
					c2.3-1.9,4.7-3.6,7.1-5.4c2.3-1.8,5-3.6,7.5-5.4c5-3.6,9.9-7.1,14.8-10.3c2.5-1.6,5-3.1,7.6-4.5c2.6-1.4,5.3-2.8,7.9-4.1
					c5.4-2.6,10.9-5.1,16.5-7.5L370.6,121z"/>
			</g>
		</g>
	</g>
	<g>
		<g>
			<g>
				<path class="st2" d="M126,131.2c5.6,2.4,11.1,4.9,16.5,7.5c2.7,1.3,5.4,2.7,7.9,4.1c2.6,1.5,5.1,3,7.6,4.5
					c5,3.2,9.9,6.8,14.8,10.3c2.5,1.8,5,3.6,7.5,5.4c2.4,1.8,4.9,3.6,7.1,5.4l3.5,2.8l3.3,3l1.6,1.5c0.5,0.5,1,1,1.6,1.6
					c1,1,2.1,2,3,3.1c3.9,4.3,7.1,8.8,9.6,13.8c2.6,5,4.5,10.6,6.4,16.3l2.4,7.9l-9.3,2.9l5.7,5.3c1.9,1.8,3.8,3.5,5.7,5.3
					c3.8,3.5,7.8,6.8,11.6,10.2c0.9-5,1.9-10,3-14.9c0.5-2.4,1.1-4.9,1.6-7.4l1.7-7.4l-9.3,2.9l-2.5-8c-1.9-6-4-12.1-7.1-18
					c-3-5.9-6.9-11.5-11.3-16.3c-1.1-1.2-2.3-2.3-3.4-3.5c-0.5-0.5-1.2-1.2-1.7-1.7l-1.8-1.6l-3.6-3.2l-3.7-3c-2.4-2-5-3.9-7.5-5.7
					c-2.6-1.9-5-3.6-7.5-5.4c-5-3.6-10-7.3-15.4-10.7c-2.7-1.7-5.4-3.3-8.2-4.9c-2.8-1.5-5.6-3-8.4-4.3c-5.7-2.8-11.3-5.3-17-7.8
					L126,131.2z"/>
			</g>
		</g>
	</g>
</g>
</svg>
