<?xml version="1.0" encoding="utf-8"?>
<!-- Generator: Adobe Illustrator 21.1.0, SVG Export Plug-In . SVG Version: 6.00 Build 0)  -->
<svg version="1.1"
	 id="Layer_1" xmlns:cc="http://creativecommons.org/ns#" xmlns:dc="http://purl.org/dc/elements/1.1/" xmlns:rdf="http://www.w3.org/1999/02/22-rdf-syntax-ns#"
	 xmlns="http://www.w3.org/2000/svg" xmlns:xlink="http://www.w3.org/1999/xlink" x="0px" y="0px" viewBox="0 0 500 500"
	 style="enable-background:new 0 0 500 500;" xml:space="preserve">
<style type="text/css">
	.st0{fill:#0486E0;}
	.st1{fill:none;stroke:#D3FFBB;stroke-miterlimit:10;}
	.st2{fill:#FFFFFF;}
</style>
<circle class="st0" cx="250" cy="250" r="225.9"/>
<g>
	<g>
		<path class="st1" d="M99.1,3.9"/>
	</g>
	<path class="st2" d="M352.9,121H131.1c-14,0-25.4,11.4-25.4,25.4v201.2c0,14,11.4,25.4,25.4,25.4h221.9c14,0,25.4-11.4,25.4-25.4
		V146.4C378.3,132.4,367,121,352.9,121z M347.2,334.6c0,10.8-8.8,19.6-19.6,19.6H156.4c-10.8,0-19.6-8.8-19.6-19.6V179.4
		c0-10.8,8.8-19.6,19.6-19.6h171.1c10.8,0,19.6,8.8,19.6,19.6V334.6z"/>
	<path class="st0" d="M196.2,121v11c0,8.9-7.2,16-16,16h-1.5c-8.9,0-16-7.2-16-16v-11"/>
	<path class="st2" d="M179.5,141L179.5,141c-6.9,0-12.5-5.6-12.5-12.5v-36c0-6.9,5.6-12.5,12.5-12.5h0c6.9,0,12.5,5.6,12.5,12.5v36
		C192,135.4,186.4,141,179.5,141z"/>
	<path class="st0" d="M319.1,121v11c0,8.9-7.2,16-16,16h-1.5c-8.9,0-16-7.2-16-16v-11"/>
	<path class="st2" d="M302.4,141L302.4,141c-6.9,0-12.5-5.6-12.5-12.5v-36c0-6.9,5.6-12.5,12.5-12.5l0,0c6.9,0,12.5,5.6,12.5,12.5
		v36C314.9,135.4,309.3,141,302.4,141z"/>
	<path class="st2" d="M321.1,225.5h-36.7c-2.8,0-5-2.2-5-5v-36.7c0-2.8,2.2-5,5-5h36.7c2.8,0,5,2.2,5,5v36.7
		C326.1,223.3,323.8,225.5,321.1,225.5z"/>
	<path class="st2" d="M259.4,225.5h-36.7c-2.8,0-5-2.2-5-5v-36.7c0-2.8,2.2-5,5-5h36.7c2.8,0,5,2.2,5,5v36.7
		C264.4,223.3,262.2,225.5,259.4,225.5z"/>
	<path class="st2" d="M197.7,225.5h-36.7c-2.8,0-5-2.2-5-5v-36.7c0-2.8,2.2-5,5-5h36.7c2.8,0,5,2.2,5,5v36.7
		C202.7,223.3,200.5,225.5,197.7,225.5z"/>
	<path class="st2" d="M321.1,282.2h-36.7c-2.8,0-5-2.2-5-5v-36.7c0-2.8,2.2-5,5-5h36.7c2.8,0,5,2.2,5,5v36.7
		C326.1,279.9,323.8,282.2,321.1,282.2z"/>
	<path class="st2" d="M259.4,282.2h-36.7c-2.8,0-5-2.2-5-5v-36.7c0-2.8,2.2-5,5-5h36.7c2.8,0,5,2.2,5,5v36.7
		C264.4,279.9,262.2,282.2,259.4,282.2z"/>
	<path class="st2" d="M197.7,282.2h-36.7c-2.8,0-5-2.2-5-5v-36.7c0-2.8,2.2-5,5-5h36.7c2.8,0,5,2.2,5,5v36.7
		C202.7,279.9,200.5,282.2,197.7,282.2z"/>
	<path class="st2" d="M321.1,338.8h-36.7c-2.8,0-5-2.2-5-5v-36.7c0-2.8,2.2-5,5-5h36.7c2.8,0,5,2.2,5,5v36.7
		C326.1,336.6,323.8,338.8,321.1,338.8z"/>
	<path class="st2" d="M259.4,338.8h-36.7c-2.8,0-5-2.2-5-5v-36.7c0-2.8,2.2-5,5-5h36.7c2.8,0,5,2.2,5,5v36.7
		C264.4,336.6,262.2,338.8,259.4,338.8z"/>
	<path class="st2" d="M197.7,338.8h-36.7c-2.8,0-5-2.2-5-5v-36.7c0-2.8,2.2-5,5-5h36.7c2.8,0,5,2.2,5,5v36.7
		C202.7,336.6,200.5,338.8,197.7,338.8z"/>
	<circle class="st0" cx="338.8" cy="337.4" r="81.1"/>
	<circle class="st2" cx="338.8" cy="338.8" r="69.8"/>
	<circle class="st0" cx="338.8" cy="338.8" r="53.6"/>
	<path class="st2" d="M336.8,351.2L336.8,351.2c-2.9,0-5.3-2.4-5.3-5.3v-46.3c0-2.9,2.4-5.3,5.3-5.3l0,0c2.9,0,5.3,2.4,5.3,5.3v46.3
		C342,348.8,339.7,351.2,336.8,351.2z"/>
	<path class="st2" d="M380.6,345.6v0.6c0,2.8-2.2,5-5,5h-39.1c-2.8,0-5-2.2-5-5v-0.6c0-2.8,2.2-5,5-5h39.1
		C378.3,340.6,380.6,342.8,380.6,345.6z"/>
</g>
</svg>
