<?xml version="1.0" encoding="utf-8"?>
<!-- Generator: Adobe Illustrator 21.1.0, SVG Export Plug-In . SVG Version: 6.00 Build 0)  -->
<svg version="1.1"
	 id="Layer_1" xmlns:cc="http://creativecommons.org/ns#" xmlns:dc="http://purl.org/dc/elements/1.1/" xmlns:rdf="http://www.w3.org/1999/02/22-rdf-syntax-ns#"
	 xmlns="http://www.w3.org/2000/svg" xmlns:xlink="http://www.w3.org/1999/xlink" x="0px" y="0px" viewBox="0 0 500 500"
	 style="enable-background:new 0 0 500 500;" xml:space="preserve">
<style type="text/css">
	.st0{fill:#FCDF2B;}
	.st1{fill:none;stroke:#D3FFBB;stroke-miterlimit:10;}
	.st2{fill:#FFFFFF;}
</style>
<circle class="st0" cx="250" cy="250" r="225.9"/>
<title>FLUG</title>
<g>
	<path class="st1" d="M107.1,6.9"/>
</g>
<g>
	<path class="st2" d="M390.5,287l-235.5,23.7c-2.7,0.3-5.1-1.7-5.5-4.3l-17.5-137.2c-0.4-3,1.9-5.6,5-5.6h253c2.8,0,5,2.2,5,5V282
		C395,284.5,393.1,286.7,390.5,287z"/>
	<rect x="136.4" y="148" class="st2" width="14.4" height="24"/>
	<path class="st2" d="M146.9,156.3h-37.9c-2.2,0-4-1.8-4-4v-6.1c0-2.8,2.2-5,5-5h36.9c2.2,0,4,1.8,4,4v7.1
		C150.9,154.5,149.1,156.3,146.9,156.3z"/>
	<path class="st2" d="M368.1,344H157.9c-2.8,0-5.1-2.3-5.1-5.1v-6.3c0-2.8,2.3-5.1,5.1-5.1h210.3c2.8,0,5.1,2.3,5.1,5.1v6.3
		C373.2,341.7,370.9,344,368.1,344z"/>
	<rect x="157.7" y="291.5" class="st2" width="15.5" height="41"/>
	<circle class="st2" cx="184.4" cy="356.5" r="12.6"/>
	<circle class="st2" cx="347.3" cy="356.5" r="12.6"/>
</g>
</svg>
