<?xml version="1.0" encoding="utf-8"?>
<!-- Generator: Adobe Illustrator 21.1.0, SVG Export Plug-In . SVG Version: 6.00 Build 0)  -->
<svg version="1.1"
	 id="Layer_1" xmlns:cc="http://creativecommons.org/ns#" xmlns:dc="http://purl.org/dc/elements/1.1/" xmlns:rdf="http://www.w3.org/1999/02/22-rdf-syntax-ns#"
	 xmlns="http://www.w3.org/2000/svg" xmlns:xlink="http://www.w3.org/1999/xlink" x="0px" y="0px" viewBox="0 0 500 500"
	 style="enable-background:new 0 0 500 500;" xml:space="preserve">
<style type="text/css">
	.st0{fill:#E0D83A;}
	.st1{fill:none;stroke:#D3FFBB;stroke-miterlimit:10;}
	.st2{fill:#FFFFFF;}
	.st3{fill:none;stroke:#FFFFFF;stroke-width:9;}
</style>
<circle class="st0" cx="250" cy="250" r="225.9"/>
<title>FLUG</title>
<g>
	<path class="st1" d="M107.1,6.9"/>
</g>
<path class="st2" d="M372.1,181.7V143c0-5.8-4.7-10.5-10.5-10.5h-230c-5.8,0-10.5,4.7-10.5,10.5v230c0,5.8,4.7,10.5,10.5,10.5h230
	c5.8,0,10.5-4.7,10.5-10.5v-41.8c-4.9,0-9.9,0-14.8,0v27c0,5.8-4.7,10.5-10.5,10.5H146.5c-5.8,0-10.5-4.7-10.5-10.5V157.9
	c0-5.8,4.7-10.5,10.5-10.5h200.3c5.8,0,10.5,4.7,10.5,10.5v23.9"/>
<path class="st2" d="M349.9,168.8"/>
<path class="st2" d="M332.9,168.8"/>
<g id="layer1">
	<g id="g3765">
		<path id="rect2990" class="st3" d="M240,298.2l173.3-124.5l35.8,49.8L275.8,348.1l-53,0.3L240,298.2z"/>
		<path id="path3771" class="st3" d="M240.5,296.5l36.8,51.2"/>
		<path id="path3777" class="st3" d="M428.1,200.8L258.3,322.8"/>
		<path id="path3763" class="st3" d="M234.2,320l20.1,27"/>
	</g>
</g>
</svg>
