<?xml version="1.0" encoding="utf-8"?>
<!-- Generator: Adobe Illustrator 21.1.0, SVG Export Plug-In . SVG Version: 6.00 Build 0)  -->
<svg version="1.1"
	 id="Layer_1" xmlns:cc="http://creativecommons.org/ns#" xmlns:dc="http://purl.org/dc/elements/1.1/" xmlns:rdf="http://www.w3.org/1999/02/22-rdf-syntax-ns#"
	 xmlns="http://www.w3.org/2000/svg" xmlns:xlink="http://www.w3.org/1999/xlink" x="0px" y="0px" viewBox="0 0 500 500"
	 style="enable-background:new 0 0 500 500;" xml:space="preserve">
<style type="text/css">
	.st0{fill:#E0D83A;}
	.st1{fill:none;}
	.st2{fill:#FFFFFF;}
</style>
<circle class="st0" cx="250" cy="250" r="225.9"/>
<title>FLUG</title>
<line class="st1" x1="36" y1="84.1" x2="57.8" y2="84.1"/>
<path class="st2" d="M198.5,131.6c-9.3,0-16.8,5.5-16.8,13.9v27.8h-18.5v195h169.3V173.4h-17.4v-27.8c0-8.4-7.5-13.9-15.5-13.9
	L198.5,131.6L198.5,131.6z M204.7,151.1h88.1v22.3h-88.1V151.1z M139,173.4c-23.5-0.5-42.2,16.2-42.2,36.2V330
	c0,20.6,18.6,37.3,42.2,37.3h2.5v-195H139V173.4z M353.6,173.4v195h8.1c22.9,0,41.5-16.7,41.5-37.3V210.7
	c0-20.6-18.6-37.8-42.2-37.8h-7.5V173.4z"/>
</svg>
