<svg id="Layer_1" data-name="Layer 1" xmlns="http://www.w3.org/2000/svg" xmlns:xlink="http://www.w3.org/1999/xlink" width="300.43" height="200.76" viewBox="0 0 300.43 200.76"><defs><style>.cls-1{fill:url(#linear-gradient);}.cls-2{fill:url(#linear-gradient-2);}.cls-3{fill:none;}.cls-4{fill:#fff;}</style><linearGradient id="linear-gradient" x1="-5.91" y1="10.24" x2="306.34" y2="190.52" gradientUnits="userSpaceOnUse"><stop offset="0.17" stop-color="#f9c227"/><stop offset="0.22" stop-color="#f9be27"/><stop offset="0.44" stop-color="#f7ae28"/><stop offset="0.61" stop-color="#f7a828"/></linearGradient><linearGradient id="linear-gradient-2" x1="171.38" y1="121.79" x2="237.64" y2="236.56" gradientUnits="userSpaceOnUse"><stop offset="0.17" stop-color="#f9c227"/><stop offset="0.22" stop-color="#f9be27"/><stop offset="0.51" stop-color="#f7ae28"/><stop offset="0.74" stop-color="#f7a828"/></linearGradient></defs><title>hotel_result01</title><rect class="cls-1" width="300.43" height="200.76"/><polygon class="cls-2" points="186.76 200.31 98.54 163.84 206.43 160.6 206.43 126.5 300.43 177.11 300.43 200.31 186.76 200.31"/><path class="cls-3" d="M145,157h12V145H145Z" transform="translate(0.43 0.31)"/><path class="cls-3" d="M180,23H122V42h58ZM133.35,35.53l-2.28-1.2-2.28,1.2.44-2.54-1.84-1.8,2.55-.37,1.14-2.31,1.14,2.31,2.55.37L132.92,33Zm10,0-2.28-1.2-2.28,1.2.44-2.54-1.84-1.8,2.55-.37,1.14-2.31,1.14,2.31,2.55.37L143,33Zm10,0-2.28-1.2-2.28,1.2L149.3,33l-1.84-1.8,2.55-.37,1.14-2.31,1.14,2.31,2.55.37L153,33Zm10,0-2.28-1.2-2.28,1.2.44-2.54-1.84-1.8,2.55-.37,1.14-2.31,1.14,2.31,2.55.37L163,33Zm10,0-2.28-1.2-2.28,1.2.44-2.54-1.84-1.8,2.55-.37,1.14-2.31,1.14,2.31,2.55.37L173.06,33Z" transform="translate(0.43 0.31)"/><path class="cls-3" d="M195.28,48.22q-44,.24-88,0c-4.18,0-5.07,1.21-5,5.17.15,33.32,0,66.66.09,100,0,4.88,5.79,4.41,5.79,4.41l30.79.06c0-4.69.06-9.06,0-13.43-.06-3.21,1.39-4.61,4.59-4.55,4.8.09,9.6,0,14.39,0s5.42.7,5.45,5.65c0,4.08,0,8.16,0,12.63,11.11,0,21.62-.16,32.11.08,3.71.09,4.67-1.05,4.66-4.71q-.2-50.18,0-100.37C200.15,49.34,199.17,48.2,195.28,48.22ZM130,140a2,2,0,0,1-2,2H114a2,2,0,0,1-2-2V139a2,2,0,0,1,2-2H128a2,2,0,0,1,2,2Zm0-11a2,2,0,0,1-2,2H114a2,2,0,0,1-2-2V128a2,2,0,0,1,2-2H128a2,2,0,0,1,2,2Zm0-13a2,2,0,0,1-2,2H114a2,2,0,0,1-2-2V115a2,2,0,0,1,2-2H128a2,2,0,0,1,2,2Zm0-12a2,2,0,0,1-2,2H114a2,2,0,0,1-2-2V103a2,2,0,0,1,2-2H128a2,2,0,0,1,2,2Zm0-10a2,2,0,0,1-2,2H114a2,2,0,0,1-2-2V93a2,2,0,0,1,2-2H128a2,2,0,0,1,2,2Zm0-13a2,2,0,0,1-2,2H114a2,2,0,0,1-2-2V80a2,2,0,0,1,2-2H128a2,2,0,0,1,2,2Zm0-12a2,2,0,0,1-2,2H114a2,2,0,0,1-2-2V68a2,2,0,0,1,2-2H128a2,2,0,0,1,2,2Zm0-12a2,2,0,0,1-2,2H114a2,2,0,0,1-2-2V56a2,2,0,0,1,2-2H128a2,2,0,0,1,2,2Zm30,72a2,2,0,0,1-2,2H144a2,2,0,0,1-2-2V128a2,2,0,0,1,2-2H158a2,2,0,0,1,2,2Zm0-13a2,2,0,0,1-2,2H144a2,2,0,0,1-2-2V115a2,2,0,0,1,2-2H158a2,2,0,0,1,2,2Zm0-12a2,2,0,0,1-2,2H144a2,2,0,0,1-2-2V103a2,2,0,0,1,2-2H158a2,2,0,0,1,2,2Zm0-10a2,2,0,0,1-2,2H144a2,2,0,0,1-2-2V93a2,2,0,0,1,2-2H158a2,2,0,0,1,2,2Zm0-13a2,2,0,0,1-2,2H144a2,2,0,0,1-2-2V80a2,2,0,0,1,2-2H158a2,2,0,0,1,2,2Zm0-12a2,2,0,0,1-2,2H144a2,2,0,0,1-2-2V68a2,2,0,0,1,2-2H158a2,2,0,0,1,2,2Zm0-12a2,2,0,0,1-2,2H144a2,2,0,0,1-2-2V56a2,2,0,0,1,2-2H158a2,2,0,0,1,2,2Zm31,84a2,2,0,0,1-2,2H175a2,2,0,0,1-2-2V140a2,2,0,0,1,2-2H189a2,2,0,0,1,2,2Zm0-12a2,2,0,0,1-2,2H175a2,2,0,0,1-2-2V128a2,2,0,0,1,2-2H189a2,2,0,0,1,2,2Zm0-13a2,2,0,0,1-2,2H175a2,2,0,0,1-2-2V115a2,2,0,0,1,2-2H189a2,2,0,0,1,2,2Zm0-12a2,2,0,0,1-2,2H175a2,2,0,0,1-2-2V103a2,2,0,0,1,2-2H189a2,2,0,0,1,2,2Zm0-10a2,2,0,0,1-2,2H175a2,2,0,0,1-2-2V93a2,2,0,0,1,2-2H189a2,2,0,0,1,2,2Zm0-13a2,2,0,0,1-2,2H175a2,2,0,0,1-2-2V80a2,2,0,0,1,2-2H189a2,2,0,0,1,2,2Zm0-12a2,2,0,0,1-2,2H175a2,2,0,0,1-2-2V68a2,2,0,0,1,2-2H189a2,2,0,0,1,2,2Zm0-12a2,2,0,0,1-2,2H175a2,2,0,0,1-2-2V56a2,2,0,0,1,2-2H189a2,2,0,0,1,2,2Z" transform="translate(0.43 0.31)"/><path class="cls-4" d="M206,47.28c0-3.93-1.59-5.21-5.25-5.08-4.22.15-8.45,0-13.12,0,0-6.74,0-13,0-19.19,0-4.63-.66-5.28-5.37-5.28q-31.18,0-62.35,0c-4.64,0-5.27.67-5.29,5.36,0,6.22,0,12.43,0,19.1-4.72,0-9,.12-13.18,0-3.71-.13-5.19,1.27-5.18,5.14.1,37.17.06,74.34.07,111.51,0,4.74.6,5.33,5.28,5.33,33,0,66.08,0,99.12.06,3.71,0,5.28-1.17,5.27-5.06Q205.89,103.23,206,47.28ZM122,23h58V42H122Zm35,134H145V145h12Zm43.13-3.49c0,3.66-.94,4.79-4.66,4.71-10.5-.24-21-.08-32.11-.08,0-4.47,0-8.55,0-12.63,0-5-.67-5.62-5.45-5.65s-9.6.06-14.39,0c-3.2-.06-4.65,1.35-4.59,4.55.08,4.37,0,8.74,0,13.43l-30.79-.06s-5.78.48-5.79-4.41c-.1-33.31.06-66.65-.09-100,0-4,.87-5.19,5-5.17q44,.3,88,0c3.89,0,4.87,1.11,4.86,4.92Q199.92,103.33,200.13,153.51Z" transform="translate(0.43 0.31)"/><rect class="cls-4" x="112.43" y="54.31" width="18" height="5" rx="1.96" ry="1.96"/><rect class="cls-4" x="142.43" y="54.31" width="18" height="5" rx="1.96" ry="1.96"/><rect class="cls-4" x="173.43" y="54.31" width="18" height="5" rx="1.96" ry="1.96"/><rect class="cls-4" x="112.43" y="66.31" width="18" height="5" rx="1.96" ry="1.96"/><rect class="cls-4" x="142.43" y="66.31" width="18" height="5" rx="1.96" ry="1.96"/><rect class="cls-4" x="173.43" y="66.31" width="18" height="5" rx="1.96" ry="1.96"/><rect class="cls-4" x="112.43" y="78.31" width="18" height="5" rx="1.96" ry="1.96"/><rect class="cls-4" x="142.43" y="78.31" width="18" height="5" rx="1.96" ry="1.96"/><rect class="cls-4" x="173.43" y="78.31" width="18" height="5" rx="1.96" ry="1.96"/><rect class="cls-4" x="112.43" y="91.31" width="18" height="5" rx="1.96" ry="1.96"/><rect class="cls-4" x="142.43" y="91.31" width="18" height="5" rx="1.96" ry="1.96"/><rect class="cls-4" x="173.43" y="91.31" width="18" height="5" rx="1.96" ry="1.96"/><rect class="cls-4" x="112.43" y="101.31" width="18" height="5" rx="1.96" ry="1.96"/><rect class="cls-4" x="142.43" y="101.31" width="18" height="5" rx="1.96" ry="1.96"/><rect class="cls-4" x="173.43" y="101.31" width="18" height="5" rx="1.96" ry="1.96"/><rect class="cls-4" x="112.43" y="113.31" width="18" height="5" rx="1.96" ry="1.96"/><rect class="cls-4" x="142.43" y="113.31" width="18" height="5" rx="1.96" ry="1.96"/><rect class="cls-4" x="173.43" y="113.31" width="18" height="5" rx="1.96" ry="1.96"/><rect class="cls-4" x="112.43" y="126.31" width="18" height="5" rx="1.96" ry="1.96"/><rect class="cls-4" x="112.43" y="137.31" width="18" height="5" rx="1.96" ry="1.96"/><rect class="cls-4" x="142.43" y="126.31" width="18" height="5" rx="1.96" ry="1.96"/><rect class="cls-4" x="173.43" y="126.31" width="18" height="5" rx="1.96" ry="1.96"/><rect class="cls-4" x="173.43" y="138.31" width="18" height="5" rx="1.96" ry="1.96"/><polygon class="cls-4" points="132.64 31.14 131.5 28.83 130.36 31.14 127.81 31.51 129.66 33.31 129.22 35.84 131.5 34.65 133.78 35.84 133.34 33.31 135.19 31.51 132.64 31.14"/><polygon class="cls-4" points="142.68 31.14 141.54 28.83 140.4 31.14 137.85 31.51 139.69 33.31 139.26 35.84 141.54 34.65 143.81 35.84 143.38 33.31 145.22 31.51 142.68 31.14"/><polygon class="cls-4" points="152.71 31.14 151.57 28.83 150.43 31.14 147.89 31.51 149.73 33.31 149.29 35.84 151.57 34.65 153.85 35.84 153.42 33.31 155.26 31.51 152.71 31.14"/><polygon class="cls-4" points="162.75 31.14 161.61 28.83 160.47 31.14 157.92 31.51 159.77 33.31 159.33 35.84 161.61 34.65 163.89 35.84 163.45 33.31 165.3 31.51 162.75 31.14"/><polygon class="cls-4" points="172.78 31.14 171.65 28.83 170.51 31.14 167.96 31.51 169.8 33.31 169.37 35.84 171.65 34.65 173.92 35.84 173.49 33.31 175.33 31.51 172.78 31.14"/></svg>