<svg id="Layer_1" data-name="Layer 1" xmlns="http://www.w3.org/2000/svg" xmlns:xlink="http://www.w3.org/1999/xlink" viewBox="0 0 239.48 97.75"><defs><style>.cls-1{fill:#fff;}.cls-2{fill:url(#linear-gradient);}.cls-3{fill:#f9a825;}</style><linearGradient id="linear-gradient" x1="34.98" y1="2.38" x2="82.19" y2="84.16" gradientUnits="userSpaceOnUse"><stop offset="0.17" stop-color="#f9c225"/><stop offset="0.2" stop-color="#f9be25"/><stop offset="0.35" stop-color="#f9ae25"/><stop offset="0.46" stop-color="#f9a825"/></linearGradient></defs><title>logohotel</title><circle class="cls-1" cx="36.23" cy="28.33" r="11.03" transform="translate(-21.44 11.66) rotate(-23.62)"/><path class="cls-2" d="M78.89,49.32H59.15V31.15l0,0c0-5.53,0-8.16-1.74-12.11a23.1,23.1,0,1,0-34.61,28h0L59.14,80.6V56.44H78.89v24h9.69V25.25H78.89ZM42.38,42.39a15.35,15.35,0,1,1,7.91-20.21A15.35,15.35,0,0,1,42.38,42.39Z" transform="translate(-13.12 -5.23)"/><path class="cls-3" d="M126.06,47.61a15.63,15.63,0,0,0-5.74-4.25A20.37,20.37,0,0,0,112,41.81a21,21,0,0,0-8.4,1.55,16.77,16.77,0,0,0-5.94,4.19,17.3,17.3,0,0,0-3.52,6.13A23.24,23.24,0,0,0,93,61.09a26.37,26.37,0,0,0,1.25,8.37,17.62,17.62,0,0,0,3.68,6.41,16.24,16.24,0,0,0,6,4.11,21.85,21.85,0,0,0,8.23,1.44,18.27,18.27,0,0,0,7.66-1.55,17.12,17.12,0,0,0,5.78-4.23,18.5,18.5,0,0,0,3.63-6.26,23,23,0,0,0,1.25-7.63A27.5,27.5,0,0,0,129.39,54,17.46,17.46,0,0,0,126.06,47.61Zm-5.81,18.17a17.48,17.48,0,0,1-1.62,4.69,9.79,9.79,0,0,1-2.78,3.35,6.51,6.51,0,0,1-4,1.27,7,7,0,0,1-4.18-1.25,9.82,9.82,0,0,1-2.85-3.22,15.38,15.38,0,0,1-1.62-4.37,22.61,22.61,0,0,1-.51-4.72,23,23,0,0,1,.58-5.3A13.82,13.82,0,0,1,105,52a8.5,8.5,0,0,1,2.84-2.8,7.51,7.51,0,0,1,3.93-1,8.33,8.33,0,0,1,4.19,1,8.17,8.17,0,0,1,2.82,2.66,11.43,11.43,0,0,1,1.57,3.91,22.75,22.75,0,0,1,.48,4.74A26.77,26.77,0,0,1,120.25,65.78Z" transform="translate(-13.12 -5.23)"/><path class="cls-3" d="M153.17,73.83a14.22,14.22,0,0,1-2.55.26,3.52,3.52,0,0,1-1.44-.28,2.4,2.4,0,0,1-1.06-1,5.36,5.36,0,0,1-.65-1.76,13.46,13.46,0,0,1-.23-2.71V49h8.49l.85-6.56h-9.34V32.58h-6.77l-2.4,9.83-5.6,1.9V49h5.6V69.41a23.08,23.08,0,0,0,.48,4.9A9,9,0,0,0,140.24,78a7.78,7.78,0,0,0,3.26,2.36,14,14,0,0,0,5.22.83,13.14,13.14,0,0,0,4.77-1,20.57,20.57,0,0,0,5-2.89l-2.11-4.48A18.72,18.72,0,0,1,153.17,73.83Z" transform="translate(-13.12 -5.23)"/><path class="cls-3" d="M183.86,81.07a17.35,17.35,0,0,0,4.09-1,18.57,18.57,0,0,0,4-2.17,27.34,27.34,0,0,0,4.21-3.74l-5.57-4.83a26.79,26.79,0,0,1-2.38,2.59,10.55,10.55,0,0,1-2.33,1.67,9.81,9.81,0,0,1-2.64.92,17.36,17.36,0,0,1-3.33.28,6.68,6.68,0,0,1-3.88-1.16,10.45,10.45,0,0,1-2.84-2.91A14.3,14.3,0,0,1,171.49,67a12.55,12.55,0,0,1-.6-3.63h23.79a26.52,26.52,0,0,0,.37-3q.09-1.46.09-2.84a19.51,19.51,0,0,0-1-6.5,13.07,13.07,0,0,0-3-5A13.39,13.39,0,0,0,186,42.9a20.77,20.77,0,0,0-7-1.09,18.06,18.06,0,0,0-7.84,1.59,16.07,16.07,0,0,0-5.53,4.23,17.53,17.53,0,0,0-3.28,6.11A24.45,24.45,0,0,0,161.24,61a27.75,27.75,0,0,0,1,7.61,18.68,18.68,0,0,0,3.24,6.48,15.9,15.9,0,0,0,5.67,4.51,18.87,18.87,0,0,0,8.33,1.69A37,37,0,0,0,183.86,81.07ZM171.28,54.39a8.35,8.35,0,0,1,1.2-2.89,6.24,6.24,0,0,1,2.29-2,7.71,7.71,0,0,1,3.66-.78,7.07,7.07,0,0,1,3.75.86,6,6,0,0,1,2.13,2.18,8.1,8.1,0,0,1,1,2.93,23.67,23.67,0,0,1,.21,3.08H170.93A15.69,15.69,0,0,1,171.28,54.39Z" transform="translate(-13.12 -5.23)"/><path class="cls-3" d="M204.57,79.64a5.94,5.94,0,0,0,2.5,1.22,13.29,13.29,0,0,0,2.93.32,12.1,12.1,0,0,0,2.41-.25,17.56,17.56,0,0,0,2.36-.65,18.15,18.15,0,0,0,2.19-.93,17.58,17.58,0,0,0,1.92-1.13l-1.55-4.72-1.87.74a5.42,5.42,0,0,1-2,.32,1.93,1.93,0,0,1-1.6-.74,4.2,4.2,0,0,1-.58-2.54v-46h-9.16V73.07a10.61,10.61,0,0,0,.67,4.09A6.32,6.32,0,0,0,204.57,79.64Z" transform="translate(-13.12 -5.23)"/><path class="cls-3" d="M232.47,81a38.68,38.68,0,0,0,4.79.28,22.09,22.09,0,0,0,5.57-.7,16.86,16.86,0,0,0,4.85-2.06,11.12,11.12,0,0,0,3.44-3.38,8.44,8.44,0,0,0,1.3-4.67,11.54,11.54,0,0,0-.55-3.72A10.6,10.6,0,0,0,250.44,64a10.19,10.19,0,0,0-2-2.08,15.57,15.57,0,0,0-2.24-1.46,17.77,17.77,0,0,0-2.19-1l-1.8-.67-3-1-3-1q-1-.32-1.87-.69a8,8,0,0,1-1.64-.88,4.55,4.55,0,0,1-1.18-1.2,2.89,2.89,0,0,1-.46-1.64,4.23,4.23,0,0,1,.32-1.62,3.66,3.66,0,0,1,1-1.37,5.05,5.05,0,0,1,1.74-1,8.08,8.08,0,0,1,2.54-.35,14,14,0,0,1,3.14.32,10.35,10.35,0,0,1,2.54.93,12.9,12.9,0,0,1,2.2,1.48q1,.86,2.13,2l4.16-6.41a18.29,18.29,0,0,0-6.54-3.42,28.9,28.9,0,0,0-7.95-1,21.79,21.79,0,0,0-5.34.65,16,16,0,0,0-4.63,1.94,10.51,10.51,0,0,0-3.28,3.19A8,8,0,0,0,221.93,52a10.09,10.09,0,0,0,.6,3.61,10.65,10.65,0,0,0,1.57,2.8,11.16,11.16,0,0,0,2.17,2.11,19.48,19.48,0,0,0,2.43,1.53,22,22,0,0,0,2.38,1.09q1.14.44,2,.72,1.44.6,2.87,1.07t2.87,1.08a12.87,12.87,0,0,1,1.55.69,8,8,0,0,1,1.41.93,4.29,4.29,0,0,1,1,1.23,3.24,3.24,0,0,1,.39,1.59,4.39,4.39,0,0,1-.48,2.11,4.1,4.1,0,0,1-1.29,1.44,5.59,5.59,0,0,1-1.94.83,10.62,10.62,0,0,1-2.43.26q-5.92,0-11.14-5.78l-5,6a17.37,17.37,0,0,0,3.45,2.87,17.73,17.73,0,0,0,3.86,1.81A22.5,22.5,0,0,0,232.47,81Z" transform="translate(-13.12 -5.23)"/><path class="cls-1" d="M189.76,93.75a15.86,15.86,0,0,0-3.53-1.16,8.59,8.59,0,0,1-3-1.08,1.24,1.24,0,0,1-.49-1,1.18,1.18,0,0,1,.52-1,3.73,3.73,0,0,1,2.23-.59,3.3,3.3,0,0,1,2.07.55,2.77,2.77,0,0,1,.9,1.79l3.27-.14a4.71,4.71,0,0,0-1.62-3.57,6.83,6.83,0,0,0-4.59-1.34,8.1,8.1,0,0,0-3.18.56,4.39,4.39,0,0,0-2,1.64,4.16,4.16,0,0,0-.7,2.31A4.21,4.21,0,0,0,181.11,94a8.88,8.88,0,0,0,3.69,1.6q2,.51,2.62.71a2.69,2.69,0,0,1,1.18.7,1.47,1.47,0,0,1,.34,1,2,2,0,0,1-.8,1.56,3.64,3.64,0,0,1-2.38.67,3.52,3.52,0,0,1-2.37-.75,3.88,3.88,0,0,1-1.16-2.35l-3.18.31a6.17,6.17,0,0,0,2,4.13,7,7,0,0,0,4.71,1.42,9.17,9.17,0,0,0,3.52-.59,4.63,4.63,0,0,0,2.19-1.81,5.09,5.09,0,0,0,.13-5.18A4.55,4.55,0,0,0,189.76,93.75Z" transform="translate(-13.12 -5.23)"/><polygon class="cls-1" points="180.17 84.01 184.97 84.01 184.97 97.46 188.24 97.46 188.24 84.01 193.03 84.01 193.03 81.28 180.17 81.28 180.17 84.01"/><path class="cls-1" d="M214.53,86.23a8.88,8.88,0,0,0-3.49.64,6.3,6.3,0,0,0-2.09,1.46,7.62,7.62,0,0,0-1.51,2.22,10.3,10.3,0,0,0-.74,4.15,8.36,8.36,0,0,0,2.13,6.07,7.62,7.62,0,0,0,5.74,2.2,7.54,7.54,0,0,0,5.7-2.21,8.48,8.48,0,0,0,2.13-6.13,8.5,8.5,0,0,0-2.15-6.17A7.6,7.6,0,0,0,214.53,86.23Zm3.24,12.53a4.36,4.36,0,0,1-6.43,0,7.57,7.57,0,0,1,0-8.35,4.52,4.52,0,0,1,6.5,0A6.09,6.09,0,0,1,219,94.54,6.19,6.19,0,0,1,217.77,98.76Z" transform="translate(-13.12 -5.23)"/><path class="cls-1" d="M235.18,96.9a7.64,7.64,0,0,0-1.75-1.36,5.14,5.14,0,0,0,3.2-1.5,4.32,4.32,0,0,0,1.07-3,4.67,4.67,0,0,0-.71-2.55,3.72,3.72,0,0,0-1.88-1.55,11.77,11.77,0,0,0-3.77-.44h-6.88v16.18h3.27V95.93h.66a5.38,5.38,0,0,1,1.64.18,2.51,2.51,0,0,1,1,.67,22.87,22.87,0,0,1,1.72,2.38l2.36,3.52H239l-2-3.16A18.48,18.48,0,0,0,235.18,96.9Zm-5-3.55h-2.42V89.24h2.55q2,0,2.38.06a2,2,0,0,1,1.23.63,1.94,1.94,0,0,1,.44,1.32,2.11,2.11,0,0,1-.33,1.21,1.76,1.76,0,0,1-.92.68A12.48,12.48,0,0,1,230.15,93.35Z" transform="translate(-13.12 -5.23)"/><polygon class="cls-1" points="230.44 94.73 230.44 90.33 238.56 90.33 238.56 87.6 230.44 87.6 230.44 84.01 239.17 84.01 239.17 81.28 227.17 81.28 227.17 97.46 239.48 97.46 239.48 94.73 230.44 94.73"/></svg>